<?xml version="1.0" standalone="no"?>
<!DOCTYPE svg PUBLIC "-//W3C//DTD SVG 1.1//EN" "http://www.w3.org/Graphics/SVG/1.1/DTD/svg11.dtd" >
<svg xmlns="http://www.w3.org/2000/svg" xmlns:xlink="http://www.w3.org/1999/xlink" version="1.1">
<metadata>
Created by FontForge 20201107 at Sat Dec 30 09:15:04 2023
 By 
(c) twinletter 2022. All rights reserved

</metadata>
<defs>
<font id="tijuf-Regular" horiz-adv-x="1269" >
  <font-face 
    font-family="tijuf"
    font-weight="400"
    font-stretch="normal"
    units-per-em="2048"
    panose-1="0 0 0 0 0 0 0 0 0 0"
    ascent="1638"
    descent="-410"
    x-height="1024"
    cap-height="1536"
    bbox="-242 -513.2 2372 1563"
    underline-thickness="102"
    underline-position="-255"
    unicode-range="U+000A-20AC"
  />
<missing-glyph horiz-adv-x="512" 
 />
    <glyph glyph-name=".notdef" horiz-adv-x="512" 
 />
    <glyph glyph-name="uni0000" horiz-adv-x="0" 
 />
    <glyph glyph-name="uni0000" horiz-adv-x="0" 
 />
    <glyph glyph-name="uni000D" unicode="&#xd;" horiz-adv-x="512" 
 />
    <glyph glyph-name="uni000A" unicode="&#xa;" horiz-adv-x="1110" 
 />
    <glyph glyph-name="space" unicode=" " horiz-adv-x="960" 
 />
    <glyph glyph-name="exclam" unicode="!" 
d="M758 61v-10h8v-8h-8v-12q0 -8 8 -4v-11q-3 -2 -9 -1.5t-9 3.5q-3 4 -3 25h-18v-12q0 -7 10 -4v-11q-13 -3 -18 2q-2 2 -2 13v12h-4v8h4v6l10 4v-10h18v6zM612 879q-15 22 -2.5 44.5t43.5 6.5q49 -21 49 -144q0 -16 -0.5 -29t-6 -46.5t-15 -56t-31 -41.5t-51.5 -19
q-29 0 -49 17t-23 44q-8 -26 -29.5 -41.5t-41.5 -15.5q-78 0 -78 166q0 141 88 141q26 0 32.5 -17t-5.5 -36q-22 -38 -31.5 -85.5t-3.5 -79.5t24 -32q15 0 19.5 30t3 66.5t9.5 67t38 31.5q33 1 37 -64q1 -19 0 -60q-1 -73 11 -81q5 -4 13 0q29 13 29 99t-29 135zM797 586
q-39 0 -58.5 41t-19.5 98q0 16 1.5 33.5t6 46.5t17.5 47t32 18q16 0 27.5 -13.5t11.5 -39.5q0 -12 -6 -57.5t-6 -77.5q0 -37 20 -37q7 0 13.5 6t11.5 17.5t9 25t6.5 31t5 32.5t4 32.5t2 28.5t1.5 23.5t1 14.5q3 23 12.5 34t30.5 11q13 0 21 -5.5t11.5 -17t5 -24.5
t-0.5 -33.5t-4.5 -37.5t-5.5 -42t-5 -43t1 -16q9 6 28 141v4q6 38 22 56t45 18q37 0 58.5 -27t13.5 -77q-3 -16 -6 -38.5t-6 -57t0 -56.5t14 -20q15 3 29 41.5t19.5 97.5t1 123.5t-30 127t-70.5 99.5q-54 45 -118.5 45t-116 -39t-72.5 -104q-20 -62 -54 -61q-28 1 -42 41
q-11 30 -5 67q12 72 81 132.5t157 72.5q93 12 170 -40.5t115 -154.5q35 -108 31 -218t-43 -193.5t-91 -83.5q-36 0 -50.5 39.5t-10.5 87.5q1 22 6 51.5t9 49t4 36t-7 22.5q-14 11 -21 -21q-4 -16 -11 -66q-16 -125 -40 -160q-16 -23 -39 -23q-39 0 -39 65q-7 -29 -26.5 -51
t-50.5 -22zM180 905q0 -13 -10 -20t-18 -7.5t-23 -0.5q-31 0 -58.5 13.5t-27.5 39.5q0 58 81.5 87t252.5 34q161 4 209 -9q57 -16 26 -55q-22 -26 -45.5 -32t-45.5 1t-68.5 13t-98.5 0q-2 -35 -6.5 -104.5t-6.5 -112t-0.5 -95t9.5 -88.5q3 -16 9 -34t10 -28t5 -19t-4.5 -13
t-19.5 -4q-27 0 -46 17t-28.5 39t-14.5 53t-6 48t-1 36q0 90 14 303q-1 0 -22 -1l-31.5 -1.5t-32.5 -2.5t-34.5 -4.5t-27.5 -6t-22.5 -9t-7.5 -12.5q3 -13 23 -10t43.5 1.5t23.5 -16.5zM784 879q-22 0 -33.5 16t-11.5 41q0 21 11.5 36t31.5 15q21 0 32 -14.5t11 -36.5
q0 -21 -10.5 -39t-30.5 -18zM735 530h68t102.5 2t104 7.5t117.5 19t100 33.5q2 1 5 2q6 4 9.5 3t3.5 -11q0 -25 -14 -44t-32 -28.5t-47.5 -16.5t-47 -8.5t-43.5 -3.5q-133 -8 -326 -8q-17 -252 25 -252q19 0 32.5 35.5t22.5 78.5t31 78.5t55 35.5q45 0 50 -43q6 -47 -33 -91
q-20 -24 -48 -36q-1 -15 -1.5 -33.5t9 -34.5t27.5 -16q25 0 43 24t25.5 52.5t9.5 58.5q2 28 -7 54.5t-9 37.5q0 12 9.5 17t18.5 3q28 -6 42.5 -29t11.5 -52q6 28 35.5 53.5t56.5 25.5q41 0 60 -41.5t7 -86t-49 -52.5q-20 -3 -37.5 6.5t-17.5 30.5q0 11 17 11t24 7
q21 20 12 51t-39 27q-27 -5 -37.5 -47t-10 -89.5t-10.5 -85t-38 -34.5q-17 1 -27 29.5t-10 71.5q-11 -37 -33 -64.5t-55 -27.5t-59 24.5t-29 56.5q-32 -71 -68 -71q-25 0 -44 25.5t-25 52.5q-10 -31 -35.5 -56.5t-56.5 -25.5q-30 0 -54.5 23t-23.5 54q-10 -36 -34.5 -59.5
t-59.5 -23.5q-25 0 -47.5 13t-34.5 36q-26 -29 -60 -41q-61 -23 -97 18t-36 135q0 34 7.5 100t5 119.5t-22.5 112.5q-9 26 2 37.5t30 9.5t38 -12q37 -22 48.5 -79t5.5 -123t-13.5 -129t-3 -104.5t31.5 -41.5q26 0 41 25.5t20.5 62t12.5 73t25 62t49 25.5q53 0 48 -52
q-5 -50 -50 -98q-8 -9 -17 -16q-5 -26 6.5 -55t36.5 -29q21 0 35.5 23.5t20 62t7.5 73.5t2 74t1 47q-5 0 -23.5 -1.5t-30.5 -0.5t-28 4t-26.5 13t-14.5 26q-6 27 1.5 31t30.5 -6q15 -6 25 -9t28.5 -6.5t35.5 -3.5q0 27 7 40.5t27 13.5q37 0 37 -54l95 2q0 52 36 52
q16 0 26 -14t9 -36zM571 479q0 -5 -3 -80.5t2 -129t22 -54.5q19 -1 33 21t21 60t10.5 71t5.5 70.5t2 41.5h-93zM391 311q16 13 32 49t7 43q-12 12 -26 -26q-13 -36 -13 -66zM874 311q39 18 52 60q4 20 1 28.5t-14 6.5q-13 -3 -25 -37.5t-14 -57.5zM653 16v50h13v-50h-13z
M514 61v-10h8v-8h-8v-12q0 -7 8 -4v-11q-12 -4 -18 2q-2 3 -2 25h-4v8h4v6zM979 53q10 0 10 -16v-21h-8v19q0 6 -3.5 7.5t-7 -1.5t-3.5 -6v-19h-11v19q0 8 -6 8t-6 -6v-21h-10v35h8l2 -2q4 5 12 4t9 -8q5 8 14 8zM631 53q16 0 16 -16v-21h-14v19q0 4 -2 6t-4.5 1.5
t-3.5 -3.5v-23h-15v35h13l2 -2q4 4 8 4zM821 45q5 8 17 8v-12q-4 1 -9.5 -0.5t-5.5 -3.5v-21h-10v35h8v-6zM690 53q19 0 19 -22h-23q0 -13 19 -4l4 -9q-12 -6 -24.5 -1t-12.5 16q0 20 18 20zM909 53q19 0 19 -19.5t-19 -19.5q-13 0 -18 10t0 19.5t18 9.5zM866 35q0 -8 21 -8
v-9q-26 -8 -32 10q-5 15 11 22q9 4 21 1v-10q-5 3 -13 1.5t-8 -7.5zM590 16v35h10v-35h-10zM348 27l4 24h10l-8 -35h-10l-8 23l-6 -23h-11l-10 35h13l4 -24l6 24h10zM686 37h12q0 6 -6 6t-6 -6zM909 25q7 0 7 9t-7 9t-9 -4.5t0.5 -9t8.5 -4.5zM842 29q6 0 6 -7.5t-6 -7.5
t-6 7.5t6 7.5zM485 29q7 0 7 -7.5t-7 -7.5q-6 0 -6 7.5t6 7.5zM403 27l5 24h12l-10 -35h-11l-6 23l-8 -23h-10l-8 35h10l4 -24l6 24h10zM459 27l6 24h10l-8 -35h-12l-6 23l-7 -23h-12l-8 35h10l4 -24l8 24h9zM567 27l4 24h11l-9 -35h-10l-8 23l-6 -23h-10l-11 35h13l4 -24
l6 24h8zM594 66q6 0 6 -6.5t-6 -6.5q-5 0 -7 3.5t0 6.5t7 3zM788 53q19 0 19 -22h-23q0 -13 19 -4l4 -9q-13 -6 -25 -1.5t-12 16.5q0 20 18 20zM784 37h13q0 6 -6.5 6t-6.5 -6z" />
    <glyph glyph-name="quotedbl" unicode="&#x22;" 
d="M758 61v-10h8v-8h-8v-12q0 -8 8 -4v-11q-3 -2 -9 -1.5t-9 3.5q-3 4 -3 25h-18v-12q0 -7 10 -4v-11q-13 -3 -18 2q-2 2 -2 13v12h-4v8h4v6l10 4v-10h18v6zM612 879q-15 22 -2.5 44.5t43.5 6.5q49 -21 49 -144q0 -16 -0.5 -29t-6 -46.5t-15 -56t-31 -41.5t-51.5 -19
q-29 0 -49 17t-23 44q-8 -26 -29.5 -41.5t-41.5 -15.5q-78 0 -78 166q0 141 88 141q26 0 32.5 -17t-5.5 -36q-22 -38 -31.5 -85.5t-3.5 -79.5t24 -32q15 0 19.5 30t3 66.5t9.5 67t38 31.5q33 1 37 -64q1 -19 0 -60q-1 -73 11 -81q5 -4 13 0q29 13 29 99t-29 135zM797 586
q-39 0 -58.5 41t-19.5 98q0 16 1.5 33.5t6 46.5t17.5 47t32 18q16 0 27.5 -13.5t11.5 -39.5q0 -12 -6 -57.5t-6 -77.5q0 -37 20 -37q7 0 13.5 6t11.5 17.5t9 25t6.5 31t5 32.5t4 32.5t2 28.5t1.5 23.5t1 14.5q3 23 12.5 34t30.5 11q13 0 21 -5.5t11.5 -17t5 -24.5
t-0.5 -33.5t-4.5 -37.5t-5.5 -42t-5 -43t1 -16q9 6 28 141v4q6 38 22 56t45 18q37 0 58.5 -27t13.5 -77q-3 -16 -6 -38.5t-6 -57t0 -56.5t14 -20q15 3 29 41.5t19.5 97.5t1 123.5t-30 127t-70.5 99.5q-54 45 -118.5 45t-116 -39t-72.5 -104q-20 -62 -54 -61q-28 1 -42 41
q-11 30 -5 67q12 72 81 132.5t157 72.5q93 12 170 -40.5t115 -154.5q35 -108 31 -218t-43 -193.5t-91 -83.5q-36 0 -50.5 39.5t-10.5 87.5q1 22 6 51.5t9 49t4 36t-7 22.5q-14 11 -21 -21q-4 -16 -11 -66q-16 -125 -40 -160q-16 -23 -39 -23q-39 0 -39 65q-7 -29 -26.5 -51
t-50.5 -22zM180 905q0 -13 -10 -20t-18 -7.5t-23 -0.5q-31 0 -58.5 13.5t-27.5 39.5q0 58 81.5 87t252.5 34q161 4 209 -9q57 -16 26 -55q-22 -26 -45.5 -32t-45.5 1t-68.5 13t-98.5 0q-2 -35 -6.5 -104.5t-6.5 -112t-0.5 -95t9.5 -88.5q3 -16 9 -34t10 -28t5 -19t-4.5 -13
t-19.5 -4q-27 0 -46 17t-28.5 39t-14.5 53t-6 48t-1 36q0 90 14 303q-1 0 -22 -1l-31.5 -1.5t-32.5 -2.5t-34.5 -4.5t-27.5 -6t-22.5 -9t-7.5 -12.5q3 -13 23 -10t43.5 1.5t23.5 -16.5zM784 879q-22 0 -33.5 16t-11.5 41q0 21 11.5 36t31.5 15q21 0 32 -14.5t11 -36.5
q0 -21 -10.5 -39t-30.5 -18zM735 530h68t102.5 2t104 7.5t117.5 19t100 33.5q2 1 5 2q6 4 9.5 3t3.5 -11q0 -25 -14 -44t-32 -28.5t-47.5 -16.5t-47 -8.5t-43.5 -3.5q-133 -8 -326 -8q-17 -252 25 -252q19 0 32.5 35.5t22.5 78.5t31 78.5t55 35.5q45 0 50 -43q6 -47 -33 -91
q-20 -24 -48 -36q-1 -15 -1.5 -33.5t9 -34.5t27.5 -16q25 0 43 24t25.5 52.5t9.5 58.5q2 28 -7 54.5t-9 37.5q0 12 9.5 17t18.5 3q28 -6 42.5 -29t11.5 -52q6 28 35.5 53.5t56.5 25.5q41 0 60 -41.5t7 -86t-49 -52.5q-20 -3 -37.5 6.5t-17.5 30.5q0 11 17 11t24 7
q21 20 12 51t-39 27q-27 -5 -37.5 -47t-10 -89.5t-10.5 -85t-38 -34.5q-17 1 -27 29.5t-10 71.5q-11 -37 -33 -64.5t-55 -27.5t-59 24.5t-29 56.5q-32 -71 -68 -71q-25 0 -44 25.5t-25 52.5q-10 -31 -35.5 -56.5t-56.5 -25.5q-30 0 -54.5 23t-23.5 54q-10 -36 -34.5 -59.5
t-59.5 -23.5q-25 0 -47.5 13t-34.5 36q-26 -29 -60 -41q-61 -23 -97 18t-36 135q0 34 7.5 100t5 119.5t-22.5 112.5q-9 26 2 37.5t30 9.5t38 -12q37 -22 48.5 -79t5.5 -123t-13.5 -129t-3 -104.5t31.5 -41.5q26 0 41 25.5t20.5 62t12.5 73t25 62t49 25.5q53 0 48 -52
q-5 -50 -50 -98q-8 -9 -17 -16q-5 -26 6.5 -55t36.5 -29q21 0 35.5 23.5t20 62t7.5 73.5t2 74t1 47q-5 0 -23.5 -1.5t-30.5 -0.5t-28 4t-26.5 13t-14.5 26q-6 27 1.5 31t30.5 -6q15 -6 25 -9t28.5 -6.5t35.5 -3.5q0 27 7 40.5t27 13.5q37 0 37 -54l95 2q0 52 36 52
q16 0 26 -14t9 -36zM571 479q0 -5 -3 -80.5t2 -129t22 -54.5q19 -1 33 21t21 60t10.5 71t5.5 70.5t2 41.5h-93zM391 311q16 13 32 49t7 43q-12 12 -26 -26q-13 -36 -13 -66zM874 311q39 18 52 60q4 20 1 28.5t-14 6.5q-13 -3 -25 -37.5t-14 -57.5zM653 16v50h13v-50h-13z
M514 61v-10h8v-8h-8v-12q0 -7 8 -4v-11q-12 -4 -18 2q-2 3 -2 25h-4v8h4v6zM979 53q10 0 10 -16v-21h-8v19q0 6 -3.5 7.5t-7 -1.5t-3.5 -6v-19h-11v19q0 8 -6 8t-6 -6v-21h-10v35h8l2 -2q4 5 12 4t9 -8q5 8 14 8zM631 53q16 0 16 -16v-21h-14v19q0 4 -2 6t-4.5 1.5
t-3.5 -3.5v-23h-15v35h13l2 -2q4 4 8 4zM821 45q5 8 17 8v-12q-4 1 -9.5 -0.5t-5.5 -3.5v-21h-10v35h8v-6zM690 53q19 0 19 -22h-23q0 -13 19 -4l4 -9q-12 -6 -24.5 -1t-12.5 16q0 20 18 20zM909 53q19 0 19 -19.5t-19 -19.5q-13 0 -18 10t0 19.5t18 9.5zM866 35q0 -8 21 -8
v-9q-26 -8 -32 10q-5 15 11 22q9 4 21 1v-10q-5 3 -13 1.5t-8 -7.5zM590 16v35h10v-35h-10zM348 27l4 24h10l-8 -35h-10l-8 23l-6 -23h-11l-10 35h13l4 -24l6 24h10zM686 37h12q0 6 -6 6t-6 -6zM909 25q7 0 7 9t-7 9t-9 -4.5t0.5 -9t8.5 -4.5zM842 29q6 0 6 -7.5t-6 -7.5
t-6 7.5t6 7.5zM485 29q7 0 7 -7.5t-7 -7.5q-6 0 -6 7.5t6 7.5zM403 27l5 24h12l-10 -35h-11l-6 23l-8 -23h-10l-8 35h10l4 -24l6 24h10zM459 27l6 24h10l-8 -35h-12l-6 23l-7 -23h-12l-8 35h10l4 -24l8 24h9zM567 27l4 24h11l-9 -35h-10l-8 23l-6 -23h-10l-11 35h13l4 -24
l6 24h8zM594 66q6 0 6 -6.5t-6 -6.5q-5 0 -7 3.5t0 6.5t7 3zM788 53q19 0 19 -22h-23q0 -13 19 -4l4 -9q-13 -6 -25 -1.5t-12 16.5q0 20 18 20zM784 37h13q0 6 -6.5 6t-6.5 -6z" />
    <glyph glyph-name="numbersign" unicode="#" 
d="M758 61v-10h8v-8h-8v-12q0 -8 8 -4v-11q-3 -2 -9 -1.5t-9 3.5q-3 4 -3 25h-18v-12q0 -7 10 -4v-11q-13 -3 -18 2q-2 2 -2 13v12h-4v8h4v6l10 4v-10h18v6zM612 879q-15 22 -2.5 44.5t43.5 6.5q49 -21 49 -144q0 -16 -0.5 -29t-6 -46.5t-15 -56t-31 -41.5t-51.5 -19
q-29 0 -49 17t-23 44q-8 -26 -29.5 -41.5t-41.5 -15.5q-78 0 -78 166q0 141 88 141q26 0 32.5 -17t-5.5 -36q-22 -38 -31.5 -85.5t-3.5 -79.5t24 -32q15 0 19.5 30t3 66.5t9.5 67t38 31.5q33 1 37 -64q1 -19 0 -60q-1 -73 11 -81q5 -4 13 0q29 13 29 99t-29 135zM797 586
q-39 0 -58.5 41t-19.5 98q0 16 1.5 33.5t6 46.5t17.5 47t32 18q16 0 27.5 -13.5t11.5 -39.5q0 -12 -6 -57.5t-6 -77.5q0 -37 20 -37q7 0 13.5 6t11.5 17.5t9 25t6.5 31t5 32.5t4 32.5t2 28.5t1.5 23.5t1 14.5q3 23 12.5 34t30.5 11q13 0 21 -5.5t11.5 -17t5 -24.5
t-0.5 -33.5t-4.5 -37.5t-5.5 -42t-5 -43t1 -16q9 6 28 141v4q6 38 22 56t45 18q37 0 58.5 -27t13.5 -77q-3 -16 -6 -38.5t-6 -57t0 -56.5t14 -20q15 3 29 41.5t19.5 97.5t1 123.5t-30 127t-70.5 99.5q-54 45 -118.5 45t-116 -39t-72.5 -104q-20 -62 -54 -61q-28 1 -42 41
q-11 30 -5 67q12 72 81 132.5t157 72.5q93 12 170 -40.5t115 -154.5q35 -108 31 -218t-43 -193.5t-91 -83.5q-36 0 -50.5 39.5t-10.5 87.5q1 22 6 51.5t9 49t4 36t-7 22.5q-14 11 -21 -21q-4 -16 -11 -66q-16 -125 -40 -160q-16 -23 -39 -23q-39 0 -39 65q-7 -29 -26.5 -51
t-50.5 -22zM180 905q0 -13 -10 -20t-18 -7.5t-23 -0.5q-31 0 -58.5 13.5t-27.5 39.5q0 58 81.5 87t252.5 34q161 4 209 -9q57 -16 26 -55q-22 -26 -45.5 -32t-45.5 1t-68.5 13t-98.5 0q-2 -35 -6.5 -104.5t-6.5 -112t-0.5 -95t9.5 -88.5q3 -16 9 -34t10 -28t5 -19t-4.5 -13
t-19.5 -4q-27 0 -46 17t-28.5 39t-14.5 53t-6 48t-1 36q0 90 14 303q-1 0 -22 -1l-31.5 -1.5t-32.5 -2.5t-34.5 -4.5t-27.5 -6t-22.5 -9t-7.5 -12.5q3 -13 23 -10t43.5 1.5t23.5 -16.5zM784 879q-22 0 -33.5 16t-11.5 41q0 21 11.5 36t31.5 15q21 0 32 -14.5t11 -36.5
q0 -21 -10.5 -39t-30.5 -18zM735 530h68t102.5 2t104 7.5t117.5 19t100 33.5q2 1 5 2q6 4 9.5 3t3.5 -11q0 -25 -14 -44t-32 -28.5t-47.5 -16.5t-47 -8.5t-43.5 -3.5q-133 -8 -326 -8q-17 -252 25 -252q19 0 32.5 35.5t22.5 78.5t31 78.5t55 35.5q45 0 50 -43q6 -47 -33 -91
q-20 -24 -48 -36q-1 -15 -1.5 -33.5t9 -34.5t27.5 -16q25 0 43 24t25.5 52.5t9.5 58.5q2 28 -7 54.5t-9 37.5q0 12 9.5 17t18.5 3q28 -6 42.5 -29t11.5 -52q6 28 35.5 53.5t56.5 25.5q41 0 60 -41.5t7 -86t-49 -52.5q-20 -3 -37.5 6.5t-17.5 30.5q0 11 17 11t24 7
q21 20 12 51t-39 27q-27 -5 -37.5 -47t-10 -89.5t-10.5 -85t-38 -34.5q-17 1 -27 29.5t-10 71.5q-11 -37 -33 -64.5t-55 -27.5t-59 24.5t-29 56.5q-32 -71 -68 -71q-25 0 -44 25.5t-25 52.5q-10 -31 -35.5 -56.5t-56.5 -25.5q-30 0 -54.5 23t-23.5 54q-10 -36 -34.5 -59.5
t-59.5 -23.5q-25 0 -47.5 13t-34.5 36q-26 -29 -60 -41q-61 -23 -97 18t-36 135q0 34 7.5 100t5 119.5t-22.5 112.5q-9 26 2 37.5t30 9.5t38 -12q37 -22 48.5 -79t5.5 -123t-13.5 -129t-3 -104.5t31.5 -41.5q26 0 41 25.5t20.5 62t12.5 73t25 62t49 25.5q53 0 48 -52
q-5 -50 -50 -98q-8 -9 -17 -16q-5 -26 6.5 -55t36.5 -29q21 0 35.5 23.5t20 62t7.5 73.5t2 74t1 47q-5 0 -23.5 -1.5t-30.5 -0.5t-28 4t-26.5 13t-14.5 26q-6 27 1.5 31t30.5 -6q15 -6 25 -9t28.5 -6.5t35.5 -3.5q0 27 7 40.5t27 13.5q37 0 37 -54l95 2q0 52 36 52
q16 0 26 -14t9 -36zM571 479q0 -5 -3 -80.5t2 -129t22 -54.5q19 -1 33 21t21 60t10.5 71t5.5 70.5t2 41.5h-93zM391 311q16 13 32 49t7 43q-12 12 -26 -26q-13 -36 -13 -66zM874 311q39 18 52 60q4 20 1 28.5t-14 6.5q-13 -3 -25 -37.5t-14 -57.5zM653 16v50h13v-50h-13z
M514 61v-10h8v-8h-8v-12q0 -7 8 -4v-11q-12 -4 -18 2q-2 3 -2 25h-4v8h4v6zM979 53q10 0 10 -16v-21h-8v19q0 6 -3.5 7.5t-7 -1.5t-3.5 -6v-19h-11v19q0 8 -6 8t-6 -6v-21h-10v35h8l2 -2q4 5 12 4t9 -8q5 8 14 8zM631 53q16 0 16 -16v-21h-14v19q0 4 -2 6t-4.5 1.5
t-3.5 -3.5v-23h-15v35h13l2 -2q4 4 8 4zM821 45q5 8 17 8v-12q-4 1 -9.5 -0.5t-5.5 -3.5v-21h-10v35h8v-6zM690 53q19 0 19 -22h-23q0 -13 19 -4l4 -9q-12 -6 -24.5 -1t-12.5 16q0 20 18 20zM909 53q19 0 19 -19.5t-19 -19.5q-13 0 -18 10t0 19.5t18 9.5zM866 35q0 -8 21 -8
v-9q-26 -8 -32 10q-5 15 11 22q9 4 21 1v-10q-5 3 -13 1.5t-8 -7.5zM590 16v35h10v-35h-10zM348 27l4 24h10l-8 -35h-10l-8 23l-6 -23h-11l-10 35h13l4 -24l6 24h10zM686 37h12q0 6 -6 6t-6 -6zM909 25q7 0 7 9t-7 9t-9 -4.5t0.5 -9t8.5 -4.5zM842 29q6 0 6 -7.5t-6 -7.5
t-6 7.5t6 7.5zM485 29q7 0 7 -7.5t-7 -7.5q-6 0 -6 7.5t6 7.5zM403 27l5 24h12l-10 -35h-11l-6 23l-8 -23h-10l-8 35h10l4 -24l6 24h10zM459 27l6 24h10l-8 -35h-12l-6 23l-7 -23h-12l-8 35h10l4 -24l8 24h9zM567 27l4 24h11l-9 -35h-10l-8 23l-6 -23h-10l-11 35h13l4 -24
l6 24h8zM594 66q6 0 6 -6.5t-6 -6.5q-5 0 -7 3.5t0 6.5t7 3zM788 53q19 0 19 -22h-23q0 -13 19 -4l4 -9q-13 -6 -25 -1.5t-12 16.5q0 20 18 20zM784 37h13q0 6 -6.5 6t-6.5 -6z" />
    <glyph glyph-name="dollar" unicode="$" 
d="M758 61v-10h8v-8h-8v-12q0 -8 8 -4v-11q-3 -2 -9 -1.5t-9 3.5q-3 4 -3 25h-18v-12q0 -7 10 -4v-11q-13 -3 -18 2q-2 2 -2 13v12h-4v8h4v6l10 4v-10h18v6zM612 879q-15 22 -2.5 44.5t43.5 6.5q49 -21 49 -144q0 -16 -0.5 -29t-6 -46.5t-15 -56t-31 -41.5t-51.5 -19
q-29 0 -49 17t-23 44q-8 -26 -29.5 -41.5t-41.5 -15.5q-78 0 -78 166q0 141 88 141q26 0 32.5 -17t-5.5 -36q-22 -38 -31.5 -85.5t-3.5 -79.5t24 -32q15 0 19.5 30t3 66.5t9.5 67t38 31.5q33 1 37 -64q1 -19 0 -60q-1 -73 11 -81q5 -4 13 0q29 13 29 99t-29 135zM797 586
q-39 0 -58.5 41t-19.5 98q0 16 1.5 33.5t6 46.5t17.5 47t32 18q16 0 27.5 -13.5t11.5 -39.5q0 -12 -6 -57.5t-6 -77.5q0 -37 20 -37q7 0 13.5 6t11.5 17.5t9 25t6.5 31t5 32.5t4 32.5t2 28.5t1.5 23.5t1 14.5q3 23 12.5 34t30.5 11q13 0 21 -5.5t11.5 -17t5 -24.5
t-0.5 -33.5t-4.5 -37.5t-5.5 -42t-5 -43t1 -16q9 6 28 141v4q6 38 22 56t45 18q37 0 58.5 -27t13.5 -77q-3 -16 -6 -38.5t-6 -57t0 -56.5t14 -20q15 3 29 41.5t19.5 97.5t1 123.5t-30 127t-70.5 99.5q-54 45 -118.5 45t-116 -39t-72.5 -104q-20 -62 -54 -61q-28 1 -42 41
q-11 30 -5 67q12 72 81 132.5t157 72.5q93 12 170 -40.5t115 -154.5q35 -108 31 -218t-43 -193.5t-91 -83.5q-36 0 -50.5 39.5t-10.5 87.5q1 22 6 51.5t9 49t4 36t-7 22.5q-14 11 -21 -21q-4 -16 -11 -66q-16 -125 -40 -160q-16 -23 -39 -23q-39 0 -39 65q-7 -29 -26.5 -51
t-50.5 -22zM180 905q0 -13 -10 -20t-18 -7.5t-23 -0.5q-31 0 -58.5 13.5t-27.5 39.5q0 58 81.5 87t252.5 34q161 4 209 -9q57 -16 26 -55q-22 -26 -45.5 -32t-45.5 1t-68.5 13t-98.5 0q-2 -35 -6.5 -104.5t-6.5 -112t-0.5 -95t9.5 -88.5q3 -16 9 -34t10 -28t5 -19t-4.5 -13
t-19.5 -4q-27 0 -46 17t-28.5 39t-14.5 53t-6 48t-1 36q0 90 14 303q-1 0 -22 -1l-31.5 -1.5t-32.5 -2.5t-34.5 -4.5t-27.5 -6t-22.5 -9t-7.5 -12.5q3 -13 23 -10t43.5 1.5t23.5 -16.5zM784 879q-22 0 -33.5 16t-11.5 41q0 21 11.5 36t31.5 15q21 0 32 -14.5t11 -36.5
q0 -21 -10.5 -39t-30.5 -18zM735 530h68t102.5 2t104 7.5t117.5 19t100 33.5q2 1 5 2q6 4 9.5 3t3.5 -11q0 -25 -14 -44t-32 -28.5t-47.5 -16.5t-47 -8.5t-43.5 -3.5q-133 -8 -326 -8q-17 -252 25 -252q19 0 32.5 35.5t22.5 78.5t31 78.5t55 35.5q45 0 50 -43q6 -47 -33 -91
q-20 -24 -48 -36q-1 -15 -1.5 -33.5t9 -34.5t27.5 -16q25 0 43 24t25.5 52.5t9.5 58.5q2 28 -7 54.5t-9 37.5q0 12 9.5 17t18.5 3q28 -6 42.5 -29t11.5 -52q6 28 35.5 53.5t56.5 25.5q41 0 60 -41.5t7 -86t-49 -52.5q-20 -3 -37.5 6.5t-17.5 30.5q0 11 17 11t24 7
q21 20 12 51t-39 27q-27 -5 -37.5 -47t-10 -89.5t-10.5 -85t-38 -34.5q-17 1 -27 29.5t-10 71.5q-11 -37 -33 -64.5t-55 -27.5t-59 24.5t-29 56.5q-32 -71 -68 -71q-25 0 -44 25.5t-25 52.5q-10 -31 -35.5 -56.5t-56.5 -25.5q-30 0 -54.5 23t-23.5 54q-10 -36 -34.5 -59.5
t-59.5 -23.5q-25 0 -47.5 13t-34.5 36q-26 -29 -60 -41q-61 -23 -97 18t-36 135q0 34 7.5 100t5 119.5t-22.5 112.5q-9 26 2 37.5t30 9.5t38 -12q37 -22 48.5 -79t5.5 -123t-13.5 -129t-3 -104.5t31.5 -41.5q26 0 41 25.5t20.5 62t12.5 73t25 62t49 25.5q53 0 48 -52
q-5 -50 -50 -98q-8 -9 -17 -16q-5 -26 6.5 -55t36.5 -29q21 0 35.5 23.5t20 62t7.5 73.5t2 74t1 47q-5 0 -23.5 -1.5t-30.5 -0.5t-28 4t-26.5 13t-14.5 26q-6 27 1.5 31t30.5 -6q15 -6 25 -9t28.5 -6.5t35.5 -3.5q0 27 7 40.5t27 13.5q37 0 37 -54l95 2q0 52 36 52
q16 0 26 -14t9 -36zM571 479q0 -5 -3 -80.5t2 -129t22 -54.5q19 -1 33 21t21 60t10.5 71t5.5 70.5t2 41.5h-93zM391 311q16 13 32 49t7 43q-12 12 -26 -26q-13 -36 -13 -66zM874 311q39 18 52 60q4 20 1 28.5t-14 6.5q-13 -3 -25 -37.5t-14 -57.5zM653 16v50h13v-50h-13z
M514 61v-10h8v-8h-8v-12q0 -7 8 -4v-11q-12 -4 -18 2q-2 3 -2 25h-4v8h4v6zM979 53q10 0 10 -16v-21h-8v19q0 6 -3.5 7.5t-7 -1.5t-3.5 -6v-19h-11v19q0 8 -6 8t-6 -6v-21h-10v35h8l2 -2q4 5 12 4t9 -8q5 8 14 8zM631 53q16 0 16 -16v-21h-14v19q0 4 -2 6t-4.5 1.5
t-3.5 -3.5v-23h-15v35h13l2 -2q4 4 8 4zM821 45q5 8 17 8v-12q-4 1 -9.5 -0.5t-5.5 -3.5v-21h-10v35h8v-6zM690 53q19 0 19 -22h-23q0 -13 19 -4l4 -9q-12 -6 -24.5 -1t-12.5 16q0 20 18 20zM909 53q19 0 19 -19.5t-19 -19.5q-13 0 -18 10t0 19.5t18 9.5zM866 35q0 -8 21 -8
v-9q-26 -8 -32 10q-5 15 11 22q9 4 21 1v-10q-5 3 -13 1.5t-8 -7.5zM590 16v35h10v-35h-10zM348 27l4 24h10l-8 -35h-10l-8 23l-6 -23h-11l-10 35h13l4 -24l6 24h10zM686 37h12q0 6 -6 6t-6 -6zM909 25q7 0 7 9t-7 9t-9 -4.5t0.5 -9t8.5 -4.5zM842 29q6 0 6 -7.5t-6 -7.5
t-6 7.5t6 7.5zM485 29q7 0 7 -7.5t-7 -7.5q-6 0 -6 7.5t6 7.5zM403 27l5 24h12l-10 -35h-11l-6 23l-8 -23h-10l-8 35h10l4 -24l6 24h10zM459 27l6 24h10l-8 -35h-12l-6 23l-7 -23h-12l-8 35h10l4 -24l8 24h9zM567 27l4 24h11l-9 -35h-10l-8 23l-6 -23h-10l-11 35h13l4 -24
l6 24h8zM594 66q6 0 6 -6.5t-6 -6.5q-5 0 -7 3.5t0 6.5t7 3zM788 53q19 0 19 -22h-23q0 -13 19 -4l4 -9q-13 -6 -25 -1.5t-12 16.5q0 20 18 20zM784 37h13q0 6 -6.5 6t-6.5 -6z" />
    <glyph glyph-name="percent" unicode="%" 
d="M758 61v-10h8v-8h-8v-12q0 -8 8 -4v-11q-3 -2 -9 -1.5t-9 3.5q-3 4 -3 25h-18v-12q0 -7 10 -4v-11q-13 -3 -18 2q-2 2 -2 13v12h-4v8h4v6l10 4v-10h18v6zM612 879q-15 22 -2.5 44.5t43.5 6.5q49 -21 49 -144q0 -16 -0.5 -29t-6 -46.5t-15 -56t-31 -41.5t-51.5 -19
q-29 0 -49 17t-23 44q-8 -26 -29.5 -41.5t-41.5 -15.5q-78 0 -78 166q0 141 88 141q26 0 32.5 -17t-5.5 -36q-22 -38 -31.5 -85.5t-3.5 -79.5t24 -32q15 0 19.5 30t3 66.5t9.5 67t38 31.5q33 1 37 -64q1 -19 0 -60q-1 -73 11 -81q5 -4 13 0q29 13 29 99t-29 135zM797 586
q-39 0 -58.5 41t-19.5 98q0 16 1.5 33.5t6 46.5t17.5 47t32 18q16 0 27.5 -13.5t11.5 -39.5q0 -12 -6 -57.5t-6 -77.5q0 -37 20 -37q7 0 13.5 6t11.5 17.5t9 25t6.5 31t5 32.5t4 32.5t2 28.5t1.5 23.5t1 14.5q3 23 12.5 34t30.5 11q13 0 21 -5.5t11.5 -17t5 -24.5
t-0.5 -33.5t-4.5 -37.5t-5.5 -42t-5 -43t1 -16q9 6 28 141v4q6 38 22 56t45 18q37 0 58.5 -27t13.5 -77q-3 -16 -6 -38.5t-6 -57t0 -56.5t14 -20q15 3 29 41.5t19.5 97.5t1 123.5t-30 127t-70.5 99.5q-54 45 -118.5 45t-116 -39t-72.5 -104q-20 -62 -54 -61q-28 1 -42 41
q-11 30 -5 67q12 72 81 132.5t157 72.5q93 12 170 -40.5t115 -154.5q35 -108 31 -218t-43 -193.5t-91 -83.5q-36 0 -50.5 39.5t-10.5 87.5q1 22 6 51.5t9 49t4 36t-7 22.5q-14 11 -21 -21q-4 -16 -11 -66q-16 -125 -40 -160q-16 -23 -39 -23q-39 0 -39 65q-7 -29 -26.5 -51
t-50.5 -22zM180 905q0 -13 -10 -20t-18 -7.5t-23 -0.5q-31 0 -58.5 13.5t-27.5 39.5q0 58 81.5 87t252.5 34q161 4 209 -9q57 -16 26 -55q-22 -26 -45.5 -32t-45.5 1t-68.5 13t-98.5 0q-2 -35 -6.5 -104.5t-6.5 -112t-0.5 -95t9.5 -88.5q3 -16 9 -34t10 -28t5 -19t-4.5 -13
t-19.5 -4q-27 0 -46 17t-28.5 39t-14.5 53t-6 48t-1 36q0 90 14 303q-1 0 -22 -1l-31.5 -1.5t-32.5 -2.5t-34.5 -4.5t-27.5 -6t-22.5 -9t-7.5 -12.5q3 -13 23 -10t43.5 1.5t23.5 -16.5zM784 879q-22 0 -33.5 16t-11.5 41q0 21 11.5 36t31.5 15q21 0 32 -14.5t11 -36.5
q0 -21 -10.5 -39t-30.5 -18zM735 530h68t102.5 2t104 7.5t117.5 19t100 33.5q2 1 5 2q6 4 9.5 3t3.5 -11q0 -25 -14 -44t-32 -28.5t-47.5 -16.5t-47 -8.5t-43.5 -3.5q-133 -8 -326 -8q-17 -252 25 -252q19 0 32.5 35.5t22.5 78.5t31 78.5t55 35.5q45 0 50 -43q6 -47 -33 -91
q-20 -24 -48 -36q-1 -15 -1.5 -33.5t9 -34.5t27.5 -16q25 0 43 24t25.5 52.5t9.5 58.5q2 28 -7 54.5t-9 37.5q0 12 9.5 17t18.5 3q28 -6 42.5 -29t11.5 -52q6 28 35.5 53.5t56.5 25.5q41 0 60 -41.5t7 -86t-49 -52.5q-20 -3 -37.5 6.5t-17.5 30.5q0 11 17 11t24 7
q21 20 12 51t-39 27q-27 -5 -37.5 -47t-10 -89.5t-10.5 -85t-38 -34.5q-17 1 -27 29.5t-10 71.5q-11 -37 -33 -64.5t-55 -27.5t-59 24.5t-29 56.5q-32 -71 -68 -71q-25 0 -44 25.5t-25 52.5q-10 -31 -35.5 -56.5t-56.5 -25.5q-30 0 -54.5 23t-23.5 54q-10 -36 -34.5 -59.5
t-59.5 -23.5q-25 0 -47.5 13t-34.5 36q-26 -29 -60 -41q-61 -23 -97 18t-36 135q0 34 7.5 100t5 119.5t-22.5 112.5q-9 26 2 37.5t30 9.5t38 -12q37 -22 48.5 -79t5.5 -123t-13.5 -129t-3 -104.5t31.5 -41.5q26 0 41 25.5t20.5 62t12.5 73t25 62t49 25.5q53 0 48 -52
q-5 -50 -50 -98q-8 -9 -17 -16q-5 -26 6.5 -55t36.5 -29q21 0 35.5 23.5t20 62t7.5 73.5t2 74t1 47q-5 0 -23.5 -1.5t-30.5 -0.5t-28 4t-26.5 13t-14.5 26q-6 27 1.5 31t30.5 -6q15 -6 25 -9t28.5 -6.5t35.5 -3.5q0 27 7 40.5t27 13.5q37 0 37 -54l95 2q0 52 36 52
q16 0 26 -14t9 -36zM571 479q0 -5 -3 -80.5t2 -129t22 -54.5q19 -1 33 21t21 60t10.5 71t5.5 70.5t2 41.5h-93zM391 311q16 13 32 49t7 43q-12 12 -26 -26q-13 -36 -13 -66zM874 311q39 18 52 60q4 20 1 28.5t-14 6.5q-13 -3 -25 -37.5t-14 -57.5zM653 16v50h13v-50h-13z
M514 61v-10h8v-8h-8v-12q0 -7 8 -4v-11q-12 -4 -18 2q-2 3 -2 25h-4v8h4v6zM979 53q10 0 10 -16v-21h-8v19q0 6 -3.5 7.5t-7 -1.5t-3.5 -6v-19h-11v19q0 8 -6 8t-6 -6v-21h-10v35h8l2 -2q4 5 12 4t9 -8q5 8 14 8zM631 53q16 0 16 -16v-21h-14v19q0 4 -2 6t-4.5 1.5
t-3.5 -3.5v-23h-15v35h13l2 -2q4 4 8 4zM821 45q5 8 17 8v-12q-4 1 -9.5 -0.5t-5.5 -3.5v-21h-10v35h8v-6zM690 53q19 0 19 -22h-23q0 -13 19 -4l4 -9q-12 -6 -24.5 -1t-12.5 16q0 20 18 20zM909 53q19 0 19 -19.5t-19 -19.5q-13 0 -18 10t0 19.5t18 9.5zM866 35q0 -8 21 -8
v-9q-26 -8 -32 10q-5 15 11 22q9 4 21 1v-10q-5 3 -13 1.5t-8 -7.5zM590 16v35h10v-35h-10zM348 27l4 24h10l-8 -35h-10l-8 23l-6 -23h-11l-10 35h13l4 -24l6 24h10zM686 37h12q0 6 -6 6t-6 -6zM909 25q7 0 7 9t-7 9t-9 -4.5t0.5 -9t8.5 -4.5zM842 29q6 0 6 -7.5t-6 -7.5
t-6 7.5t6 7.5zM485 29q7 0 7 -7.5t-7 -7.5q-6 0 -6 7.5t6 7.5zM403 27l5 24h12l-10 -35h-11l-6 23l-8 -23h-10l-8 35h10l4 -24l6 24h10zM459 27l6 24h10l-8 -35h-12l-6 23l-7 -23h-12l-8 35h10l4 -24l8 24h9zM567 27l4 24h11l-9 -35h-10l-8 23l-6 -23h-10l-11 35h13l4 -24
l6 24h8zM594 66q6 0 6 -6.5t-6 -6.5q-5 0 -7 3.5t0 6.5t7 3zM788 53q19 0 19 -22h-23q0 -13 19 -4l4 -9q-13 -6 -25 -1.5t-12 16.5q0 20 18 20zM784 37h13q0 6 -6.5 6t-6.5 -6z" />
    <glyph glyph-name="ampersand" unicode="&#x26;" 
d="M758 61v-10h8v-8h-8v-12q0 -8 8 -4v-11q-3 -2 -9 -1.5t-9 3.5q-3 4 -3 25h-18v-12q0 -7 10 -4v-11q-13 -3 -18 2q-2 2 -2 13v12h-4v8h4v6l10 4v-10h18v6zM612 879q-15 22 -2.5 44.5t43.5 6.5q49 -21 49 -144q0 -16 -0.5 -29t-6 -46.5t-15 -56t-31 -41.5t-51.5 -19
q-29 0 -49 17t-23 44q-8 -26 -29.5 -41.5t-41.5 -15.5q-78 0 -78 166q0 141 88 141q26 0 32.5 -17t-5.5 -36q-22 -38 -31.5 -85.5t-3.5 -79.5t24 -32q15 0 19.5 30t3 66.5t9.5 67t38 31.5q33 1 37 -64q1 -19 0 -60q-1 -73 11 -81q5 -4 13 0q29 13 29 99t-29 135zM797 586
q-39 0 -58.5 41t-19.5 98q0 16 1.5 33.5t6 46.5t17.5 47t32 18q16 0 27.5 -13.5t11.5 -39.5q0 -12 -6 -57.5t-6 -77.5q0 -37 20 -37q7 0 13.5 6t11.5 17.5t9 25t6.5 31t5 32.5t4 32.5t2 28.5t1.5 23.5t1 14.5q3 23 12.5 34t30.5 11q13 0 21 -5.5t11.5 -17t5 -24.5
t-0.5 -33.5t-4.5 -37.5t-5.5 -42t-5 -43t1 -16q9 6 28 141v4q6 38 22 56t45 18q37 0 58.5 -27t13.5 -77q-3 -16 -6 -38.5t-6 -57t0 -56.5t14 -20q15 3 29 41.5t19.5 97.5t1 123.5t-30 127t-70.5 99.5q-54 45 -118.5 45t-116 -39t-72.5 -104q-20 -62 -54 -61q-28 1 -42 41
q-11 30 -5 67q12 72 81 132.5t157 72.5q93 12 170 -40.5t115 -154.5q35 -108 31 -218t-43 -193.5t-91 -83.5q-36 0 -50.5 39.5t-10.5 87.5q1 22 6 51.5t9 49t4 36t-7 22.5q-14 11 -21 -21q-4 -16 -11 -66q-16 -125 -40 -160q-16 -23 -39 -23q-39 0 -39 65q-7 -29 -26.5 -51
t-50.5 -22zM180 905q0 -13 -10 -20t-18 -7.5t-23 -0.5q-31 0 -58.5 13.5t-27.5 39.5q0 58 81.5 87t252.5 34q161 4 209 -9q57 -16 26 -55q-22 -26 -45.5 -32t-45.5 1t-68.5 13t-98.5 0q-2 -35 -6.5 -104.5t-6.5 -112t-0.5 -95t9.5 -88.5q3 -16 9 -34t10 -28t5 -19t-4.5 -13
t-19.5 -4q-27 0 -46 17t-28.5 39t-14.5 53t-6 48t-1 36q0 90 14 303q-1 0 -22 -1l-31.5 -1.5t-32.5 -2.5t-34.5 -4.5t-27.5 -6t-22.5 -9t-7.5 -12.5q3 -13 23 -10t43.5 1.5t23.5 -16.5zM784 879q-22 0 -33.5 16t-11.5 41q0 21 11.5 36t31.5 15q21 0 32 -14.5t11 -36.5
q0 -21 -10.5 -39t-30.5 -18zM735 530h68t102.5 2t104 7.5t117.5 19t100 33.5q2 1 5 2q6 4 9.5 3t3.5 -11q0 -25 -14 -44t-32 -28.5t-47.5 -16.5t-47 -8.5t-43.5 -3.5q-133 -8 -326 -8q-17 -252 25 -252q19 0 32.5 35.5t22.5 78.5t31 78.5t55 35.5q45 0 50 -43q6 -47 -33 -91
q-20 -24 -48 -36q-1 -15 -1.5 -33.5t9 -34.5t27.5 -16q25 0 43 24t25.5 52.5t9.5 58.5q2 28 -7 54.5t-9 37.5q0 12 9.5 17t18.5 3q28 -6 42.5 -29t11.5 -52q6 28 35.5 53.5t56.5 25.5q41 0 60 -41.5t7 -86t-49 -52.5q-20 -3 -37.5 6.5t-17.5 30.5q0 11 17 11t24 7
q21 20 12 51t-39 27q-27 -5 -37.5 -47t-10 -89.5t-10.5 -85t-38 -34.5q-17 1 -27 29.5t-10 71.5q-11 -37 -33 -64.5t-55 -27.5t-59 24.5t-29 56.5q-32 -71 -68 -71q-25 0 -44 25.5t-25 52.5q-10 -31 -35.5 -56.5t-56.5 -25.5q-30 0 -54.5 23t-23.5 54q-10 -36 -34.5 -59.5
t-59.5 -23.5q-25 0 -47.5 13t-34.5 36q-26 -29 -60 -41q-61 -23 -97 18t-36 135q0 34 7.5 100t5 119.5t-22.5 112.5q-9 26 2 37.5t30 9.5t38 -12q37 -22 48.5 -79t5.5 -123t-13.5 -129t-3 -104.5t31.5 -41.5q26 0 41 25.5t20.5 62t12.5 73t25 62t49 25.5q53 0 48 -52
q-5 -50 -50 -98q-8 -9 -17 -16q-5 -26 6.5 -55t36.5 -29q21 0 35.5 23.5t20 62t7.5 73.5t2 74t1 47q-5 0 -23.5 -1.5t-30.5 -0.5t-28 4t-26.5 13t-14.5 26q-6 27 1.5 31t30.5 -6q15 -6 25 -9t28.5 -6.5t35.5 -3.5q0 27 7 40.5t27 13.5q37 0 37 -54l95 2q0 52 36 52
q16 0 26 -14t9 -36zM571 479q0 -5 -3 -80.5t2 -129t22 -54.5q19 -1 33 21t21 60t10.5 71t5.5 70.5t2 41.5h-93zM391 311q16 13 32 49t7 43q-12 12 -26 -26q-13 -36 -13 -66zM874 311q39 18 52 60q4 20 1 28.5t-14 6.5q-13 -3 -25 -37.5t-14 -57.5zM653 16v50h13v-50h-13z
M514 61v-10h8v-8h-8v-12q0 -7 8 -4v-11q-12 -4 -18 2q-2 3 -2 25h-4v8h4v6zM979 53q10 0 10 -16v-21h-8v19q0 6 -3.5 7.5t-7 -1.5t-3.5 -6v-19h-11v19q0 8 -6 8t-6 -6v-21h-10v35h8l2 -2q4 5 12 4t9 -8q5 8 14 8zM631 53q16 0 16 -16v-21h-14v19q0 4 -2 6t-4.5 1.5
t-3.5 -3.5v-23h-15v35h13l2 -2q4 4 8 4zM821 45q5 8 17 8v-12q-4 1 -9.5 -0.5t-5.5 -3.5v-21h-10v35h8v-6zM690 53q19 0 19 -22h-23q0 -13 19 -4l4 -9q-12 -6 -24.5 -1t-12.5 16q0 20 18 20zM909 53q19 0 19 -19.5t-19 -19.5q-13 0 -18 10t0 19.5t18 9.5zM866 35q0 -8 21 -8
v-9q-26 -8 -32 10q-5 15 11 22q9 4 21 1v-10q-5 3 -13 1.5t-8 -7.5zM590 16v35h10v-35h-10zM348 27l4 24h10l-8 -35h-10l-8 23l-6 -23h-11l-10 35h13l4 -24l6 24h10zM686 37h12q0 6 -6 6t-6 -6zM909 25q7 0 7 9t-7 9t-9 -4.5t0.5 -9t8.5 -4.5zM842 29q6 0 6 -7.5t-6 -7.5
t-6 7.5t6 7.5zM485 29q7 0 7 -7.5t-7 -7.5q-6 0 -6 7.5t6 7.5zM403 27l5 24h12l-10 -35h-11l-6 23l-8 -23h-10l-8 35h10l4 -24l6 24h10zM459 27l6 24h10l-8 -35h-12l-6 23l-7 -23h-12l-8 35h10l4 -24l8 24h9zM567 27l4 24h11l-9 -35h-10l-8 23l-6 -23h-10l-11 35h13l4 -24
l6 24h8zM594 66q6 0 6 -6.5t-6 -6.5q-5 0 -7 3.5t0 6.5t7 3zM788 53q19 0 19 -22h-23q0 -13 19 -4l4 -9q-13 -6 -25 -1.5t-12 16.5q0 20 18 20zM784 37h13q0 6 -6.5 6t-6.5 -6z" />
    <glyph glyph-name="quotesingle" unicode="'" 
d="M758 61v-10h8v-8h-8v-12q0 -8 8 -4v-11q-3 -2 -9 -1.5t-9 3.5q-3 4 -3 25h-18v-12q0 -7 10 -4v-11q-13 -3 -18 2q-2 2 -2 13v12h-4v8h4v6l10 4v-10h18v6zM612 879q-15 22 -2.5 44.5t43.5 6.5q49 -21 49 -144q0 -16 -0.5 -29t-6 -46.5t-15 -56t-31 -41.5t-51.5 -19
q-29 0 -49 17t-23 44q-8 -26 -29.5 -41.5t-41.5 -15.5q-78 0 -78 166q0 141 88 141q26 0 32.5 -17t-5.5 -36q-22 -38 -31.5 -85.5t-3.5 -79.5t24 -32q15 0 19.5 30t3 66.5t9.5 67t38 31.5q33 1 37 -64q1 -19 0 -60q-1 -73 11 -81q5 -4 13 0q29 13 29 99t-29 135zM797 586
q-39 0 -58.5 41t-19.5 98q0 16 1.5 33.5t6 46.5t17.5 47t32 18q16 0 27.5 -13.5t11.5 -39.5q0 -12 -6 -57.5t-6 -77.5q0 -37 20 -37q7 0 13.5 6t11.5 17.5t9 25t6.5 31t5 32.5t4 32.5t2 28.5t1.5 23.5t1 14.5q3 23 12.5 34t30.5 11q13 0 21 -5.5t11.5 -17t5 -24.5
t-0.5 -33.5t-4.5 -37.5t-5.5 -42t-5 -43t1 -16q9 6 28 141v4q6 38 22 56t45 18q37 0 58.5 -27t13.5 -77q-3 -16 -6 -38.5t-6 -57t0 -56.5t14 -20q15 3 29 41.5t19.5 97.5t1 123.5t-30 127t-70.5 99.5q-54 45 -118.5 45t-116 -39t-72.5 -104q-20 -62 -54 -61q-28 1 -42 41
q-11 30 -5 67q12 72 81 132.5t157 72.5q93 12 170 -40.5t115 -154.5q35 -108 31 -218t-43 -193.5t-91 -83.5q-36 0 -50.5 39.5t-10.5 87.5q1 22 6 51.5t9 49t4 36t-7 22.5q-14 11 -21 -21q-4 -16 -11 -66q-16 -125 -40 -160q-16 -23 -39 -23q-39 0 -39 65q-7 -29 -26.5 -51
t-50.5 -22zM180 905q0 -13 -10 -20t-18 -7.5t-23 -0.5q-31 0 -58.5 13.5t-27.5 39.5q0 58 81.5 87t252.5 34q161 4 209 -9q57 -16 26 -55q-22 -26 -45.5 -32t-45.5 1t-68.5 13t-98.5 0q-2 -35 -6.5 -104.5t-6.5 -112t-0.5 -95t9.5 -88.5q3 -16 9 -34t10 -28t5 -19t-4.5 -13
t-19.5 -4q-27 0 -46 17t-28.5 39t-14.5 53t-6 48t-1 36q0 90 14 303q-1 0 -22 -1l-31.5 -1.5t-32.5 -2.5t-34.5 -4.5t-27.5 -6t-22.5 -9t-7.5 -12.5q3 -13 23 -10t43.5 1.5t23.5 -16.5zM784 879q-22 0 -33.5 16t-11.5 41q0 21 11.5 36t31.5 15q21 0 32 -14.5t11 -36.5
q0 -21 -10.5 -39t-30.5 -18zM735 530h68t102.5 2t104 7.5t117.5 19t100 33.5q2 1 5 2q6 4 9.5 3t3.5 -11q0 -25 -14 -44t-32 -28.5t-47.5 -16.5t-47 -8.5t-43.5 -3.5q-133 -8 -326 -8q-17 -252 25 -252q19 0 32.5 35.5t22.5 78.5t31 78.5t55 35.5q45 0 50 -43q6 -47 -33 -91
q-20 -24 -48 -36q-1 -15 -1.5 -33.5t9 -34.5t27.5 -16q25 0 43 24t25.5 52.5t9.5 58.5q2 28 -7 54.5t-9 37.5q0 12 9.5 17t18.5 3q28 -6 42.5 -29t11.5 -52q6 28 35.5 53.5t56.5 25.5q41 0 60 -41.5t7 -86t-49 -52.5q-20 -3 -37.5 6.5t-17.5 30.5q0 11 17 11t24 7
q21 20 12 51t-39 27q-27 -5 -37.5 -47t-10 -89.5t-10.5 -85t-38 -34.5q-17 1 -27 29.5t-10 71.5q-11 -37 -33 -64.5t-55 -27.5t-59 24.5t-29 56.5q-32 -71 -68 -71q-25 0 -44 25.5t-25 52.5q-10 -31 -35.5 -56.5t-56.5 -25.5q-30 0 -54.5 23t-23.5 54q-10 -36 -34.5 -59.5
t-59.5 -23.5q-25 0 -47.5 13t-34.5 36q-26 -29 -60 -41q-61 -23 -97 18t-36 135q0 34 7.5 100t5 119.5t-22.5 112.5q-9 26 2 37.5t30 9.5t38 -12q37 -22 48.5 -79t5.5 -123t-13.5 -129t-3 -104.5t31.5 -41.5q26 0 41 25.5t20.5 62t12.5 73t25 62t49 25.5q53 0 48 -52
q-5 -50 -50 -98q-8 -9 -17 -16q-5 -26 6.5 -55t36.5 -29q21 0 35.5 23.5t20 62t7.5 73.5t2 74t1 47q-5 0 -23.5 -1.5t-30.5 -0.5t-28 4t-26.5 13t-14.5 26q-6 27 1.5 31t30.5 -6q15 -6 25 -9t28.5 -6.5t35.5 -3.5q0 27 7 40.5t27 13.5q37 0 37 -54l95 2q0 52 36 52
q16 0 26 -14t9 -36zM571 479q0 -5 -3 -80.5t2 -129t22 -54.5q19 -1 33 21t21 60t10.5 71t5.5 70.5t2 41.5h-93zM391 311q16 13 32 49t7 43q-12 12 -26 -26q-13 -36 -13 -66zM874 311q39 18 52 60q4 20 1 28.5t-14 6.5q-13 -3 -25 -37.5t-14 -57.5zM653 16v50h13v-50h-13z
M514 61v-10h8v-8h-8v-12q0 -7 8 -4v-11q-12 -4 -18 2q-2 3 -2 25h-4v8h4v6zM979 53q10 0 10 -16v-21h-8v19q0 6 -3.5 7.5t-7 -1.5t-3.5 -6v-19h-11v19q0 8 -6 8t-6 -6v-21h-10v35h8l2 -2q4 5 12 4t9 -8q5 8 14 8zM631 53q16 0 16 -16v-21h-14v19q0 4 -2 6t-4.5 1.5
t-3.5 -3.5v-23h-15v35h13l2 -2q4 4 8 4zM821 45q5 8 17 8v-12q-4 1 -9.5 -0.5t-5.5 -3.5v-21h-10v35h8v-6zM690 53q19 0 19 -22h-23q0 -13 19 -4l4 -9q-12 -6 -24.5 -1t-12.5 16q0 20 18 20zM909 53q19 0 19 -19.5t-19 -19.5q-13 0 -18 10t0 19.5t18 9.5zM866 35q0 -8 21 -8
v-9q-26 -8 -32 10q-5 15 11 22q9 4 21 1v-10q-5 3 -13 1.5t-8 -7.5zM590 16v35h10v-35h-10zM348 27l4 24h10l-8 -35h-10l-8 23l-6 -23h-11l-10 35h13l4 -24l6 24h10zM686 37h12q0 6 -6 6t-6 -6zM909 25q7 0 7 9t-7 9t-9 -4.5t0.5 -9t8.5 -4.5zM842 29q6 0 6 -7.5t-6 -7.5
t-6 7.5t6 7.5zM485 29q7 0 7 -7.5t-7 -7.5q-6 0 -6 7.5t6 7.5zM403 27l5 24h12l-10 -35h-11l-6 23l-8 -23h-10l-8 35h10l4 -24l6 24h10zM459 27l6 24h10l-8 -35h-12l-6 23l-7 -23h-12l-8 35h10l4 -24l8 24h9zM567 27l4 24h11l-9 -35h-10l-8 23l-6 -23h-10l-11 35h13l4 -24
l6 24h8zM594 66q6 0 6 -6.5t-6 -6.5q-5 0 -7 3.5t0 6.5t7 3zM788 53q19 0 19 -22h-23q0 -13 19 -4l4 -9q-13 -6 -25 -1.5t-12 16.5q0 20 18 20zM784 37h13q0 6 -6.5 6t-6.5 -6z" />
    <glyph glyph-name="parenleft" unicode="(" horiz-adv-x="671" 
d="M20 578q0 335 125 718q3 9 10 31t11 33.5t11.5 29t15.5 31.5t18 27q34 44 86 70t109 26q101 0 173 -72.5t72 -173.5q0 -30 -12 -75.5t-32 -105t-25 -77.5q-70 -244 -70 -462q0 -221 70 -465q6 -21 25.5 -78.5t31.5 -103t12 -76.5q0 -101 -72 -173.5t-173 -72.5
q-57 0 -109 26t-86 70q-12 16 -23 38t-15.5 32.5t-15.5 44t-12 37.5q-125 383 -125 721zM406 1507q-38 0 -69.5 -8t-63 -29.5t-52 -65.5t-26.5 -108q12 55 38 96.5t55 62.5t56 33.5t44 15.5z" />
    <glyph glyph-name="parenright" unicode=")" 
d="M758 61v-10h8v-8h-8v-12q0 -8 8 -4v-11q-3 -2 -9 -1.5t-9 3.5q-3 4 -3 25h-18v-12q0 -7 10 -4v-11q-13 -3 -18 2q-2 2 -2 13v12h-4v8h4v6l10 4v-10h18v6zM612 879q-15 22 -2.5 44.5t43.5 6.5q49 -21 49 -144q0 -16 -0.5 -29t-6 -46.5t-15 -56t-31 -41.5t-51.5 -19
q-29 0 -49 17t-23 44q-8 -26 -29.5 -41.5t-41.5 -15.5q-78 0 -78 166q0 141 88 141q26 0 32.5 -17t-5.5 -36q-22 -38 -31.5 -85.5t-3.5 -79.5t24 -32q15 0 19.5 30t3 66.5t9.5 67t38 31.5q33 1 37 -64q1 -19 0 -60q-1 -73 11 -81q5 -4 13 0q29 13 29 99t-29 135zM797 586
q-39 0 -58.5 41t-19.5 98q0 16 1.5 33.5t6 46.5t17.5 47t32 18q16 0 27.5 -13.5t11.5 -39.5q0 -12 -6 -57.5t-6 -77.5q0 -37 20 -37q7 0 13.5 6t11.5 17.5t9 25t6.5 31t5 32.5t4 32.5t2 28.5t1.5 23.5t1 14.5q3 23 12.5 34t30.5 11q13 0 21 -5.5t11.5 -17t5 -24.5
t-0.5 -33.5t-4.5 -37.5t-5.5 -42t-5 -43t1 -16q9 6 28 141v4q6 38 22 56t45 18q37 0 58.5 -27t13.5 -77q-3 -16 -6 -38.5t-6 -57t0 -56.5t14 -20q15 3 29 41.5t19.5 97.5t1 123.5t-30 127t-70.5 99.5q-54 45 -118.5 45t-116 -39t-72.5 -104q-20 -62 -54 -61q-28 1 -42 41
q-11 30 -5 67q12 72 81 132.5t157 72.5q93 12 170 -40.5t115 -154.5q35 -108 31 -218t-43 -193.5t-91 -83.5q-36 0 -50.5 39.5t-10.5 87.5q1 22 6 51.5t9 49t4 36t-7 22.5q-14 11 -21 -21q-4 -16 -11 -66q-16 -125 -40 -160q-16 -23 -39 -23q-39 0 -39 65q-7 -29 -26.5 -51
t-50.5 -22zM180 905q0 -13 -10 -20t-18 -7.5t-23 -0.5q-31 0 -58.5 13.5t-27.5 39.5q0 58 81.5 87t252.5 34q161 4 209 -9q57 -16 26 -55q-22 -26 -45.5 -32t-45.5 1t-68.5 13t-98.5 0q-2 -35 -6.5 -104.5t-6.5 -112t-0.5 -95t9.5 -88.5q3 -16 9 -34t10 -28t5 -19t-4.5 -13
t-19.5 -4q-27 0 -46 17t-28.5 39t-14.5 53t-6 48t-1 36q0 90 14 303q-1 0 -22 -1l-31.5 -1.5t-32.5 -2.5t-34.5 -4.5t-27.5 -6t-22.5 -9t-7.5 -12.5q3 -13 23 -10t43.5 1.5t23.5 -16.5zM784 879q-22 0 -33.5 16t-11.5 41q0 21 11.5 36t31.5 15q21 0 32 -14.5t11 -36.5
q0 -21 -10.5 -39t-30.5 -18zM735 530h68t102.5 2t104 7.5t117.5 19t100 33.5q2 1 5 2q6 4 9.5 3t3.5 -11q0 -25 -14 -44t-32 -28.5t-47.5 -16.5t-47 -8.5t-43.5 -3.5q-133 -8 -326 -8q-17 -252 25 -252q19 0 32.5 35.5t22.5 78.5t31 78.5t55 35.5q45 0 50 -43q6 -47 -33 -91
q-20 -24 -48 -36q-1 -15 -1.5 -33.5t9 -34.5t27.5 -16q25 0 43 24t25.5 52.5t9.5 58.5q2 28 -7 54.5t-9 37.5q0 12 9.5 17t18.5 3q28 -6 42.5 -29t11.5 -52q6 28 35.5 53.5t56.5 25.5q41 0 60 -41.5t7 -86t-49 -52.5q-20 -3 -37.5 6.5t-17.5 30.5q0 11 17 11t24 7
q21 20 12 51t-39 27q-27 -5 -37.5 -47t-10 -89.5t-10.5 -85t-38 -34.5q-17 1 -27 29.5t-10 71.5q-11 -37 -33 -64.5t-55 -27.5t-59 24.5t-29 56.5q-32 -71 -68 -71q-25 0 -44 25.5t-25 52.5q-10 -31 -35.5 -56.5t-56.5 -25.5q-30 0 -54.5 23t-23.5 54q-10 -36 -34.5 -59.5
t-59.5 -23.5q-25 0 -47.5 13t-34.5 36q-26 -29 -60 -41q-61 -23 -97 18t-36 135q0 34 7.5 100t5 119.5t-22.5 112.5q-9 26 2 37.5t30 9.5t38 -12q37 -22 48.5 -79t5.5 -123t-13.5 -129t-3 -104.5t31.5 -41.5q26 0 41 25.5t20.5 62t12.5 73t25 62t49 25.5q53 0 48 -52
q-5 -50 -50 -98q-8 -9 -17 -16q-5 -26 6.5 -55t36.5 -29q21 0 35.5 23.5t20 62t7.5 73.5t2 74t1 47q-5 0 -23.5 -1.5t-30.5 -0.5t-28 4t-26.5 13t-14.5 26q-6 27 1.5 31t30.5 -6q15 -6 25 -9t28.5 -6.5t35.5 -3.5q0 27 7 40.5t27 13.5q37 0 37 -54l95 2q0 52 36 52
q16 0 26 -14t9 -36zM571 479q0 -5 -3 -80.5t2 -129t22 -54.5q19 -1 33 21t21 60t10.5 71t5.5 70.5t2 41.5h-93zM391 311q16 13 32 49t7 43q-12 12 -26 -26q-13 -36 -13 -66zM874 311q39 18 52 60q4 20 1 28.5t-14 6.5q-13 -3 -25 -37.5t-14 -57.5zM653 16v50h13v-50h-13z
M514 61v-10h8v-8h-8v-12q0 -7 8 -4v-11q-12 -4 -18 2q-2 3 -2 25h-4v8h4v6zM979 53q10 0 10 -16v-21h-8v19q0 6 -3.5 7.5t-7 -1.5t-3.5 -6v-19h-11v19q0 8 -6 8t-6 -6v-21h-10v35h8l2 -2q4 5 12 4t9 -8q5 8 14 8zM631 53q16 0 16 -16v-21h-14v19q0 4 -2 6t-4.5 1.5
t-3.5 -3.5v-23h-15v35h13l2 -2q4 4 8 4zM821 45q5 8 17 8v-12q-4 1 -9.5 -0.5t-5.5 -3.5v-21h-10v35h8v-6zM690 53q19 0 19 -22h-23q0 -13 19 -4l4 -9q-12 -6 -24.5 -1t-12.5 16q0 20 18 20zM909 53q19 0 19 -19.5t-19 -19.5q-13 0 -18 10t0 19.5t18 9.5zM866 35q0 -8 21 -8
v-9q-26 -8 -32 10q-5 15 11 22q9 4 21 1v-10q-5 3 -13 1.5t-8 -7.5zM590 16v35h10v-35h-10zM348 27l4 24h10l-8 -35h-10l-8 23l-6 -23h-11l-10 35h13l4 -24l6 24h10zM686 37h12q0 6 -6 6t-6 -6zM909 25q7 0 7 9t-7 9t-9 -4.5t0.5 -9t8.5 -4.5zM842 29q6 0 6 -7.5t-6 -7.5
t-6 7.5t6 7.5zM485 29q7 0 7 -7.5t-7 -7.5q-6 0 -6 7.5t6 7.5zM403 27l5 24h12l-10 -35h-11l-6 23l-8 -23h-10l-8 35h10l4 -24l6 24h10zM459 27l6 24h10l-8 -35h-12l-6 23l-7 -23h-12l-8 35h10l4 -24l8 24h9zM567 27l4 24h11l-9 -35h-10l-8 23l-6 -23h-10l-11 35h13l4 -24
l6 24h8zM594 66q6 0 6 -6.5t-6 -6.5q-5 0 -7 3.5t0 6.5t7 3zM788 53q19 0 19 -22h-23q0 -13 19 -4l4 -9q-13 -6 -25 -1.5t-12 16.5q0 20 18 20zM784 37h13q0 6 -6.5 6t-6.5 -6z" />
    <glyph glyph-name="asterisk" unicode="*" 
d="M758 61v-10h8v-8h-8v-12q0 -8 8 -4v-11q-3 -2 -9 -1.5t-9 3.5q-3 4 -3 25h-18v-12q0 -7 10 -4v-11q-13 -3 -18 2q-2 2 -2 13v12h-4v8h4v6l10 4v-10h18v6zM612 879q-15 22 -2.5 44.5t43.5 6.5q49 -21 49 -144q0 -16 -0.5 -29t-6 -46.5t-15 -56t-31 -41.5t-51.5 -19
q-29 0 -49 17t-23 44q-8 -26 -29.5 -41.5t-41.5 -15.5q-78 0 -78 166q0 141 88 141q26 0 32.5 -17t-5.5 -36q-22 -38 -31.5 -85.5t-3.5 -79.5t24 -32q15 0 19.5 30t3 66.5t9.5 67t38 31.5q33 1 37 -64q1 -19 0 -60q-1 -73 11 -81q5 -4 13 0q29 13 29 99t-29 135zM797 586
q-39 0 -58.5 41t-19.5 98q0 16 1.5 33.5t6 46.5t17.5 47t32 18q16 0 27.5 -13.5t11.5 -39.5q0 -12 -6 -57.5t-6 -77.5q0 -37 20 -37q7 0 13.5 6t11.5 17.5t9 25t6.5 31t5 32.5t4 32.5t2 28.5t1.5 23.5t1 14.5q3 23 12.5 34t30.5 11q13 0 21 -5.5t11.5 -17t5 -24.5
t-0.5 -33.5t-4.5 -37.5t-5.5 -42t-5 -43t1 -16q9 6 28 141v4q6 38 22 56t45 18q37 0 58.5 -27t13.5 -77q-3 -16 -6 -38.5t-6 -57t0 -56.5t14 -20q15 3 29 41.5t19.5 97.5t1 123.5t-30 127t-70.5 99.5q-54 45 -118.5 45t-116 -39t-72.5 -104q-20 -62 -54 -61q-28 1 -42 41
q-11 30 -5 67q12 72 81 132.5t157 72.5q93 12 170 -40.5t115 -154.5q35 -108 31 -218t-43 -193.5t-91 -83.5q-36 0 -50.5 39.5t-10.5 87.5q1 22 6 51.5t9 49t4 36t-7 22.5q-14 11 -21 -21q-4 -16 -11 -66q-16 -125 -40 -160q-16 -23 -39 -23q-39 0 -39 65q-7 -29 -26.5 -51
t-50.5 -22zM180 905q0 -13 -10 -20t-18 -7.5t-23 -0.5q-31 0 -58.5 13.5t-27.5 39.5q0 58 81.5 87t252.5 34q161 4 209 -9q57 -16 26 -55q-22 -26 -45.5 -32t-45.5 1t-68.5 13t-98.5 0q-2 -35 -6.5 -104.5t-6.5 -112t-0.5 -95t9.5 -88.5q3 -16 9 -34t10 -28t5 -19t-4.5 -13
t-19.5 -4q-27 0 -46 17t-28.5 39t-14.5 53t-6 48t-1 36q0 90 14 303q-1 0 -22 -1l-31.5 -1.5t-32.5 -2.5t-34.5 -4.5t-27.5 -6t-22.5 -9t-7.5 -12.5q3 -13 23 -10t43.5 1.5t23.5 -16.5zM784 879q-22 0 -33.5 16t-11.5 41q0 21 11.5 36t31.5 15q21 0 32 -14.5t11 -36.5
q0 -21 -10.5 -39t-30.5 -18zM735 530h68t102.5 2t104 7.5t117.5 19t100 33.5q2 1 5 2q6 4 9.5 3t3.5 -11q0 -25 -14 -44t-32 -28.5t-47.5 -16.5t-47 -8.5t-43.5 -3.5q-133 -8 -326 -8q-17 -252 25 -252q19 0 32.5 35.5t22.5 78.5t31 78.5t55 35.5q45 0 50 -43q6 -47 -33 -91
q-20 -24 -48 -36q-1 -15 -1.5 -33.5t9 -34.5t27.5 -16q25 0 43 24t25.5 52.5t9.5 58.5q2 28 -7 54.5t-9 37.5q0 12 9.5 17t18.5 3q28 -6 42.5 -29t11.5 -52q6 28 35.5 53.5t56.5 25.5q41 0 60 -41.5t7 -86t-49 -52.5q-20 -3 -37.5 6.5t-17.5 30.5q0 11 17 11t24 7
q21 20 12 51t-39 27q-27 -5 -37.5 -47t-10 -89.5t-10.5 -85t-38 -34.5q-17 1 -27 29.5t-10 71.5q-11 -37 -33 -64.5t-55 -27.5t-59 24.5t-29 56.5q-32 -71 -68 -71q-25 0 -44 25.5t-25 52.5q-10 -31 -35.5 -56.5t-56.5 -25.5q-30 0 -54.5 23t-23.5 54q-10 -36 -34.5 -59.5
t-59.5 -23.5q-25 0 -47.5 13t-34.5 36q-26 -29 -60 -41q-61 -23 -97 18t-36 135q0 34 7.5 100t5 119.5t-22.5 112.5q-9 26 2 37.5t30 9.5t38 -12q37 -22 48.5 -79t5.5 -123t-13.5 -129t-3 -104.5t31.5 -41.5q26 0 41 25.5t20.5 62t12.5 73t25 62t49 25.5q53 0 48 -52
q-5 -50 -50 -98q-8 -9 -17 -16q-5 -26 6.5 -55t36.5 -29q21 0 35.5 23.5t20 62t7.5 73.5t2 74t1 47q-5 0 -23.5 -1.5t-30.5 -0.5t-28 4t-26.5 13t-14.5 26q-6 27 1.5 31t30.5 -6q15 -6 25 -9t28.5 -6.5t35.5 -3.5q0 27 7 40.5t27 13.5q37 0 37 -54l95 2q0 52 36 52
q16 0 26 -14t9 -36zM571 479q0 -5 -3 -80.5t2 -129t22 -54.5q19 -1 33 21t21 60t10.5 71t5.5 70.5t2 41.5h-93zM391 311q16 13 32 49t7 43q-12 12 -26 -26q-13 -36 -13 -66zM874 311q39 18 52 60q4 20 1 28.5t-14 6.5q-13 -3 -25 -37.5t-14 -57.5zM653 16v50h13v-50h-13z
M514 61v-10h8v-8h-8v-12q0 -7 8 -4v-11q-12 -4 -18 2q-2 3 -2 25h-4v8h4v6zM979 53q10 0 10 -16v-21h-8v19q0 6 -3.5 7.5t-7 -1.5t-3.5 -6v-19h-11v19q0 8 -6 8t-6 -6v-21h-10v35h8l2 -2q4 5 12 4t9 -8q5 8 14 8zM631 53q16 0 16 -16v-21h-14v19q0 4 -2 6t-4.5 1.5
t-3.5 -3.5v-23h-15v35h13l2 -2q4 4 8 4zM821 45q5 8 17 8v-12q-4 1 -9.5 -0.5t-5.5 -3.5v-21h-10v35h8v-6zM690 53q19 0 19 -22h-23q0 -13 19 -4l4 -9q-12 -6 -24.5 -1t-12.5 16q0 20 18 20zM909 53q19 0 19 -19.5t-19 -19.5q-13 0 -18 10t0 19.5t18 9.5zM866 35q0 -8 21 -8
v-9q-26 -8 -32 10q-5 15 11 22q9 4 21 1v-10q-5 3 -13 1.5t-8 -7.5zM590 16v35h10v-35h-10zM348 27l4 24h10l-8 -35h-10l-8 23l-6 -23h-11l-10 35h13l4 -24l6 24h10zM686 37h12q0 6 -6 6t-6 -6zM909 25q7 0 7 9t-7 9t-9 -4.5t0.5 -9t8.5 -4.5zM842 29q6 0 6 -7.5t-6 -7.5
t-6 7.5t6 7.5zM485 29q7 0 7 -7.5t-7 -7.5q-6 0 -6 7.5t6 7.5zM403 27l5 24h12l-10 -35h-11l-6 23l-8 -23h-10l-8 35h10l4 -24l6 24h10zM459 27l6 24h10l-8 -35h-12l-6 23l-7 -23h-12l-8 35h10l4 -24l8 24h9zM567 27l4 24h11l-9 -35h-10l-8 23l-6 -23h-10l-11 35h13l4 -24
l6 24h8zM594 66q6 0 6 -6.5t-6 -6.5q-5 0 -7 3.5t0 6.5t7 3zM788 53q19 0 19 -22h-23q0 -13 19 -4l4 -9q-13 -6 -25 -1.5t-12 16.5q0 20 18 20zM784 37h13q0 6 -6.5 6t-6.5 -6z" />
    <glyph glyph-name="plus" unicode="+" 
d="M758 61v-10h8v-8h-8v-12q0 -8 8 -4v-11q-3 -2 -9 -1.5t-9 3.5q-3 4 -3 25h-18v-12q0 -7 10 -4v-11q-13 -3 -18 2q-2 2 -2 13v12h-4v8h4v6l10 4v-10h18v6zM612 879q-15 22 -2.5 44.5t43.5 6.5q49 -21 49 -144q0 -16 -0.5 -29t-6 -46.5t-15 -56t-31 -41.5t-51.5 -19
q-29 0 -49 17t-23 44q-8 -26 -29.5 -41.5t-41.5 -15.5q-78 0 -78 166q0 141 88 141q26 0 32.5 -17t-5.5 -36q-22 -38 -31.5 -85.5t-3.5 -79.5t24 -32q15 0 19.5 30t3 66.5t9.5 67t38 31.5q33 1 37 -64q1 -19 0 -60q-1 -73 11 -81q5 -4 13 0q29 13 29 99t-29 135zM797 586
q-39 0 -58.5 41t-19.5 98q0 16 1.5 33.5t6 46.5t17.5 47t32 18q16 0 27.5 -13.5t11.5 -39.5q0 -12 -6 -57.5t-6 -77.5q0 -37 20 -37q7 0 13.5 6t11.5 17.5t9 25t6.5 31t5 32.5t4 32.5t2 28.5t1.5 23.5t1 14.5q3 23 12.5 34t30.5 11q13 0 21 -5.5t11.5 -17t5 -24.5
t-0.5 -33.5t-4.5 -37.5t-5.5 -42t-5 -43t1 -16q9 6 28 141v4q6 38 22 56t45 18q37 0 58.5 -27t13.5 -77q-3 -16 -6 -38.5t-6 -57t0 -56.5t14 -20q15 3 29 41.5t19.5 97.5t1 123.5t-30 127t-70.5 99.5q-54 45 -118.5 45t-116 -39t-72.5 -104q-20 -62 -54 -61q-28 1 -42 41
q-11 30 -5 67q12 72 81 132.5t157 72.5q93 12 170 -40.5t115 -154.5q35 -108 31 -218t-43 -193.5t-91 -83.5q-36 0 -50.5 39.5t-10.5 87.5q1 22 6 51.5t9 49t4 36t-7 22.5q-14 11 -21 -21q-4 -16 -11 -66q-16 -125 -40 -160q-16 -23 -39 -23q-39 0 -39 65q-7 -29 -26.5 -51
t-50.5 -22zM180 905q0 -13 -10 -20t-18 -7.5t-23 -0.5q-31 0 -58.5 13.5t-27.5 39.5q0 58 81.5 87t252.5 34q161 4 209 -9q57 -16 26 -55q-22 -26 -45.5 -32t-45.5 1t-68.5 13t-98.5 0q-2 -35 -6.5 -104.5t-6.5 -112t-0.5 -95t9.5 -88.5q3 -16 9 -34t10 -28t5 -19t-4.5 -13
t-19.5 -4q-27 0 -46 17t-28.5 39t-14.5 53t-6 48t-1 36q0 90 14 303q-1 0 -22 -1l-31.5 -1.5t-32.5 -2.5t-34.5 -4.5t-27.5 -6t-22.5 -9t-7.5 -12.5q3 -13 23 -10t43.5 1.5t23.5 -16.5zM784 879q-22 0 -33.5 16t-11.5 41q0 21 11.5 36t31.5 15q21 0 32 -14.5t11 -36.5
q0 -21 -10.5 -39t-30.5 -18zM735 530h68t102.5 2t104 7.5t117.5 19t100 33.5q2 1 5 2q6 4 9.5 3t3.5 -11q0 -25 -14 -44t-32 -28.5t-47.5 -16.5t-47 -8.5t-43.5 -3.5q-133 -8 -326 -8q-17 -252 25 -252q19 0 32.5 35.5t22.5 78.5t31 78.5t55 35.5q45 0 50 -43q6 -47 -33 -91
q-20 -24 -48 -36q-1 -15 -1.5 -33.5t9 -34.5t27.5 -16q25 0 43 24t25.5 52.5t9.5 58.5q2 28 -7 54.5t-9 37.5q0 12 9.5 17t18.5 3q28 -6 42.5 -29t11.5 -52q6 28 35.5 53.5t56.5 25.5q41 0 60 -41.5t7 -86t-49 -52.5q-20 -3 -37.5 6.5t-17.5 30.5q0 11 17 11t24 7
q21 20 12 51t-39 27q-27 -5 -37.5 -47t-10 -89.5t-10.5 -85t-38 -34.5q-17 1 -27 29.5t-10 71.5q-11 -37 -33 -64.5t-55 -27.5t-59 24.5t-29 56.5q-32 -71 -68 -71q-25 0 -44 25.5t-25 52.5q-10 -31 -35.5 -56.5t-56.5 -25.5q-30 0 -54.5 23t-23.5 54q-10 -36 -34.5 -59.5
t-59.5 -23.5q-25 0 -47.5 13t-34.5 36q-26 -29 -60 -41q-61 -23 -97 18t-36 135q0 34 7.5 100t5 119.5t-22.5 112.5q-9 26 2 37.5t30 9.5t38 -12q37 -22 48.5 -79t5.5 -123t-13.5 -129t-3 -104.5t31.5 -41.5q26 0 41 25.5t20.5 62t12.5 73t25 62t49 25.5q53 0 48 -52
q-5 -50 -50 -98q-8 -9 -17 -16q-5 -26 6.5 -55t36.5 -29q21 0 35.5 23.5t20 62t7.5 73.5t2 74t1 47q-5 0 -23.5 -1.5t-30.5 -0.5t-28 4t-26.5 13t-14.5 26q-6 27 1.5 31t30.5 -6q15 -6 25 -9t28.5 -6.5t35.5 -3.5q0 27 7 40.5t27 13.5q37 0 37 -54l95 2q0 52 36 52
q16 0 26 -14t9 -36zM571 479q0 -5 -3 -80.5t2 -129t22 -54.5q19 -1 33 21t21 60t10.5 71t5.5 70.5t2 41.5h-93zM391 311q16 13 32 49t7 43q-12 12 -26 -26q-13 -36 -13 -66zM874 311q39 18 52 60q4 20 1 28.5t-14 6.5q-13 -3 -25 -37.5t-14 -57.5zM653 16v50h13v-50h-13z
M514 61v-10h8v-8h-8v-12q0 -7 8 -4v-11q-12 -4 -18 2q-2 3 -2 25h-4v8h4v6zM979 53q10 0 10 -16v-21h-8v19q0 6 -3.5 7.5t-7 -1.5t-3.5 -6v-19h-11v19q0 8 -6 8t-6 -6v-21h-10v35h8l2 -2q4 5 12 4t9 -8q5 8 14 8zM631 53q16 0 16 -16v-21h-14v19q0 4 -2 6t-4.5 1.5
t-3.5 -3.5v-23h-15v35h13l2 -2q4 4 8 4zM821 45q5 8 17 8v-12q-4 1 -9.5 -0.5t-5.5 -3.5v-21h-10v35h8v-6zM690 53q19 0 19 -22h-23q0 -13 19 -4l4 -9q-12 -6 -24.5 -1t-12.5 16q0 20 18 20zM909 53q19 0 19 -19.5t-19 -19.5q-13 0 -18 10t0 19.5t18 9.5zM866 35q0 -8 21 -8
v-9q-26 -8 -32 10q-5 15 11 22q9 4 21 1v-10q-5 3 -13 1.5t-8 -7.5zM590 16v35h10v-35h-10zM348 27l4 24h10l-8 -35h-10l-8 23l-6 -23h-11l-10 35h13l4 -24l6 24h10zM686 37h12q0 6 -6 6t-6 -6zM909 25q7 0 7 9t-7 9t-9 -4.5t0.5 -9t8.5 -4.5zM842 29q6 0 6 -7.5t-6 -7.5
t-6 7.5t6 7.5zM485 29q7 0 7 -7.5t-7 -7.5q-6 0 -6 7.5t6 7.5zM403 27l5 24h12l-10 -35h-11l-6 23l-8 -23h-10l-8 35h10l4 -24l6 24h10zM459 27l6 24h10l-8 -35h-12l-6 23l-7 -23h-12l-8 35h10l4 -24l8 24h9zM567 27l4 24h11l-9 -35h-10l-8 23l-6 -23h-10l-11 35h13l4 -24
l6 24h8zM594 66q6 0 6 -6.5t-6 -6.5q-5 0 -7 3.5t0 6.5t7 3zM788 53q19 0 19 -22h-23q0 -13 19 -4l4 -9q-13 -6 -25 -1.5t-12 16.5q0 20 18 20zM784 37h13q0 6 -6.5 6t-6.5 -6z" />
    <glyph glyph-name="comma" unicode="," 
d="M758 61v-10h8v-8h-8v-12q0 -8 8 -4v-11q-3 -2 -9 -1.5t-9 3.5q-3 4 -3 25h-18v-12q0 -7 10 -4v-11q-13 -3 -18 2q-2 2 -2 13v12h-4v8h4v6l10 4v-10h18v6zM612 879q-15 22 -2.5 44.5t43.5 6.5q49 -21 49 -144q0 -16 -0.5 -29t-6 -46.5t-15 -56t-31 -41.5t-51.5 -19
q-29 0 -49 17t-23 44q-8 -26 -29.5 -41.5t-41.5 -15.5q-78 0 -78 166q0 141 88 141q26 0 32.5 -17t-5.5 -36q-22 -38 -31.5 -85.5t-3.5 -79.5t24 -32q15 0 19.5 30t3 66.5t9.5 67t38 31.5q33 1 37 -64q1 -19 0 -60q-1 -73 11 -81q5 -4 13 0q29 13 29 99t-29 135zM797 586
q-39 0 -58.5 41t-19.5 98q0 16 1.5 33.5t6 46.5t17.5 47t32 18q16 0 27.5 -13.5t11.5 -39.5q0 -12 -6 -57.5t-6 -77.5q0 -37 20 -37q7 0 13.5 6t11.5 17.5t9 25t6.5 31t5 32.5t4 32.5t2 28.5t1.5 23.5t1 14.5q3 23 12.5 34t30.5 11q13 0 21 -5.5t11.5 -17t5 -24.5
t-0.5 -33.5t-4.5 -37.5t-5.5 -42t-5 -43t1 -16q9 6 28 141v4q6 38 22 56t45 18q37 0 58.5 -27t13.5 -77q-3 -16 -6 -38.5t-6 -57t0 -56.5t14 -20q15 3 29 41.5t19.5 97.5t1 123.5t-30 127t-70.5 99.5q-54 45 -118.5 45t-116 -39t-72.5 -104q-20 -62 -54 -61q-28 1 -42 41
q-11 30 -5 67q12 72 81 132.5t157 72.5q93 12 170 -40.5t115 -154.5q35 -108 31 -218t-43 -193.5t-91 -83.5q-36 0 -50.5 39.5t-10.5 87.5q1 22 6 51.5t9 49t4 36t-7 22.5q-14 11 -21 -21q-4 -16 -11 -66q-16 -125 -40 -160q-16 -23 -39 -23q-39 0 -39 65q-7 -29 -26.5 -51
t-50.5 -22zM180 905q0 -13 -10 -20t-18 -7.5t-23 -0.5q-31 0 -58.5 13.5t-27.5 39.5q0 58 81.5 87t252.5 34q161 4 209 -9q57 -16 26 -55q-22 -26 -45.5 -32t-45.5 1t-68.5 13t-98.5 0q-2 -35 -6.5 -104.5t-6.5 -112t-0.5 -95t9.5 -88.5q3 -16 9 -34t10 -28t5 -19t-4.5 -13
t-19.5 -4q-27 0 -46 17t-28.5 39t-14.5 53t-6 48t-1 36q0 90 14 303q-1 0 -22 -1l-31.5 -1.5t-32.5 -2.5t-34.5 -4.5t-27.5 -6t-22.5 -9t-7.5 -12.5q3 -13 23 -10t43.5 1.5t23.5 -16.5zM784 879q-22 0 -33.5 16t-11.5 41q0 21 11.5 36t31.5 15q21 0 32 -14.5t11 -36.5
q0 -21 -10.5 -39t-30.5 -18zM735 530h68t102.5 2t104 7.5t117.5 19t100 33.5q2 1 5 2q6 4 9.5 3t3.5 -11q0 -25 -14 -44t-32 -28.5t-47.5 -16.5t-47 -8.5t-43.5 -3.5q-133 -8 -326 -8q-17 -252 25 -252q19 0 32.5 35.5t22.5 78.5t31 78.5t55 35.5q45 0 50 -43q6 -47 -33 -91
q-20 -24 -48 -36q-1 -15 -1.5 -33.5t9 -34.5t27.5 -16q25 0 43 24t25.5 52.5t9.5 58.5q2 28 -7 54.5t-9 37.5q0 12 9.5 17t18.5 3q28 -6 42.5 -29t11.5 -52q6 28 35.5 53.5t56.5 25.5q41 0 60 -41.5t7 -86t-49 -52.5q-20 -3 -37.5 6.5t-17.5 30.5q0 11 17 11t24 7
q21 20 12 51t-39 27q-27 -5 -37.5 -47t-10 -89.5t-10.5 -85t-38 -34.5q-17 1 -27 29.5t-10 71.5q-11 -37 -33 -64.5t-55 -27.5t-59 24.5t-29 56.5q-32 -71 -68 -71q-25 0 -44 25.5t-25 52.5q-10 -31 -35.5 -56.5t-56.5 -25.5q-30 0 -54.5 23t-23.5 54q-10 -36 -34.5 -59.5
t-59.5 -23.5q-25 0 -47.5 13t-34.5 36q-26 -29 -60 -41q-61 -23 -97 18t-36 135q0 34 7.5 100t5 119.5t-22.5 112.5q-9 26 2 37.5t30 9.5t38 -12q37 -22 48.5 -79t5.5 -123t-13.5 -129t-3 -104.5t31.5 -41.5q26 0 41 25.5t20.5 62t12.5 73t25 62t49 25.5q53 0 48 -52
q-5 -50 -50 -98q-8 -9 -17 -16q-5 -26 6.5 -55t36.5 -29q21 0 35.5 23.5t20 62t7.5 73.5t2 74t1 47q-5 0 -23.5 -1.5t-30.5 -0.5t-28 4t-26.5 13t-14.5 26q-6 27 1.5 31t30.5 -6q15 -6 25 -9t28.5 -6.5t35.5 -3.5q0 27 7 40.5t27 13.5q37 0 37 -54l95 2q0 52 36 52
q16 0 26 -14t9 -36zM571 479q0 -5 -3 -80.5t2 -129t22 -54.5q19 -1 33 21t21 60t10.5 71t5.5 70.5t2 41.5h-93zM391 311q16 13 32 49t7 43q-12 12 -26 -26q-13 -36 -13 -66zM874 311q39 18 52 60q4 20 1 28.5t-14 6.5q-13 -3 -25 -37.5t-14 -57.5zM653 16v50h13v-50h-13z
M514 61v-10h8v-8h-8v-12q0 -7 8 -4v-11q-12 -4 -18 2q-2 3 -2 25h-4v8h4v6zM979 53q10 0 10 -16v-21h-8v19q0 6 -3.5 7.5t-7 -1.5t-3.5 -6v-19h-11v19q0 8 -6 8t-6 -6v-21h-10v35h8l2 -2q4 5 12 4t9 -8q5 8 14 8zM631 53q16 0 16 -16v-21h-14v19q0 4 -2 6t-4.5 1.5
t-3.5 -3.5v-23h-15v35h13l2 -2q4 4 8 4zM821 45q5 8 17 8v-12q-4 1 -9.5 -0.5t-5.5 -3.5v-21h-10v35h8v-6zM690 53q19 0 19 -22h-23q0 -13 19 -4l4 -9q-12 -6 -24.5 -1t-12.5 16q0 20 18 20zM909 53q19 0 19 -19.5t-19 -19.5q-13 0 -18 10t0 19.5t18 9.5zM866 35q0 -8 21 -8
v-9q-26 -8 -32 10q-5 15 11 22q9 4 21 1v-10q-5 3 -13 1.5t-8 -7.5zM590 16v35h10v-35h-10zM348 27l4 24h10l-8 -35h-10l-8 23l-6 -23h-11l-10 35h13l4 -24l6 24h10zM686 37h12q0 6 -6 6t-6 -6zM909 25q7 0 7 9t-7 9t-9 -4.5t0.5 -9t8.5 -4.5zM842 29q6 0 6 -7.5t-6 -7.5
t-6 7.5t6 7.5zM485 29q7 0 7 -7.5t-7 -7.5q-6 0 -6 7.5t6 7.5zM403 27l5 24h12l-10 -35h-11l-6 23l-8 -23h-10l-8 35h10l4 -24l6 24h10zM459 27l6 24h10l-8 -35h-12l-6 23l-7 -23h-12l-8 35h10l4 -24l8 24h9zM567 27l4 24h11l-9 -35h-10l-8 23l-6 -23h-10l-11 35h13l4 -24
l6 24h8zM594 66q6 0 6 -6.5t-6 -6.5q-5 0 -7 3.5t0 6.5t7 3zM788 53q19 0 19 -22h-23q0 -13 19 -4l4 -9q-13 -6 -25 -1.5t-12 16.5q0 20 18 20zM784 37h13q0 6 -6.5 6t-6.5 -6z" />
    <glyph glyph-name="hyphen" unicode="-" 
d="M758 61v-10h8v-8h-8v-12q0 -8 8 -4v-11q-3 -2 -9 -1.5t-9 3.5q-3 4 -3 25h-18v-12q0 -7 10 -4v-11q-13 -3 -18 2q-2 2 -2 13v12h-4v8h4v6l10 4v-10h18v6zM612 879q-15 22 -2.5 44.5t43.5 6.5q49 -21 49 -144q0 -16 -0.5 -29t-6 -46.5t-15 -56t-31 -41.5t-51.5 -19
q-29 0 -49 17t-23 44q-8 -26 -29.5 -41.5t-41.5 -15.5q-78 0 -78 166q0 141 88 141q26 0 32.5 -17t-5.5 -36q-22 -38 -31.5 -85.5t-3.5 -79.5t24 -32q15 0 19.5 30t3 66.5t9.5 67t38 31.5q33 1 37 -64q1 -19 0 -60q-1 -73 11 -81q5 -4 13 0q29 13 29 99t-29 135zM797 586
q-39 0 -58.5 41t-19.5 98q0 16 1.5 33.5t6 46.5t17.5 47t32 18q16 0 27.5 -13.5t11.5 -39.5q0 -12 -6 -57.5t-6 -77.5q0 -37 20 -37q7 0 13.5 6t11.5 17.5t9 25t6.5 31t5 32.5t4 32.5t2 28.5t1.5 23.5t1 14.5q3 23 12.5 34t30.5 11q13 0 21 -5.5t11.5 -17t5 -24.5
t-0.5 -33.5t-4.5 -37.5t-5.5 -42t-5 -43t1 -16q9 6 28 141v4q6 38 22 56t45 18q37 0 58.5 -27t13.5 -77q-3 -16 -6 -38.5t-6 -57t0 -56.5t14 -20q15 3 29 41.5t19.5 97.5t1 123.5t-30 127t-70.5 99.5q-54 45 -118.5 45t-116 -39t-72.5 -104q-20 -62 -54 -61q-28 1 -42 41
q-11 30 -5 67q12 72 81 132.5t157 72.5q93 12 170 -40.5t115 -154.5q35 -108 31 -218t-43 -193.5t-91 -83.5q-36 0 -50.5 39.5t-10.5 87.5q1 22 6 51.5t9 49t4 36t-7 22.5q-14 11 -21 -21q-4 -16 -11 -66q-16 -125 -40 -160q-16 -23 -39 -23q-39 0 -39 65q-7 -29 -26.5 -51
t-50.5 -22zM180 905q0 -13 -10 -20t-18 -7.5t-23 -0.5q-31 0 -58.5 13.5t-27.5 39.5q0 58 81.5 87t252.5 34q161 4 209 -9q57 -16 26 -55q-22 -26 -45.5 -32t-45.5 1t-68.5 13t-98.5 0q-2 -35 -6.5 -104.5t-6.5 -112t-0.5 -95t9.5 -88.5q3 -16 9 -34t10 -28t5 -19t-4.5 -13
t-19.5 -4q-27 0 -46 17t-28.5 39t-14.5 53t-6 48t-1 36q0 90 14 303q-1 0 -22 -1l-31.5 -1.5t-32.5 -2.5t-34.5 -4.5t-27.5 -6t-22.5 -9t-7.5 -12.5q3 -13 23 -10t43.5 1.5t23.5 -16.5zM784 879q-22 0 -33.5 16t-11.5 41q0 21 11.5 36t31.5 15q21 0 32 -14.5t11 -36.5
q0 -21 -10.5 -39t-30.5 -18zM735 530h68t102.5 2t104 7.5t117.5 19t100 33.5q2 1 5 2q6 4 9.5 3t3.5 -11q0 -25 -14 -44t-32 -28.5t-47.5 -16.5t-47 -8.5t-43.5 -3.5q-133 -8 -326 -8q-17 -252 25 -252q19 0 32.5 35.5t22.5 78.5t31 78.5t55 35.5q45 0 50 -43q6 -47 -33 -91
q-20 -24 -48 -36q-1 -15 -1.5 -33.5t9 -34.5t27.5 -16q25 0 43 24t25.5 52.5t9.5 58.5q2 28 -7 54.5t-9 37.5q0 12 9.5 17t18.5 3q28 -6 42.5 -29t11.5 -52q6 28 35.5 53.5t56.5 25.5q41 0 60 -41.5t7 -86t-49 -52.5q-20 -3 -37.5 6.5t-17.5 30.5q0 11 17 11t24 7
q21 20 12 51t-39 27q-27 -5 -37.5 -47t-10 -89.5t-10.5 -85t-38 -34.5q-17 1 -27 29.5t-10 71.5q-11 -37 -33 -64.5t-55 -27.5t-59 24.5t-29 56.5q-32 -71 -68 -71q-25 0 -44 25.5t-25 52.5q-10 -31 -35.5 -56.5t-56.5 -25.5q-30 0 -54.5 23t-23.5 54q-10 -36 -34.5 -59.5
t-59.5 -23.5q-25 0 -47.5 13t-34.5 36q-26 -29 -60 -41q-61 -23 -97 18t-36 135q0 34 7.5 100t5 119.5t-22.5 112.5q-9 26 2 37.5t30 9.5t38 -12q37 -22 48.5 -79t5.5 -123t-13.5 -129t-3 -104.5t31.5 -41.5q26 0 41 25.5t20.5 62t12.5 73t25 62t49 25.5q53 0 48 -52
q-5 -50 -50 -98q-8 -9 -17 -16q-5 -26 6.5 -55t36.5 -29q21 0 35.5 23.5t20 62t7.5 73.5t2 74t1 47q-5 0 -23.5 -1.5t-30.5 -0.5t-28 4t-26.5 13t-14.5 26q-6 27 1.5 31t30.5 -6q15 -6 25 -9t28.5 -6.5t35.5 -3.5q0 27 7 40.5t27 13.5q37 0 37 -54l95 2q0 52 36 52
q16 0 26 -14t9 -36zM571 479q0 -5 -3 -80.5t2 -129t22 -54.5q19 -1 33 21t21 60t10.5 71t5.5 70.5t2 41.5h-93zM391 311q16 13 32 49t7 43q-12 12 -26 -26q-13 -36 -13 -66zM874 311q39 18 52 60q4 20 1 28.5t-14 6.5q-13 -3 -25 -37.5t-14 -57.5zM653 16v50h13v-50h-13z
M514 61v-10h8v-8h-8v-12q0 -7 8 -4v-11q-12 -4 -18 2q-2 3 -2 25h-4v8h4v6zM979 53q10 0 10 -16v-21h-8v19q0 6 -3.5 7.5t-7 -1.5t-3.5 -6v-19h-11v19q0 8 -6 8t-6 -6v-21h-10v35h8l2 -2q4 5 12 4t9 -8q5 8 14 8zM631 53q16 0 16 -16v-21h-14v19q0 4 -2 6t-4.5 1.5
t-3.5 -3.5v-23h-15v35h13l2 -2q4 4 8 4zM821 45q5 8 17 8v-12q-4 1 -9.5 -0.5t-5.5 -3.5v-21h-10v35h8v-6zM690 53q19 0 19 -22h-23q0 -13 19 -4l4 -9q-12 -6 -24.5 -1t-12.5 16q0 20 18 20zM909 53q19 0 19 -19.5t-19 -19.5q-13 0 -18 10t0 19.5t18 9.5zM866 35q0 -8 21 -8
v-9q-26 -8 -32 10q-5 15 11 22q9 4 21 1v-10q-5 3 -13 1.5t-8 -7.5zM590 16v35h10v-35h-10zM348 27l4 24h10l-8 -35h-10l-8 23l-6 -23h-11l-10 35h13l4 -24l6 24h10zM686 37h12q0 6 -6 6t-6 -6zM909 25q7 0 7 9t-7 9t-9 -4.5t0.5 -9t8.5 -4.5zM842 29q6 0 6 -7.5t-6 -7.5
t-6 7.5t6 7.5zM485 29q7 0 7 -7.5t-7 -7.5q-6 0 -6 7.5t6 7.5zM403 27l5 24h12l-10 -35h-11l-6 23l-8 -23h-10l-8 35h10l4 -24l6 24h10zM459 27l6 24h10l-8 -35h-12l-6 23l-7 -23h-12l-8 35h10l4 -24l8 24h9zM567 27l4 24h11l-9 -35h-10l-8 23l-6 -23h-10l-11 35h13l4 -24
l6 24h8zM594 66q6 0 6 -6.5t-6 -6.5q-5 0 -7 3.5t0 6.5t7 3zM788 53q19 0 19 -22h-23q0 -13 19 -4l4 -9q-13 -6 -25 -1.5t-12 16.5q0 20 18 20zM784 37h13q0 6 -6.5 6t-6.5 -6z" />
    <glyph glyph-name="period" unicode="." 
d="M758 61v-10h8v-8h-8v-12q0 -8 8 -4v-11q-3 -2 -9 -1.5t-9 3.5q-3 4 -3 25h-18v-12q0 -7 10 -4v-11q-13 -3 -18 2q-2 2 -2 13v12h-4v8h4v6l10 4v-10h18v6zM612 879q-15 22 -2.5 44.5t43.5 6.5q49 -21 49 -144q0 -16 -0.5 -29t-6 -46.5t-15 -56t-31 -41.5t-51.5 -19
q-29 0 -49 17t-23 44q-8 -26 -29.5 -41.5t-41.5 -15.5q-78 0 -78 166q0 141 88 141q26 0 32.5 -17t-5.5 -36q-22 -38 -31.5 -85.5t-3.5 -79.5t24 -32q15 0 19.5 30t3 66.5t9.5 67t38 31.5q33 1 37 -64q1 -19 0 -60q-1 -73 11 -81q5 -4 13 0q29 13 29 99t-29 135zM797 586
q-39 0 -58.5 41t-19.5 98q0 16 1.5 33.5t6 46.5t17.5 47t32 18q16 0 27.5 -13.5t11.5 -39.5q0 -12 -6 -57.5t-6 -77.5q0 -37 20 -37q7 0 13.5 6t11.5 17.5t9 25t6.5 31t5 32.5t4 32.5t2 28.5t1.5 23.5t1 14.5q3 23 12.5 34t30.5 11q13 0 21 -5.5t11.5 -17t5 -24.5
t-0.5 -33.5t-4.5 -37.5t-5.5 -42t-5 -43t1 -16q9 6 28 141v4q6 38 22 56t45 18q37 0 58.5 -27t13.5 -77q-3 -16 -6 -38.5t-6 -57t0 -56.5t14 -20q15 3 29 41.5t19.5 97.5t1 123.5t-30 127t-70.5 99.5q-54 45 -118.5 45t-116 -39t-72.5 -104q-20 -62 -54 -61q-28 1 -42 41
q-11 30 -5 67q12 72 81 132.5t157 72.5q93 12 170 -40.5t115 -154.5q35 -108 31 -218t-43 -193.5t-91 -83.5q-36 0 -50.5 39.5t-10.5 87.5q1 22 6 51.5t9 49t4 36t-7 22.5q-14 11 -21 -21q-4 -16 -11 -66q-16 -125 -40 -160q-16 -23 -39 -23q-39 0 -39 65q-7 -29 -26.5 -51
t-50.5 -22zM180 905q0 -13 -10 -20t-18 -7.5t-23 -0.5q-31 0 -58.5 13.5t-27.5 39.5q0 58 81.5 87t252.5 34q161 4 209 -9q57 -16 26 -55q-22 -26 -45.5 -32t-45.5 1t-68.5 13t-98.5 0q-2 -35 -6.5 -104.5t-6.5 -112t-0.5 -95t9.5 -88.5q3 -16 9 -34t10 -28t5 -19t-4.5 -13
t-19.5 -4q-27 0 -46 17t-28.5 39t-14.5 53t-6 48t-1 36q0 90 14 303q-1 0 -22 -1l-31.5 -1.5t-32.5 -2.5t-34.5 -4.5t-27.5 -6t-22.5 -9t-7.5 -12.5q3 -13 23 -10t43.5 1.5t23.5 -16.5zM784 879q-22 0 -33.5 16t-11.5 41q0 21 11.5 36t31.5 15q21 0 32 -14.5t11 -36.5
q0 -21 -10.5 -39t-30.5 -18zM735 530h68t102.5 2t104 7.5t117.5 19t100 33.5q2 1 5 2q6 4 9.5 3t3.5 -11q0 -25 -14 -44t-32 -28.5t-47.5 -16.5t-47 -8.5t-43.5 -3.5q-133 -8 -326 -8q-17 -252 25 -252q19 0 32.5 35.5t22.5 78.5t31 78.5t55 35.5q45 0 50 -43q6 -47 -33 -91
q-20 -24 -48 -36q-1 -15 -1.5 -33.5t9 -34.5t27.5 -16q25 0 43 24t25.5 52.5t9.5 58.5q2 28 -7 54.5t-9 37.5q0 12 9.5 17t18.5 3q28 -6 42.5 -29t11.5 -52q6 28 35.5 53.5t56.5 25.5q41 0 60 -41.5t7 -86t-49 -52.5q-20 -3 -37.5 6.5t-17.5 30.5q0 11 17 11t24 7
q21 20 12 51t-39 27q-27 -5 -37.5 -47t-10 -89.5t-10.5 -85t-38 -34.5q-17 1 -27 29.5t-10 71.5q-11 -37 -33 -64.5t-55 -27.5t-59 24.5t-29 56.5q-32 -71 -68 -71q-25 0 -44 25.5t-25 52.5q-10 -31 -35.5 -56.5t-56.5 -25.5q-30 0 -54.5 23t-23.5 54q-10 -36 -34.5 -59.5
t-59.5 -23.5q-25 0 -47.5 13t-34.5 36q-26 -29 -60 -41q-61 -23 -97 18t-36 135q0 34 7.5 100t5 119.5t-22.5 112.5q-9 26 2 37.5t30 9.5t38 -12q37 -22 48.5 -79t5.5 -123t-13.5 -129t-3 -104.5t31.5 -41.5q26 0 41 25.5t20.5 62t12.5 73t25 62t49 25.5q53 0 48 -52
q-5 -50 -50 -98q-8 -9 -17 -16q-5 -26 6.5 -55t36.5 -29q21 0 35.5 23.5t20 62t7.5 73.5t2 74t1 47q-5 0 -23.5 -1.5t-30.5 -0.5t-28 4t-26.5 13t-14.5 26q-6 27 1.5 31t30.5 -6q15 -6 25 -9t28.5 -6.5t35.5 -3.5q0 27 7 40.5t27 13.5q37 0 37 -54l95 2q0 52 36 52
q16 0 26 -14t9 -36zM571 479q0 -5 -3 -80.5t2 -129t22 -54.5q19 -1 33 21t21 60t10.5 71t5.5 70.5t2 41.5h-93zM391 311q16 13 32 49t7 43q-12 12 -26 -26q-13 -36 -13 -66zM874 311q39 18 52 60q4 20 1 28.5t-14 6.5q-13 -3 -25 -37.5t-14 -57.5zM653 16v50h13v-50h-13z
M514 61v-10h8v-8h-8v-12q0 -7 8 -4v-11q-12 -4 -18 2q-2 3 -2 25h-4v8h4v6zM979 53q10 0 10 -16v-21h-8v19q0 6 -3.5 7.5t-7 -1.5t-3.5 -6v-19h-11v19q0 8 -6 8t-6 -6v-21h-10v35h8l2 -2q4 5 12 4t9 -8q5 8 14 8zM631 53q16 0 16 -16v-21h-14v19q0 4 -2 6t-4.5 1.5
t-3.5 -3.5v-23h-15v35h13l2 -2q4 4 8 4zM821 45q5 8 17 8v-12q-4 1 -9.5 -0.5t-5.5 -3.5v-21h-10v35h8v-6zM690 53q19 0 19 -22h-23q0 -13 19 -4l4 -9q-12 -6 -24.5 -1t-12.5 16q0 20 18 20zM909 53q19 0 19 -19.5t-19 -19.5q-13 0 -18 10t0 19.5t18 9.5zM866 35q0 -8 21 -8
v-9q-26 -8 -32 10q-5 15 11 22q9 4 21 1v-10q-5 3 -13 1.5t-8 -7.5zM590 16v35h10v-35h-10zM348 27l4 24h10l-8 -35h-10l-8 23l-6 -23h-11l-10 35h13l4 -24l6 24h10zM686 37h12q0 6 -6 6t-6 -6zM909 25q7 0 7 9t-7 9t-9 -4.5t0.5 -9t8.5 -4.5zM842 29q6 0 6 -7.5t-6 -7.5
t-6 7.5t6 7.5zM485 29q7 0 7 -7.5t-7 -7.5q-6 0 -6 7.5t6 7.5zM403 27l5 24h12l-10 -35h-11l-6 23l-8 -23h-10l-8 35h10l4 -24l6 24h10zM459 27l6 24h10l-8 -35h-12l-6 23l-7 -23h-12l-8 35h10l4 -24l8 24h9zM567 27l4 24h11l-9 -35h-10l-8 23l-6 -23h-10l-11 35h13l4 -24
l6 24h8zM594 66q6 0 6 -6.5t-6 -6.5q-5 0 -7 3.5t0 6.5t7 3zM788 53q19 0 19 -22h-23q0 -13 19 -4l4 -9q-13 -6 -25 -1.5t-12 16.5q0 20 18 20zM784 37h13q0 6 -6.5 6t-6.5 -6z" />
    <glyph glyph-name="slash" unicode="/" horiz-adv-x="813" 
d="M793 1298q0 -207 -102 -708.5t-185 -751.5q-29 -87 -92 -139.5t-148 -52.5q-101 0 -173.5 72t-72.5 173q0 207 102 709t185 752q29 87 92 139.5t148 52.5q101 0 173.5 -72.5t72.5 -173.5zM553 1491q-38 0 -69.5 -8t-63 -29.5t-52 -65.5t-26.5 -108q12 55 38 96.5t55 62.5
t56 33.5t45 15.5z" />
    <glyph glyph-name="zero" unicode="0" 
d="M758 61v-10h8v-8h-8v-12q0 -8 8 -4v-11q-3 -2 -9 -1.5t-9 3.5q-3 4 -3 25h-18v-12q0 -7 10 -4v-11q-13 -3 -18 2q-2 2 -2 13v12h-4v8h4v6l10 4v-10h18v6zM612 879q-15 22 -2.5 44.5t43.5 6.5q49 -21 49 -144q0 -16 -0.5 -29t-6 -46.5t-15 -56t-31 -41.5t-51.5 -19
q-29 0 -49 17t-23 44q-8 -26 -29.5 -41.5t-41.5 -15.5q-78 0 -78 166q0 141 88 141q26 0 32.5 -17t-5.5 -36q-22 -38 -31.5 -85.5t-3.5 -79.5t24 -32q15 0 19.5 30t3 66.5t9.5 67t38 31.5q33 1 37 -64q1 -19 0 -60q-1 -73 11 -81q5 -4 13 0q29 13 29 99t-29 135zM797 586
q-39 0 -58.5 41t-19.5 98q0 16 1.5 33.5t6 46.5t17.5 47t32 18q16 0 27.5 -13.5t11.5 -39.5q0 -12 -6 -57.5t-6 -77.5q0 -37 20 -37q7 0 13.5 6t11.5 17.5t9 25t6.5 31t5 32.5t4 32.5t2 28.5t1.5 23.5t1 14.5q3 23 12.5 34t30.5 11q13 0 21 -5.5t11.5 -17t5 -24.5
t-0.5 -33.5t-4.5 -37.5t-5.5 -42t-5 -43t1 -16q9 6 28 141v4q6 38 22 56t45 18q37 0 58.5 -27t13.5 -77q-3 -16 -6 -38.5t-6 -57t0 -56.5t14 -20q15 3 29 41.5t19.5 97.5t1 123.5t-30 127t-70.5 99.5q-54 45 -118.5 45t-116 -39t-72.5 -104q-20 -62 -54 -61q-28 1 -42 41
q-11 30 -5 67q12 72 81 132.5t157 72.5q93 12 170 -40.5t115 -154.5q35 -108 31 -218t-43 -193.5t-91 -83.5q-36 0 -50.5 39.5t-10.5 87.5q1 22 6 51.5t9 49t4 36t-7 22.5q-14 11 -21 -21q-4 -16 -11 -66q-16 -125 -40 -160q-16 -23 -39 -23q-39 0 -39 65q-7 -29 -26.5 -51
t-50.5 -22zM180 905q0 -13 -10 -20t-18 -7.5t-23 -0.5q-31 0 -58.5 13.5t-27.5 39.5q0 58 81.5 87t252.5 34q161 4 209 -9q57 -16 26 -55q-22 -26 -45.5 -32t-45.5 1t-68.5 13t-98.5 0q-2 -35 -6.5 -104.5t-6.5 -112t-0.5 -95t9.5 -88.5q3 -16 9 -34t10 -28t5 -19t-4.5 -13
t-19.5 -4q-27 0 -46 17t-28.5 39t-14.5 53t-6 48t-1 36q0 90 14 303q-1 0 -22 -1l-31.5 -1.5t-32.5 -2.5t-34.5 -4.5t-27.5 -6t-22.5 -9t-7.5 -12.5q3 -13 23 -10t43.5 1.5t23.5 -16.5zM784 879q-22 0 -33.5 16t-11.5 41q0 21 11.5 36t31.5 15q21 0 32 -14.5t11 -36.5
q0 -21 -10.5 -39t-30.5 -18zM735 530h68t102.5 2t104 7.5t117.5 19t100 33.5q2 1 5 2q6 4 9.5 3t3.5 -11q0 -25 -14 -44t-32 -28.5t-47.5 -16.5t-47 -8.5t-43.5 -3.5q-133 -8 -326 -8q-17 -252 25 -252q19 0 32.5 35.5t22.5 78.5t31 78.5t55 35.5q45 0 50 -43q6 -47 -33 -91
q-20 -24 -48 -36q-1 -15 -1.5 -33.5t9 -34.5t27.5 -16q25 0 43 24t25.5 52.5t9.5 58.5q2 28 -7 54.5t-9 37.5q0 12 9.5 17t18.5 3q28 -6 42.5 -29t11.5 -52q6 28 35.5 53.5t56.5 25.5q41 0 60 -41.5t7 -86t-49 -52.5q-20 -3 -37.5 6.5t-17.5 30.5q0 11 17 11t24 7
q21 20 12 51t-39 27q-27 -5 -37.5 -47t-10 -89.5t-10.5 -85t-38 -34.5q-17 1 -27 29.5t-10 71.5q-11 -37 -33 -64.5t-55 -27.5t-59 24.5t-29 56.5q-32 -71 -68 -71q-25 0 -44 25.5t-25 52.5q-10 -31 -35.5 -56.5t-56.5 -25.5q-30 0 -54.5 23t-23.5 54q-10 -36 -34.5 -59.5
t-59.5 -23.5q-25 0 -47.5 13t-34.5 36q-26 -29 -60 -41q-61 -23 -97 18t-36 135q0 34 7.5 100t5 119.5t-22.5 112.5q-9 26 2 37.5t30 9.5t38 -12q37 -22 48.5 -79t5.5 -123t-13.5 -129t-3 -104.5t31.5 -41.5q26 0 41 25.5t20.5 62t12.5 73t25 62t49 25.5q53 0 48 -52
q-5 -50 -50 -98q-8 -9 -17 -16q-5 -26 6.5 -55t36.5 -29q21 0 35.5 23.5t20 62t7.5 73.5t2 74t1 47q-5 0 -23.5 -1.5t-30.5 -0.5t-28 4t-26.5 13t-14.5 26q-6 27 1.5 31t30.5 -6q15 -6 25 -9t28.5 -6.5t35.5 -3.5q0 27 7 40.5t27 13.5q37 0 37 -54l95 2q0 52 36 52
q16 0 26 -14t9 -36zM571 479q0 -5 -3 -80.5t2 -129t22 -54.5q19 -1 33 21t21 60t10.5 71t5.5 70.5t2 41.5h-93zM391 311q16 13 32 49t7 43q-12 12 -26 -26q-13 -36 -13 -66zM874 311q39 18 52 60q4 20 1 28.5t-14 6.5q-13 -3 -25 -37.5t-14 -57.5zM653 16v50h13v-50h-13z
M514 61v-10h8v-8h-8v-12q0 -7 8 -4v-11q-12 -4 -18 2q-2 3 -2 25h-4v8h4v6zM979 53q10 0 10 -16v-21h-8v19q0 6 -3.5 7.5t-7 -1.5t-3.5 -6v-19h-11v19q0 8 -6 8t-6 -6v-21h-10v35h8l2 -2q4 5 12 4t9 -8q5 8 14 8zM631 53q16 0 16 -16v-21h-14v19q0 4 -2 6t-4.5 1.5
t-3.5 -3.5v-23h-15v35h13l2 -2q4 4 8 4zM821 45q5 8 17 8v-12q-4 1 -9.5 -0.5t-5.5 -3.5v-21h-10v35h8v-6zM690 53q19 0 19 -22h-23q0 -13 19 -4l4 -9q-12 -6 -24.5 -1t-12.5 16q0 20 18 20zM909 53q19 0 19 -19.5t-19 -19.5q-13 0 -18 10t0 19.5t18 9.5zM866 35q0 -8 21 -8
v-9q-26 -8 -32 10q-5 15 11 22q9 4 21 1v-10q-5 3 -13 1.5t-8 -7.5zM590 16v35h10v-35h-10zM348 27l4 24h10l-8 -35h-10l-8 23l-6 -23h-11l-10 35h13l4 -24l6 24h10zM686 37h12q0 6 -6 6t-6 -6zM909 25q7 0 7 9t-7 9t-9 -4.5t0.5 -9t8.5 -4.5zM842 29q6 0 6 -7.5t-6 -7.5
t-6 7.5t6 7.5zM485 29q7 0 7 -7.5t-7 -7.5q-6 0 -6 7.5t6 7.5zM403 27l5 24h12l-10 -35h-11l-6 23l-8 -23h-10l-8 35h10l4 -24l6 24h10zM459 27l6 24h10l-8 -35h-12l-6 23l-7 -23h-12l-8 35h10l4 -24l8 24h9zM567 27l4 24h11l-9 -35h-10l-8 23l-6 -23h-10l-11 35h13l4 -24
l6 24h8zM594 66q6 0 6 -6.5t-6 -6.5q-5 0 -7 3.5t0 6.5t7 3zM788 53q19 0 19 -22h-23q0 -13 19 -4l4 -9q-13 -6 -25 -1.5t-12 16.5q0 20 18 20zM784 37h13q0 6 -6.5 6t-6.5 -6z" />
    <glyph glyph-name="one" unicode="1" 
d="M758 61v-10h8v-8h-8v-12q0 -8 8 -4v-11q-3 -2 -9 -1.5t-9 3.5q-3 4 -3 25h-18v-12q0 -7 10 -4v-11q-13 -3 -18 2q-2 2 -2 13v12h-4v8h4v6l10 4v-10h18v6zM612 879q-15 22 -2.5 44.5t43.5 6.5q49 -21 49 -144q0 -16 -0.5 -29t-6 -46.5t-15 -56t-31 -41.5t-51.5 -19
q-29 0 -49 17t-23 44q-8 -26 -29.5 -41.5t-41.5 -15.5q-78 0 -78 166q0 141 88 141q26 0 32.5 -17t-5.5 -36q-22 -38 -31.5 -85.5t-3.5 -79.5t24 -32q15 0 19.5 30t3 66.5t9.5 67t38 31.5q33 1 37 -64q1 -19 0 -60q-1 -73 11 -81q5 -4 13 0q29 13 29 99t-29 135zM797 586
q-39 0 -58.5 41t-19.5 98q0 16 1.5 33.5t6 46.5t17.5 47t32 18q16 0 27.5 -13.5t11.5 -39.5q0 -12 -6 -57.5t-6 -77.5q0 -37 20 -37q7 0 13.5 6t11.5 17.5t9 25t6.5 31t5 32.5t4 32.5t2 28.5t1.5 23.5t1 14.5q3 23 12.5 34t30.5 11q13 0 21 -5.5t11.5 -17t5 -24.5
t-0.5 -33.5t-4.5 -37.5t-5.5 -42t-5 -43t1 -16q9 6 28 141v4q6 38 22 56t45 18q37 0 58.5 -27t13.5 -77q-3 -16 -6 -38.5t-6 -57t0 -56.5t14 -20q15 3 29 41.5t19.5 97.5t1 123.5t-30 127t-70.5 99.5q-54 45 -118.5 45t-116 -39t-72.5 -104q-20 -62 -54 -61q-28 1 -42 41
q-11 30 -5 67q12 72 81 132.5t157 72.5q93 12 170 -40.5t115 -154.5q35 -108 31 -218t-43 -193.5t-91 -83.5q-36 0 -50.5 39.5t-10.5 87.5q1 22 6 51.5t9 49t4 36t-7 22.5q-14 11 -21 -21q-4 -16 -11 -66q-16 -125 -40 -160q-16 -23 -39 -23q-39 0 -39 65q-7 -29 -26.5 -51
t-50.5 -22zM180 905q0 -13 -10 -20t-18 -7.5t-23 -0.5q-31 0 -58.5 13.5t-27.5 39.5q0 58 81.5 87t252.5 34q161 4 209 -9q57 -16 26 -55q-22 -26 -45.5 -32t-45.5 1t-68.5 13t-98.5 0q-2 -35 -6.5 -104.5t-6.5 -112t-0.5 -95t9.5 -88.5q3 -16 9 -34t10 -28t5 -19t-4.5 -13
t-19.5 -4q-27 0 -46 17t-28.5 39t-14.5 53t-6 48t-1 36q0 90 14 303q-1 0 -22 -1l-31.5 -1.5t-32.5 -2.5t-34.5 -4.5t-27.5 -6t-22.5 -9t-7.5 -12.5q3 -13 23 -10t43.5 1.5t23.5 -16.5zM784 879q-22 0 -33.5 16t-11.5 41q0 21 11.5 36t31.5 15q21 0 32 -14.5t11 -36.5
q0 -21 -10.5 -39t-30.5 -18zM735 530h68t102.5 2t104 7.5t117.5 19t100 33.5q2 1 5 2q6 4 9.5 3t3.5 -11q0 -25 -14 -44t-32 -28.5t-47.5 -16.5t-47 -8.5t-43.5 -3.5q-133 -8 -326 -8q-17 -252 25 -252q19 0 32.5 35.5t22.5 78.5t31 78.5t55 35.5q45 0 50 -43q6 -47 -33 -91
q-20 -24 -48 -36q-1 -15 -1.5 -33.5t9 -34.5t27.5 -16q25 0 43 24t25.5 52.5t9.5 58.5q2 28 -7 54.5t-9 37.5q0 12 9.5 17t18.5 3q28 -6 42.5 -29t11.5 -52q6 28 35.5 53.5t56.5 25.5q41 0 60 -41.5t7 -86t-49 -52.5q-20 -3 -37.5 6.5t-17.5 30.5q0 11 17 11t24 7
q21 20 12 51t-39 27q-27 -5 -37.5 -47t-10 -89.5t-10.5 -85t-38 -34.5q-17 1 -27 29.5t-10 71.5q-11 -37 -33 -64.5t-55 -27.5t-59 24.5t-29 56.5q-32 -71 -68 -71q-25 0 -44 25.5t-25 52.5q-10 -31 -35.5 -56.5t-56.5 -25.5q-30 0 -54.5 23t-23.5 54q-10 -36 -34.5 -59.5
t-59.5 -23.5q-25 0 -47.5 13t-34.5 36q-26 -29 -60 -41q-61 -23 -97 18t-36 135q0 34 7.5 100t5 119.5t-22.5 112.5q-9 26 2 37.5t30 9.5t38 -12q37 -22 48.5 -79t5.5 -123t-13.5 -129t-3 -104.5t31.5 -41.5q26 0 41 25.5t20.5 62t12.5 73t25 62t49 25.5q53 0 48 -52
q-5 -50 -50 -98q-8 -9 -17 -16q-5 -26 6.5 -55t36.5 -29q21 0 35.5 23.5t20 62t7.5 73.5t2 74t1 47q-5 0 -23.5 -1.5t-30.5 -0.5t-28 4t-26.5 13t-14.5 26q-6 27 1.5 31t30.5 -6q15 -6 25 -9t28.5 -6.5t35.5 -3.5q0 27 7 40.5t27 13.5q37 0 37 -54l95 2q0 52 36 52
q16 0 26 -14t9 -36zM571 479q0 -5 -3 -80.5t2 -129t22 -54.5q19 -1 33 21t21 60t10.5 71t5.5 70.5t2 41.5h-93zM391 311q16 13 32 49t7 43q-12 12 -26 -26q-13 -36 -13 -66zM874 311q39 18 52 60q4 20 1 28.5t-14 6.5q-13 -3 -25 -37.5t-14 -57.5zM653 16v50h13v-50h-13z
M514 61v-10h8v-8h-8v-12q0 -7 8 -4v-11q-12 -4 -18 2q-2 3 -2 25h-4v8h4v6zM979 53q10 0 10 -16v-21h-8v19q0 6 -3.5 7.5t-7 -1.5t-3.5 -6v-19h-11v19q0 8 -6 8t-6 -6v-21h-10v35h8l2 -2q4 5 12 4t9 -8q5 8 14 8zM631 53q16 0 16 -16v-21h-14v19q0 4 -2 6t-4.5 1.5
t-3.5 -3.5v-23h-15v35h13l2 -2q4 4 8 4zM821 45q5 8 17 8v-12q-4 1 -9.5 -0.5t-5.5 -3.5v-21h-10v35h8v-6zM690 53q19 0 19 -22h-23q0 -13 19 -4l4 -9q-12 -6 -24.5 -1t-12.5 16q0 20 18 20zM909 53q19 0 19 -19.5t-19 -19.5q-13 0 -18 10t0 19.5t18 9.5zM866 35q0 -8 21 -8
v-9q-26 -8 -32 10q-5 15 11 22q9 4 21 1v-10q-5 3 -13 1.5t-8 -7.5zM590 16v35h10v-35h-10zM348 27l4 24h10l-8 -35h-10l-8 23l-6 -23h-11l-10 35h13l4 -24l6 24h10zM686 37h12q0 6 -6 6t-6 -6zM909 25q7 0 7 9t-7 9t-9 -4.5t0.5 -9t8.5 -4.5zM842 29q6 0 6 -7.5t-6 -7.5
t-6 7.5t6 7.5zM485 29q7 0 7 -7.5t-7 -7.5q-6 0 -6 7.5t6 7.5zM403 27l5 24h12l-10 -35h-11l-6 23l-8 -23h-10l-8 35h10l4 -24l6 24h10zM459 27l6 24h10l-8 -35h-12l-6 23l-7 -23h-12l-8 35h10l4 -24l8 24h9zM567 27l4 24h11l-9 -35h-10l-8 23l-6 -23h-10l-11 35h13l4 -24
l6 24h8zM594 66q6 0 6 -6.5t-6 -6.5q-5 0 -7 3.5t0 6.5t7 3zM788 53q19 0 19 -22h-23q0 -13 19 -4l4 -9q-13 -6 -25 -1.5t-12 16.5q0 20 18 20zM784 37h13q0 6 -6.5 6t-6.5 -6z" />
    <glyph glyph-name="two" unicode="2" 
d="M758 61v-10h8v-8h-8v-12q0 -8 8 -4v-11q-3 -2 -9 -1.5t-9 3.5q-3 4 -3 25h-18v-12q0 -7 10 -4v-11q-13 -3 -18 2q-2 2 -2 13v12h-4v8h4v6l10 4v-10h18v6zM612 879q-15 22 -2.5 44.5t43.5 6.5q49 -21 49 -144q0 -16 -0.5 -29t-6 -46.5t-15 -56t-31 -41.5t-51.5 -19
q-29 0 -49 17t-23 44q-8 -26 -29.5 -41.5t-41.5 -15.5q-78 0 -78 166q0 141 88 141q26 0 32.5 -17t-5.5 -36q-22 -38 -31.5 -85.5t-3.5 -79.5t24 -32q15 0 19.5 30t3 66.5t9.5 67t38 31.5q33 1 37 -64q1 -19 0 -60q-1 -73 11 -81q5 -4 13 0q29 13 29 99t-29 135zM797 586
q-39 0 -58.5 41t-19.5 98q0 16 1.5 33.5t6 46.5t17.5 47t32 18q16 0 27.5 -13.5t11.5 -39.5q0 -12 -6 -57.5t-6 -77.5q0 -37 20 -37q7 0 13.5 6t11.5 17.5t9 25t6.5 31t5 32.5t4 32.5t2 28.5t1.5 23.5t1 14.5q3 23 12.5 34t30.5 11q13 0 21 -5.5t11.5 -17t5 -24.5
t-0.5 -33.5t-4.5 -37.5t-5.5 -42t-5 -43t1 -16q9 6 28 141v4q6 38 22 56t45 18q37 0 58.5 -27t13.5 -77q-3 -16 -6 -38.5t-6 -57t0 -56.5t14 -20q15 3 29 41.5t19.5 97.5t1 123.5t-30 127t-70.5 99.5q-54 45 -118.5 45t-116 -39t-72.5 -104q-20 -62 -54 -61q-28 1 -42 41
q-11 30 -5 67q12 72 81 132.5t157 72.5q93 12 170 -40.5t115 -154.5q35 -108 31 -218t-43 -193.5t-91 -83.5q-36 0 -50.5 39.5t-10.5 87.5q1 22 6 51.5t9 49t4 36t-7 22.5q-14 11 -21 -21q-4 -16 -11 -66q-16 -125 -40 -160q-16 -23 -39 -23q-39 0 -39 65q-7 -29 -26.5 -51
t-50.5 -22zM180 905q0 -13 -10 -20t-18 -7.5t-23 -0.5q-31 0 -58.5 13.5t-27.5 39.5q0 58 81.5 87t252.5 34q161 4 209 -9q57 -16 26 -55q-22 -26 -45.5 -32t-45.5 1t-68.5 13t-98.5 0q-2 -35 -6.5 -104.5t-6.5 -112t-0.5 -95t9.5 -88.5q3 -16 9 -34t10 -28t5 -19t-4.5 -13
t-19.5 -4q-27 0 -46 17t-28.5 39t-14.5 53t-6 48t-1 36q0 90 14 303q-1 0 -22 -1l-31.5 -1.5t-32.5 -2.5t-34.5 -4.5t-27.5 -6t-22.5 -9t-7.5 -12.5q3 -13 23 -10t43.5 1.5t23.5 -16.5zM784 879q-22 0 -33.5 16t-11.5 41q0 21 11.5 36t31.5 15q21 0 32 -14.5t11 -36.5
q0 -21 -10.5 -39t-30.5 -18zM735 530h68t102.5 2t104 7.5t117.5 19t100 33.5q2 1 5 2q6 4 9.5 3t3.5 -11q0 -25 -14 -44t-32 -28.5t-47.5 -16.5t-47 -8.5t-43.5 -3.5q-133 -8 -326 -8q-17 -252 25 -252q19 0 32.5 35.5t22.5 78.5t31 78.5t55 35.5q45 0 50 -43q6 -47 -33 -91
q-20 -24 -48 -36q-1 -15 -1.5 -33.5t9 -34.5t27.5 -16q25 0 43 24t25.5 52.5t9.5 58.5q2 28 -7 54.5t-9 37.5q0 12 9.5 17t18.5 3q28 -6 42.5 -29t11.5 -52q6 28 35.5 53.5t56.5 25.5q41 0 60 -41.5t7 -86t-49 -52.5q-20 -3 -37.5 6.5t-17.5 30.5q0 11 17 11t24 7
q21 20 12 51t-39 27q-27 -5 -37.5 -47t-10 -89.5t-10.5 -85t-38 -34.5q-17 1 -27 29.5t-10 71.5q-11 -37 -33 -64.5t-55 -27.5t-59 24.5t-29 56.5q-32 -71 -68 -71q-25 0 -44 25.5t-25 52.5q-10 -31 -35.5 -56.5t-56.5 -25.5q-30 0 -54.5 23t-23.5 54q-10 -36 -34.5 -59.5
t-59.5 -23.5q-25 0 -47.5 13t-34.5 36q-26 -29 -60 -41q-61 -23 -97 18t-36 135q0 34 7.5 100t5 119.5t-22.5 112.5q-9 26 2 37.5t30 9.5t38 -12q37 -22 48.5 -79t5.5 -123t-13.5 -129t-3 -104.5t31.5 -41.5q26 0 41 25.5t20.5 62t12.5 73t25 62t49 25.5q53 0 48 -52
q-5 -50 -50 -98q-8 -9 -17 -16q-5 -26 6.5 -55t36.5 -29q21 0 35.5 23.5t20 62t7.5 73.5t2 74t1 47q-5 0 -23.5 -1.5t-30.5 -0.5t-28 4t-26.5 13t-14.5 26q-6 27 1.5 31t30.5 -6q15 -6 25 -9t28.5 -6.5t35.5 -3.5q0 27 7 40.5t27 13.5q37 0 37 -54l95 2q0 52 36 52
q16 0 26 -14t9 -36zM571 479q0 -5 -3 -80.5t2 -129t22 -54.5q19 -1 33 21t21 60t10.5 71t5.5 70.5t2 41.5h-93zM391 311q16 13 32 49t7 43q-12 12 -26 -26q-13 -36 -13 -66zM874 311q39 18 52 60q4 20 1 28.5t-14 6.5q-13 -3 -25 -37.5t-14 -57.5zM653 16v50h13v-50h-13z
M514 61v-10h8v-8h-8v-12q0 -7 8 -4v-11q-12 -4 -18 2q-2 3 -2 25h-4v8h4v6zM979 53q10 0 10 -16v-21h-8v19q0 6 -3.5 7.5t-7 -1.5t-3.5 -6v-19h-11v19q0 8 -6 8t-6 -6v-21h-10v35h8l2 -2q4 5 12 4t9 -8q5 8 14 8zM631 53q16 0 16 -16v-21h-14v19q0 4 -2 6t-4.5 1.5
t-3.5 -3.5v-23h-15v35h13l2 -2q4 4 8 4zM821 45q5 8 17 8v-12q-4 1 -9.5 -0.5t-5.5 -3.5v-21h-10v35h8v-6zM690 53q19 0 19 -22h-23q0 -13 19 -4l4 -9q-12 -6 -24.5 -1t-12.5 16q0 20 18 20zM909 53q19 0 19 -19.5t-19 -19.5q-13 0 -18 10t0 19.5t18 9.5zM866 35q0 -8 21 -8
v-9q-26 -8 -32 10q-5 15 11 22q9 4 21 1v-10q-5 3 -13 1.5t-8 -7.5zM590 16v35h10v-35h-10zM348 27l4 24h10l-8 -35h-10l-8 23l-6 -23h-11l-10 35h13l4 -24l6 24h10zM686 37h12q0 6 -6 6t-6 -6zM909 25q7 0 7 9t-7 9t-9 -4.5t0.5 -9t8.5 -4.5zM842 29q6 0 6 -7.5t-6 -7.5
t-6 7.5t6 7.5zM485 29q7 0 7 -7.5t-7 -7.5q-6 0 -6 7.5t6 7.5zM403 27l5 24h12l-10 -35h-11l-6 23l-8 -23h-10l-8 35h10l4 -24l6 24h10zM459 27l6 24h10l-8 -35h-12l-6 23l-7 -23h-12l-8 35h10l4 -24l8 24h9zM567 27l4 24h11l-9 -35h-10l-8 23l-6 -23h-10l-11 35h13l4 -24
l6 24h8zM594 66q6 0 6 -6.5t-6 -6.5q-5 0 -7 3.5t0 6.5t7 3zM788 53q19 0 19 -22h-23q0 -13 19 -4l4 -9q-13 -6 -25 -1.5t-12 16.5q0 20 18 20zM784 37h13q0 6 -6.5 6t-6.5 -6z" />
    <glyph glyph-name="three" unicode="3" 
d="M485 924h-137q-134 0 -220.5 74t-86.5 233q0 128 74.5 217.5t179.5 89.5h680q104 0 179 -72.5t75 -173.5q0 -38 -30.5 -97.5t-63.5 -105t-81 -106.5t-57 -74q126 -50 179 -147.5t53 -261.5q0 -110 -52 -206t-136.5 -160t-191.5 -101t-218 -37h-336q-104 0 -179 81
t-75 195q0 76 25 131t69.5 86t97.5 45.5t117 14.5q42 0 106 -1q91 -1 114.5 2.5t23.5 22.5q0 9 -24.5 13.5t-59.5 9t-70 14.5t-59.5 37.5t-24.5 69.5q0 28 20 60.5t56.5 77t52.5 69.5zM311 1503q-36 0 -71 -12.5t-68 -38t-55.5 -74t-28.5 -112.5q12 55 39.5 99.5t58 69
t59 41t47.5 22.5z" />
    <glyph glyph-name="four" unicode="4" horiz-adv-x="1376" 
d="M20 526q0 29 6.5 55.5t13.5 43.5t26 41.5t27.5 34t36.5 37t36 36.5l483 516q229 246 365 246q69 0 125 -18.5t92 -48t60 -69t34 -80.5t10 -83v-991q0 -109 -75 -177.5t-232 -68.5q-155 0 -231 60.5t-76 205.5h-375q-66 0 -120.5 12t-102.5 40t-75.5 81t-27.5 127z
M991 1493q-44 1 -94 -26t-106.5 -86.5t-81.5 -89t-75 -93.5q-11 -14 -16 -20q14 15 60.5 66.5t73 78t70 66t85 64.5t84.5 40zM737 643v78l-75 -76z" />
    <glyph glyph-name="five" unicode="5" horiz-adv-x="1212" 
d="M287 1538l438 -2q158 0 213 -8q180 -25 218 -155q11 -38 11 -85q0 -101 -54.5 -173.5t-131.5 -72.5q-197 0 -326 2v-24q102 0 176.5 -12t142 -44.5t108.5 -88.5t65 -146.5t24 -216.5q0 -120 -42 -218t-116 -161.5t-174 -98t-218 -34.5h-334q-101 0 -173.5 81t-72.5 195
q0 140 67.5 208.5t172.5 68.5h196q80 0 80 20q0 17 -82 17h-196q-103 0 -170.5 60.5t-67.5 185.5v477q0 92 72.5 158.5t173.5 66.5zM317 1503q-38 0 -69.5 -8t-63 -29.5t-52 -65.5t-26.5 -108q12 55 38 96.5t55 62.5t56 33.5t45 15.5z" />
    <glyph glyph-name="six" unicode="6" 
d="M758 61v-10h8v-8h-8v-12q0 -8 8 -4v-11q-3 -2 -9 -1.5t-9 3.5q-3 4 -3 25h-18v-12q0 -7 10 -4v-11q-13 -3 -18 2q-2 2 -2 13v12h-4v8h4v6l10 4v-10h18v6zM612 879q-15 22 -2.5 44.5t43.5 6.5q49 -21 49 -144q0 -16 -0.5 -29t-6 -46.5t-15 -56t-31 -41.5t-51.5 -19
q-29 0 -49 17t-23 44q-8 -26 -29.5 -41.5t-41.5 -15.5q-78 0 -78 166q0 141 88 141q26 0 32.5 -17t-5.5 -36q-22 -38 -31.5 -85.5t-3.5 -79.5t24 -32q15 0 19.5 30t3 66.5t9.5 67t38 31.5q33 1 37 -64q1 -19 0 -60q-1 -73 11 -81q5 -4 13 0q29 13 29 99t-29 135zM797 586
q-39 0 -58.5 41t-19.5 98q0 16 1.5 33.5t6 46.5t17.5 47t32 18q16 0 27.5 -13.5t11.5 -39.5q0 -12 -6 -57.5t-6 -77.5q0 -37 20 -37q7 0 13.5 6t11.5 17.5t9 25t6.5 31t5 32.5t4 32.5t2 28.5t1.5 23.5t1 14.5q3 23 12.5 34t30.5 11q13 0 21 -5.5t11.5 -17t5 -24.5
t-0.5 -33.5t-4.5 -37.5t-5.5 -42t-5 -43t1 -16q9 6 28 141v4q6 38 22 56t45 18q37 0 58.5 -27t13.5 -77q-3 -16 -6 -38.5t-6 -57t0 -56.5t14 -20q15 3 29 41.5t19.5 97.5t1 123.5t-30 127t-70.5 99.5q-54 45 -118.5 45t-116 -39t-72.5 -104q-20 -62 -54 -61q-28 1 -42 41
q-11 30 -5 67q12 72 81 132.5t157 72.5q93 12 170 -40.5t115 -154.5q35 -108 31 -218t-43 -193.5t-91 -83.5q-36 0 -50.5 39.5t-10.5 87.5q1 22 6 51.5t9 49t4 36t-7 22.5q-14 11 -21 -21q-4 -16 -11 -66q-16 -125 -40 -160q-16 -23 -39 -23q-39 0 -39 65q-7 -29 -26.5 -51
t-50.5 -22zM180 905q0 -13 -10 -20t-18 -7.5t-23 -0.5q-31 0 -58.5 13.5t-27.5 39.5q0 58 81.5 87t252.5 34q161 4 209 -9q57 -16 26 -55q-22 -26 -45.5 -32t-45.5 1t-68.5 13t-98.5 0q-2 -35 -6.5 -104.5t-6.5 -112t-0.5 -95t9.5 -88.5q3 -16 9 -34t10 -28t5 -19t-4.5 -13
t-19.5 -4q-27 0 -46 17t-28.5 39t-14.5 53t-6 48t-1 36q0 90 14 303q-1 0 -22 -1l-31.5 -1.5t-32.5 -2.5t-34.5 -4.5t-27.5 -6t-22.5 -9t-7.5 -12.5q3 -13 23 -10t43.5 1.5t23.5 -16.5zM784 879q-22 0 -33.5 16t-11.5 41q0 21 11.5 36t31.5 15q21 0 32 -14.5t11 -36.5
q0 -21 -10.5 -39t-30.5 -18zM735 530h68t102.5 2t104 7.5t117.5 19t100 33.5q2 1 5 2q6 4 9.5 3t3.5 -11q0 -25 -14 -44t-32 -28.5t-47.5 -16.5t-47 -8.5t-43.5 -3.5q-133 -8 -326 -8q-17 -252 25 -252q19 0 32.5 35.5t22.5 78.5t31 78.5t55 35.5q45 0 50 -43q6 -47 -33 -91
q-20 -24 -48 -36q-1 -15 -1.5 -33.5t9 -34.5t27.5 -16q25 0 43 24t25.5 52.5t9.5 58.5q2 28 -7 54.5t-9 37.5q0 12 9.5 17t18.5 3q28 -6 42.5 -29t11.5 -52q6 28 35.5 53.5t56.5 25.5q41 0 60 -41.5t7 -86t-49 -52.5q-20 -3 -37.5 6.5t-17.5 30.5q0 11 17 11t24 7
q21 20 12 51t-39 27q-27 -5 -37.5 -47t-10 -89.5t-10.5 -85t-38 -34.5q-17 1 -27 29.5t-10 71.5q-11 -37 -33 -64.5t-55 -27.5t-59 24.5t-29 56.5q-32 -71 -68 -71q-25 0 -44 25.5t-25 52.5q-10 -31 -35.5 -56.5t-56.5 -25.5q-30 0 -54.5 23t-23.5 54q-10 -36 -34.5 -59.5
t-59.5 -23.5q-25 0 -47.5 13t-34.5 36q-26 -29 -60 -41q-61 -23 -97 18t-36 135q0 34 7.5 100t5 119.5t-22.5 112.5q-9 26 2 37.5t30 9.5t38 -12q37 -22 48.5 -79t5.5 -123t-13.5 -129t-3 -104.5t31.5 -41.5q26 0 41 25.5t20.5 62t12.5 73t25 62t49 25.5q53 0 48 -52
q-5 -50 -50 -98q-8 -9 -17 -16q-5 -26 6.5 -55t36.5 -29q21 0 35.5 23.5t20 62t7.5 73.5t2 74t1 47q-5 0 -23.5 -1.5t-30.5 -0.5t-28 4t-26.5 13t-14.5 26q-6 27 1.5 31t30.5 -6q15 -6 25 -9t28.5 -6.5t35.5 -3.5q0 27 7 40.5t27 13.5q37 0 37 -54l95 2q0 52 36 52
q16 0 26 -14t9 -36zM571 479q0 -5 -3 -80.5t2 -129t22 -54.5q19 -1 33 21t21 60t10.5 71t5.5 70.5t2 41.5h-93zM391 311q16 13 32 49t7 43q-12 12 -26 -26q-13 -36 -13 -66zM874 311q39 18 52 60q4 20 1 28.5t-14 6.5q-13 -3 -25 -37.5t-14 -57.5zM653 16v50h13v-50h-13z
M514 61v-10h8v-8h-8v-12q0 -7 8 -4v-11q-12 -4 -18 2q-2 3 -2 25h-4v8h4v6zM979 53q10 0 10 -16v-21h-8v19q0 6 -3.5 7.5t-7 -1.5t-3.5 -6v-19h-11v19q0 8 -6 8t-6 -6v-21h-10v35h8l2 -2q4 5 12 4t9 -8q5 8 14 8zM631 53q16 0 16 -16v-21h-14v19q0 4 -2 6t-4.5 1.5
t-3.5 -3.5v-23h-15v35h13l2 -2q4 4 8 4zM821 45q5 8 17 8v-12q-4 1 -9.5 -0.5t-5.5 -3.5v-21h-10v35h8v-6zM690 53q19 0 19 -22h-23q0 -13 19 -4l4 -9q-12 -6 -24.5 -1t-12.5 16q0 20 18 20zM909 53q19 0 19 -19.5t-19 -19.5q-13 0 -18 10t0 19.5t18 9.5zM866 35q0 -8 21 -8
v-9q-26 -8 -32 10q-5 15 11 22q9 4 21 1v-10q-5 3 -13 1.5t-8 -7.5zM590 16v35h10v-35h-10zM348 27l4 24h10l-8 -35h-10l-8 23l-6 -23h-11l-10 35h13l4 -24l6 24h10zM686 37h12q0 6 -6 6t-6 -6zM909 25q7 0 7 9t-7 9t-9 -4.5t0.5 -9t8.5 -4.5zM842 29q6 0 6 -7.5t-6 -7.5
t-6 7.5t6 7.5zM485 29q7 0 7 -7.5t-7 -7.5q-6 0 -6 7.5t6 7.5zM403 27l5 24h12l-10 -35h-11l-6 23l-8 -23h-10l-8 35h10l4 -24l6 24h10zM459 27l6 24h10l-8 -35h-12l-6 23l-7 -23h-12l-8 35h10l4 -24l8 24h9zM567 27l4 24h11l-9 -35h-10l-8 23l-6 -23h-10l-11 35h13l4 -24
l6 24h8zM594 66q6 0 6 -6.5t-6 -6.5q-5 0 -7 3.5t0 6.5t7 3zM788 53q19 0 19 -22h-23q0 -13 19 -4l4 -9q-13 -6 -25 -1.5t-12 16.5q0 20 18 20zM784 37h13q0 6 -6.5 6t-6.5 -6z" />
    <glyph glyph-name="seven" unicode="7" horiz-adv-x="1204" 
d="M389 983q-26 0 -56 -1.5t-45 -2t-37.5 2t-47.5 9.5q-80 22 -131.5 96.5t-51.5 169.5q0 115 72.5 197t173.5 82h682q101 0 173.5 -72.5t72.5 -173.5q0 -61 -104.5 -335.5t-185.5 -466.5t-122 -285q-41 -95 -136 -149t-181 -54q-89 0 -162 38t-109.5 110t-15.5 159
q28 124 58 211zM293 1503q-38 0 -69.5 -8t-63 -29.5t-52 -65.5t-26.5 -108q12 55 38 96.5t55 62.5t56 33.5t45 15.5z" />
    <glyph glyph-name="eight" unicode="8" horiz-adv-x="1345" 
d="M659 -31q-141 0 -262.5 48.5t-203 130t-127.5 189t-46 226.5q0 209 140 365q-27 80 -27 168q0 126 76 230.5t202.5 163t272.5 58.5q236 0 390.5 -135t154.5 -336q0 -82 -29 -164q125 -156 125 -372q0 -162 -89.5 -294t-242 -205t-334.5 -73zM684 1495
q-193 1 -299.5 -108.5t-114.5 -288.5q26 89 60 154t69 105t84.5 68t92.5 42t108 28zM637 1108q0 -21 13.5 -37t33.5 -16q53 0 53 53q0 49 -53 49q-47 0 -47 -49zM623 545q0 -26 18 -48t43 -22q68 0 68 70q0 31 -18 49t-50 18q-61 0 -61 -67z" />
    <glyph glyph-name="nine" unicode="9" 
d="M758 61v-10h8v-8h-8v-12q0 -8 8 -4v-11q-3 -2 -9 -1.5t-9 3.5q-3 4 -3 25h-18v-12q0 -7 10 -4v-11q-13 -3 -18 2q-2 2 -2 13v12h-4v8h4v6l10 4v-10h18v6zM612 879q-15 22 -2.5 44.5t43.5 6.5q49 -21 49 -144q0 -16 -0.5 -29t-6 -46.5t-15 -56t-31 -41.5t-51.5 -19
q-29 0 -49 17t-23 44q-8 -26 -29.5 -41.5t-41.5 -15.5q-78 0 -78 166q0 141 88 141q26 0 32.5 -17t-5.5 -36q-22 -38 -31.5 -85.5t-3.5 -79.5t24 -32q15 0 19.5 30t3 66.5t9.5 67t38 31.5q33 1 37 -64q1 -19 0 -60q-1 -73 11 -81q5 -4 13 0q29 13 29 99t-29 135zM797 586
q-39 0 -58.5 41t-19.5 98q0 16 1.5 33.5t6 46.5t17.5 47t32 18q16 0 27.5 -13.5t11.5 -39.5q0 -12 -6 -57.5t-6 -77.5q0 -37 20 -37q7 0 13.5 6t11.5 17.5t9 25t6.5 31t5 32.5t4 32.5t2 28.5t1.5 23.5t1 14.5q3 23 12.5 34t30.5 11q13 0 21 -5.5t11.5 -17t5 -24.5
t-0.5 -33.5t-4.5 -37.5t-5.5 -42t-5 -43t1 -16q9 6 28 141v4q6 38 22 56t45 18q37 0 58.5 -27t13.5 -77q-3 -16 -6 -38.5t-6 -57t0 -56.5t14 -20q15 3 29 41.5t19.5 97.5t1 123.5t-30 127t-70.5 99.5q-54 45 -118.5 45t-116 -39t-72.5 -104q-20 -62 -54 -61q-28 1 -42 41
q-11 30 -5 67q12 72 81 132.5t157 72.5q93 12 170 -40.5t115 -154.5q35 -108 31 -218t-43 -193.5t-91 -83.5q-36 0 -50.5 39.5t-10.5 87.5q1 22 6 51.5t9 49t4 36t-7 22.5q-14 11 -21 -21q-4 -16 -11 -66q-16 -125 -40 -160q-16 -23 -39 -23q-39 0 -39 65q-7 -29 -26.5 -51
t-50.5 -22zM180 905q0 -13 -10 -20t-18 -7.5t-23 -0.5q-31 0 -58.5 13.5t-27.5 39.5q0 58 81.5 87t252.5 34q161 4 209 -9q57 -16 26 -55q-22 -26 -45.5 -32t-45.5 1t-68.5 13t-98.5 0q-2 -35 -6.5 -104.5t-6.5 -112t-0.5 -95t9.5 -88.5q3 -16 9 -34t10 -28t5 -19t-4.5 -13
t-19.5 -4q-27 0 -46 17t-28.5 39t-14.5 53t-6 48t-1 36q0 90 14 303q-1 0 -22 -1l-31.5 -1.5t-32.5 -2.5t-34.5 -4.5t-27.5 -6t-22.5 -9t-7.5 -12.5q3 -13 23 -10t43.5 1.5t23.5 -16.5zM784 879q-22 0 -33.5 16t-11.5 41q0 21 11.5 36t31.5 15q21 0 32 -14.5t11 -36.5
q0 -21 -10.5 -39t-30.5 -18zM735 530h68t102.5 2t104 7.5t117.5 19t100 33.5q2 1 5 2q6 4 9.5 3t3.5 -11q0 -25 -14 -44t-32 -28.5t-47.5 -16.5t-47 -8.5t-43.5 -3.5q-133 -8 -326 -8q-17 -252 25 -252q19 0 32.5 35.5t22.5 78.5t31 78.5t55 35.5q45 0 50 -43q6 -47 -33 -91
q-20 -24 -48 -36q-1 -15 -1.5 -33.5t9 -34.5t27.5 -16q25 0 43 24t25.5 52.5t9.5 58.5q2 28 -7 54.5t-9 37.5q0 12 9.5 17t18.5 3q28 -6 42.5 -29t11.5 -52q6 28 35.5 53.5t56.5 25.5q41 0 60 -41.5t7 -86t-49 -52.5q-20 -3 -37.5 6.5t-17.5 30.5q0 11 17 11t24 7
q21 20 12 51t-39 27q-27 -5 -37.5 -47t-10 -89.5t-10.5 -85t-38 -34.5q-17 1 -27 29.5t-10 71.5q-11 -37 -33 -64.5t-55 -27.5t-59 24.5t-29 56.5q-32 -71 -68 -71q-25 0 -44 25.5t-25 52.5q-10 -31 -35.5 -56.5t-56.5 -25.5q-30 0 -54.5 23t-23.5 54q-10 -36 -34.5 -59.5
t-59.5 -23.5q-25 0 -47.5 13t-34.5 36q-26 -29 -60 -41q-61 -23 -97 18t-36 135q0 34 7.5 100t5 119.5t-22.5 112.5q-9 26 2 37.5t30 9.5t38 -12q37 -22 48.5 -79t5.5 -123t-13.5 -129t-3 -104.5t31.5 -41.5q26 0 41 25.5t20.5 62t12.5 73t25 62t49 25.5q53 0 48 -52
q-5 -50 -50 -98q-8 -9 -17 -16q-5 -26 6.5 -55t36.5 -29q21 0 35.5 23.5t20 62t7.5 73.5t2 74t1 47q-5 0 -23.5 -1.5t-30.5 -0.5t-28 4t-26.5 13t-14.5 26q-6 27 1.5 31t30.5 -6q15 -6 25 -9t28.5 -6.5t35.5 -3.5q0 27 7 40.5t27 13.5q37 0 37 -54l95 2q0 52 36 52
q16 0 26 -14t9 -36zM571 479q0 -5 -3 -80.5t2 -129t22 -54.5q19 -1 33 21t21 60t10.5 71t5.5 70.5t2 41.5h-93zM391 311q16 13 32 49t7 43q-12 12 -26 -26q-13 -36 -13 -66zM874 311q39 18 52 60q4 20 1 28.5t-14 6.5q-13 -3 -25 -37.5t-14 -57.5zM653 16v50h13v-50h-13z
M514 61v-10h8v-8h-8v-12q0 -7 8 -4v-11q-12 -4 -18 2q-2 3 -2 25h-4v8h4v6zM979 53q10 0 10 -16v-21h-8v19q0 6 -3.5 7.5t-7 -1.5t-3.5 -6v-19h-11v19q0 8 -6 8t-6 -6v-21h-10v35h8l2 -2q4 5 12 4t9 -8q5 8 14 8zM631 53q16 0 16 -16v-21h-14v19q0 4 -2 6t-4.5 1.5
t-3.5 -3.5v-23h-15v35h13l2 -2q4 4 8 4zM821 45q5 8 17 8v-12q-4 1 -9.5 -0.5t-5.5 -3.5v-21h-10v35h8v-6zM690 53q19 0 19 -22h-23q0 -13 19 -4l4 -9q-12 -6 -24.5 -1t-12.5 16q0 20 18 20zM909 53q19 0 19 -19.5t-19 -19.5q-13 0 -18 10t0 19.5t18 9.5zM866 35q0 -8 21 -8
v-9q-26 -8 -32 10q-5 15 11 22q9 4 21 1v-10q-5 3 -13 1.5t-8 -7.5zM590 16v35h10v-35h-10zM348 27l4 24h10l-8 -35h-10l-8 23l-6 -23h-11l-10 35h13l4 -24l6 24h10zM686 37h12q0 6 -6 6t-6 -6zM909 25q7 0 7 9t-7 9t-9 -4.5t0.5 -9t8.5 -4.5zM842 29q6 0 6 -7.5t-6 -7.5
t-6 7.5t6 7.5zM485 29q7 0 7 -7.5t-7 -7.5q-6 0 -6 7.5t6 7.5zM403 27l5 24h12l-10 -35h-11l-6 23l-8 -23h-10l-8 35h10l4 -24l6 24h10zM459 27l6 24h10l-8 -35h-12l-6 23l-7 -23h-12l-8 35h10l4 -24l8 24h9zM567 27l4 24h11l-9 -35h-10l-8 23l-6 -23h-10l-11 35h13l4 -24
l6 24h8zM594 66q6 0 6 -6.5t-6 -6.5q-5 0 -7 3.5t0 6.5t7 3zM788 53q19 0 19 -22h-23q0 -13 19 -4l4 -9q-13 -6 -25 -1.5t-12 16.5q0 20 18 20zM784 37h13q0 6 -6.5 6t-6.5 -6z" />
    <glyph glyph-name="colon" unicode=":" 
d="M758 61v-10h8v-8h-8v-12q0 -8 8 -4v-11q-3 -2 -9 -1.5t-9 3.5q-3 4 -3 25h-18v-12q0 -7 10 -4v-11q-13 -3 -18 2q-2 2 -2 13v12h-4v8h4v6l10 4v-10h18v6zM612 879q-15 22 -2.5 44.5t43.5 6.5q49 -21 49 -144q0 -16 -0.5 -29t-6 -46.5t-15 -56t-31 -41.5t-51.5 -19
q-29 0 -49 17t-23 44q-8 -26 -29.5 -41.5t-41.5 -15.5q-78 0 -78 166q0 141 88 141q26 0 32.5 -17t-5.5 -36q-22 -38 -31.5 -85.5t-3.5 -79.5t24 -32q15 0 19.5 30t3 66.5t9.5 67t38 31.5q33 1 37 -64q1 -19 0 -60q-1 -73 11 -81q5 -4 13 0q29 13 29 99t-29 135zM797 586
q-39 0 -58.5 41t-19.5 98q0 16 1.5 33.5t6 46.5t17.5 47t32 18q16 0 27.5 -13.5t11.5 -39.5q0 -12 -6 -57.5t-6 -77.5q0 -37 20 -37q7 0 13.5 6t11.5 17.5t9 25t6.5 31t5 32.5t4 32.5t2 28.5t1.5 23.5t1 14.5q3 23 12.5 34t30.5 11q13 0 21 -5.5t11.5 -17t5 -24.5
t-0.5 -33.5t-4.5 -37.5t-5.5 -42t-5 -43t1 -16q9 6 28 141v4q6 38 22 56t45 18q37 0 58.5 -27t13.5 -77q-3 -16 -6 -38.5t-6 -57t0 -56.5t14 -20q15 3 29 41.5t19.5 97.5t1 123.5t-30 127t-70.5 99.5q-54 45 -118.5 45t-116 -39t-72.5 -104q-20 -62 -54 -61q-28 1 -42 41
q-11 30 -5 67q12 72 81 132.5t157 72.5q93 12 170 -40.5t115 -154.5q35 -108 31 -218t-43 -193.5t-91 -83.5q-36 0 -50.5 39.5t-10.5 87.5q1 22 6 51.5t9 49t4 36t-7 22.5q-14 11 -21 -21q-4 -16 -11 -66q-16 -125 -40 -160q-16 -23 -39 -23q-39 0 -39 65q-7 -29 -26.5 -51
t-50.5 -22zM180 905q0 -13 -10 -20t-18 -7.5t-23 -0.5q-31 0 -58.5 13.5t-27.5 39.5q0 58 81.5 87t252.5 34q161 4 209 -9q57 -16 26 -55q-22 -26 -45.5 -32t-45.5 1t-68.5 13t-98.5 0q-2 -35 -6.5 -104.5t-6.5 -112t-0.5 -95t9.5 -88.5q3 -16 9 -34t10 -28t5 -19t-4.5 -13
t-19.5 -4q-27 0 -46 17t-28.5 39t-14.5 53t-6 48t-1 36q0 90 14 303q-1 0 -22 -1l-31.5 -1.5t-32.5 -2.5t-34.5 -4.5t-27.5 -6t-22.5 -9t-7.5 -12.5q3 -13 23 -10t43.5 1.5t23.5 -16.5zM784 879q-22 0 -33.5 16t-11.5 41q0 21 11.5 36t31.5 15q21 0 32 -14.5t11 -36.5
q0 -21 -10.5 -39t-30.5 -18zM735 530h68t102.5 2t104 7.5t117.5 19t100 33.5q2 1 5 2q6 4 9.5 3t3.5 -11q0 -25 -14 -44t-32 -28.5t-47.5 -16.5t-47 -8.5t-43.5 -3.5q-133 -8 -326 -8q-17 -252 25 -252q19 0 32.5 35.5t22.5 78.5t31 78.5t55 35.5q45 0 50 -43q6 -47 -33 -91
q-20 -24 -48 -36q-1 -15 -1.5 -33.5t9 -34.5t27.5 -16q25 0 43 24t25.5 52.5t9.5 58.5q2 28 -7 54.5t-9 37.5q0 12 9.5 17t18.5 3q28 -6 42.5 -29t11.5 -52q6 28 35.5 53.5t56.5 25.5q41 0 60 -41.5t7 -86t-49 -52.5q-20 -3 -37.5 6.5t-17.5 30.5q0 11 17 11t24 7
q21 20 12 51t-39 27q-27 -5 -37.5 -47t-10 -89.5t-10.5 -85t-38 -34.5q-17 1 -27 29.5t-10 71.5q-11 -37 -33 -64.5t-55 -27.5t-59 24.5t-29 56.5q-32 -71 -68 -71q-25 0 -44 25.5t-25 52.5q-10 -31 -35.5 -56.5t-56.5 -25.5q-30 0 -54.5 23t-23.5 54q-10 -36 -34.5 -59.5
t-59.5 -23.5q-25 0 -47.5 13t-34.5 36q-26 -29 -60 -41q-61 -23 -97 18t-36 135q0 34 7.5 100t5 119.5t-22.5 112.5q-9 26 2 37.5t30 9.5t38 -12q37 -22 48.5 -79t5.5 -123t-13.5 -129t-3 -104.5t31.5 -41.5q26 0 41 25.5t20.5 62t12.5 73t25 62t49 25.5q53 0 48 -52
q-5 -50 -50 -98q-8 -9 -17 -16q-5 -26 6.5 -55t36.5 -29q21 0 35.5 23.5t20 62t7.5 73.5t2 74t1 47q-5 0 -23.5 -1.5t-30.5 -0.5t-28 4t-26.5 13t-14.5 26q-6 27 1.5 31t30.5 -6q15 -6 25 -9t28.5 -6.5t35.5 -3.5q0 27 7 40.5t27 13.5q37 0 37 -54l95 2q0 52 36 52
q16 0 26 -14t9 -36zM571 479q0 -5 -3 -80.5t2 -129t22 -54.5q19 -1 33 21t21 60t10.5 71t5.5 70.5t2 41.5h-93zM391 311q16 13 32 49t7 43q-12 12 -26 -26q-13 -36 -13 -66zM874 311q39 18 52 60q4 20 1 28.5t-14 6.5q-13 -3 -25 -37.5t-14 -57.5zM653 16v50h13v-50h-13z
M514 61v-10h8v-8h-8v-12q0 -7 8 -4v-11q-12 -4 -18 2q-2 3 -2 25h-4v8h4v6zM979 53q10 0 10 -16v-21h-8v19q0 6 -3.5 7.5t-7 -1.5t-3.5 -6v-19h-11v19q0 8 -6 8t-6 -6v-21h-10v35h8l2 -2q4 5 12 4t9 -8q5 8 14 8zM631 53q16 0 16 -16v-21h-14v19q0 4 -2 6t-4.5 1.5
t-3.5 -3.5v-23h-15v35h13l2 -2q4 4 8 4zM821 45q5 8 17 8v-12q-4 1 -9.5 -0.5t-5.5 -3.5v-21h-10v35h8v-6zM690 53q19 0 19 -22h-23q0 -13 19 -4l4 -9q-12 -6 -24.5 -1t-12.5 16q0 20 18 20zM909 53q19 0 19 -19.5t-19 -19.5q-13 0 -18 10t0 19.5t18 9.5zM866 35q0 -8 21 -8
v-9q-26 -8 -32 10q-5 15 11 22q9 4 21 1v-10q-5 3 -13 1.5t-8 -7.5zM590 16v35h10v-35h-10zM348 27l4 24h10l-8 -35h-10l-8 23l-6 -23h-11l-10 35h13l4 -24l6 24h10zM686 37h12q0 6 -6 6t-6 -6zM909 25q7 0 7 9t-7 9t-9 -4.5t0.5 -9t8.5 -4.5zM842 29q6 0 6 -7.5t-6 -7.5
t-6 7.5t6 7.5zM485 29q7 0 7 -7.5t-7 -7.5q-6 0 -6 7.5t6 7.5zM403 27l5 24h12l-10 -35h-11l-6 23l-8 -23h-10l-8 35h10l4 -24l6 24h10zM459 27l6 24h10l-8 -35h-12l-6 23l-7 -23h-12l-8 35h10l4 -24l8 24h9zM567 27l4 24h11l-9 -35h-10l-8 23l-6 -23h-10l-11 35h13l4 -24
l6 24h8zM594 66q6 0 6 -6.5t-6 -6.5q-5 0 -7 3.5t0 6.5t7 3zM788 53q19 0 19 -22h-23q0 -13 19 -4l4 -9q-13 -6 -25 -1.5t-12 16.5q0 20 18 20zM784 37h13q0 6 -6.5 6t-6.5 -6z" />
    <glyph glyph-name="semicolon" unicode=";" 
d="M758 61v-10h8v-8h-8v-12q0 -8 8 -4v-11q-3 -2 -9 -1.5t-9 3.5q-3 4 -3 25h-18v-12q0 -7 10 -4v-11q-13 -3 -18 2q-2 2 -2 13v12h-4v8h4v6l10 4v-10h18v6zM612 879q-15 22 -2.5 44.5t43.5 6.5q49 -21 49 -144q0 -16 -0.5 -29t-6 -46.5t-15 -56t-31 -41.5t-51.5 -19
q-29 0 -49 17t-23 44q-8 -26 -29.5 -41.5t-41.5 -15.5q-78 0 -78 166q0 141 88 141q26 0 32.5 -17t-5.5 -36q-22 -38 -31.5 -85.5t-3.5 -79.5t24 -32q15 0 19.5 30t3 66.5t9.5 67t38 31.5q33 1 37 -64q1 -19 0 -60q-1 -73 11 -81q5 -4 13 0q29 13 29 99t-29 135zM797 586
q-39 0 -58.5 41t-19.5 98q0 16 1.5 33.5t6 46.5t17.5 47t32 18q16 0 27.5 -13.5t11.5 -39.5q0 -12 -6 -57.5t-6 -77.5q0 -37 20 -37q7 0 13.5 6t11.5 17.5t9 25t6.5 31t5 32.5t4 32.5t2 28.5t1.5 23.5t1 14.5q3 23 12.5 34t30.5 11q13 0 21 -5.5t11.5 -17t5 -24.5
t-0.5 -33.5t-4.5 -37.5t-5.5 -42t-5 -43t1 -16q9 6 28 141v4q6 38 22 56t45 18q37 0 58.5 -27t13.5 -77q-3 -16 -6 -38.5t-6 -57t0 -56.5t14 -20q15 3 29 41.5t19.5 97.5t1 123.5t-30 127t-70.5 99.5q-54 45 -118.5 45t-116 -39t-72.5 -104q-20 -62 -54 -61q-28 1 -42 41
q-11 30 -5 67q12 72 81 132.5t157 72.5q93 12 170 -40.5t115 -154.5q35 -108 31 -218t-43 -193.5t-91 -83.5q-36 0 -50.5 39.5t-10.5 87.5q1 22 6 51.5t9 49t4 36t-7 22.5q-14 11 -21 -21q-4 -16 -11 -66q-16 -125 -40 -160q-16 -23 -39 -23q-39 0 -39 65q-7 -29 -26.5 -51
t-50.5 -22zM180 905q0 -13 -10 -20t-18 -7.5t-23 -0.5q-31 0 -58.5 13.5t-27.5 39.5q0 58 81.5 87t252.5 34q161 4 209 -9q57 -16 26 -55q-22 -26 -45.5 -32t-45.5 1t-68.5 13t-98.5 0q-2 -35 -6.5 -104.5t-6.5 -112t-0.5 -95t9.5 -88.5q3 -16 9 -34t10 -28t5 -19t-4.5 -13
t-19.5 -4q-27 0 -46 17t-28.5 39t-14.5 53t-6 48t-1 36q0 90 14 303q-1 0 -22 -1l-31.5 -1.5t-32.5 -2.5t-34.5 -4.5t-27.5 -6t-22.5 -9t-7.5 -12.5q3 -13 23 -10t43.5 1.5t23.5 -16.5zM784 879q-22 0 -33.5 16t-11.5 41q0 21 11.5 36t31.5 15q21 0 32 -14.5t11 -36.5
q0 -21 -10.5 -39t-30.5 -18zM735 530h68t102.5 2t104 7.5t117.5 19t100 33.5q2 1 5 2q6 4 9.5 3t3.5 -11q0 -25 -14 -44t-32 -28.5t-47.5 -16.5t-47 -8.5t-43.5 -3.5q-133 -8 -326 -8q-17 -252 25 -252q19 0 32.5 35.5t22.5 78.5t31 78.5t55 35.5q45 0 50 -43q6 -47 -33 -91
q-20 -24 -48 -36q-1 -15 -1.5 -33.5t9 -34.5t27.5 -16q25 0 43 24t25.5 52.5t9.5 58.5q2 28 -7 54.5t-9 37.5q0 12 9.5 17t18.5 3q28 -6 42.5 -29t11.5 -52q6 28 35.5 53.5t56.5 25.5q41 0 60 -41.5t7 -86t-49 -52.5q-20 -3 -37.5 6.5t-17.5 30.5q0 11 17 11t24 7
q21 20 12 51t-39 27q-27 -5 -37.5 -47t-10 -89.5t-10.5 -85t-38 -34.5q-17 1 -27 29.5t-10 71.5q-11 -37 -33 -64.5t-55 -27.5t-59 24.5t-29 56.5q-32 -71 -68 -71q-25 0 -44 25.5t-25 52.5q-10 -31 -35.5 -56.5t-56.5 -25.5q-30 0 -54.5 23t-23.5 54q-10 -36 -34.5 -59.5
t-59.5 -23.5q-25 0 -47.5 13t-34.5 36q-26 -29 -60 -41q-61 -23 -97 18t-36 135q0 34 7.5 100t5 119.5t-22.5 112.5q-9 26 2 37.5t30 9.5t38 -12q37 -22 48.5 -79t5.5 -123t-13.5 -129t-3 -104.5t31.5 -41.5q26 0 41 25.5t20.5 62t12.5 73t25 62t49 25.5q53 0 48 -52
q-5 -50 -50 -98q-8 -9 -17 -16q-5 -26 6.5 -55t36.5 -29q21 0 35.5 23.5t20 62t7.5 73.5t2 74t1 47q-5 0 -23.5 -1.5t-30.5 -0.5t-28 4t-26.5 13t-14.5 26q-6 27 1.5 31t30.5 -6q15 -6 25 -9t28.5 -6.5t35.5 -3.5q0 27 7 40.5t27 13.5q37 0 37 -54l95 2q0 52 36 52
q16 0 26 -14t9 -36zM571 479q0 -5 -3 -80.5t2 -129t22 -54.5q19 -1 33 21t21 60t10.5 71t5.5 70.5t2 41.5h-93zM391 311q16 13 32 49t7 43q-12 12 -26 -26q-13 -36 -13 -66zM874 311q39 18 52 60q4 20 1 28.5t-14 6.5q-13 -3 -25 -37.5t-14 -57.5zM653 16v50h13v-50h-13z
M514 61v-10h8v-8h-8v-12q0 -7 8 -4v-11q-12 -4 -18 2q-2 3 -2 25h-4v8h4v6zM979 53q10 0 10 -16v-21h-8v19q0 6 -3.5 7.5t-7 -1.5t-3.5 -6v-19h-11v19q0 8 -6 8t-6 -6v-21h-10v35h8l2 -2q4 5 12 4t9 -8q5 8 14 8zM631 53q16 0 16 -16v-21h-14v19q0 4 -2 6t-4.5 1.5
t-3.5 -3.5v-23h-15v35h13l2 -2q4 4 8 4zM821 45q5 8 17 8v-12q-4 1 -9.5 -0.5t-5.5 -3.5v-21h-10v35h8v-6zM690 53q19 0 19 -22h-23q0 -13 19 -4l4 -9q-12 -6 -24.5 -1t-12.5 16q0 20 18 20zM909 53q19 0 19 -19.5t-19 -19.5q-13 0 -18 10t0 19.5t18 9.5zM866 35q0 -8 21 -8
v-9q-26 -8 -32 10q-5 15 11 22q9 4 21 1v-10q-5 3 -13 1.5t-8 -7.5zM590 16v35h10v-35h-10zM348 27l4 24h10l-8 -35h-10l-8 23l-6 -23h-11l-10 35h13l4 -24l6 24h10zM686 37h12q0 6 -6 6t-6 -6zM909 25q7 0 7 9t-7 9t-9 -4.5t0.5 -9t8.5 -4.5zM842 29q6 0 6 -7.5t-6 -7.5
t-6 7.5t6 7.5zM485 29q7 0 7 -7.5t-7 -7.5q-6 0 -6 7.5t6 7.5zM403 27l5 24h12l-10 -35h-11l-6 23l-8 -23h-10l-8 35h10l4 -24l6 24h10zM459 27l6 24h10l-8 -35h-12l-6 23l-7 -23h-12l-8 35h10l4 -24l8 24h9zM567 27l4 24h11l-9 -35h-10l-8 23l-6 -23h-10l-11 35h13l4 -24
l6 24h8zM594 66q6 0 6 -6.5t-6 -6.5q-5 0 -7 3.5t0 6.5t7 3zM788 53q19 0 19 -22h-23q0 -13 19 -4l4 -9q-13 -6 -25 -1.5t-12 16.5q0 20 18 20zM784 37h13q0 6 -6.5 6t-6.5 -6z" />
    <glyph glyph-name="less" unicode="&#x3c;" horiz-adv-x="1167" 
d="M20 733q0 73 74.5 156t186.5 152t235 126.5t228 90t157 32.5q101 0 173.5 -72.5t72.5 -173.5q0 -34 -8.5 -64.5t-21 -53.5t-35.5 -45.5t-41.5 -37t-51.5 -32t-53 -27t-57 -26.5t-54 -25q17 -8 54 -25t57 -26.5t53 -27t51.5 -32t41.5 -37t35.5 -45.5t21 -53.5t8.5 -64.5
q0 -101 -72.5 -173.5t-173.5 -72.5q-72 0 -219 59.5t-294 143t-257.5 183.5t-110.5 171zM903 1243q-111 0 -257 -57.5t-253 -125.5t-157 -120q154 116 331 192.5t336 110.5z" />
    <glyph glyph-name="equal" unicode="=" horiz-adv-x="952" 
d="M205 696q-95 0 -140 51.5t-45 133.5q0 83 44.5 133.5t140.5 50.5h543q96 0 140 -50.5t44 -133.5q0 -82 -44.5 -133.5t-139.5 -51.5h-543zM229 1042q-38 0 -65 -6t-53.5 -23.5t-43 -54.5t-22.5 -94q12 51 35.5 88t48 53.5t47.5 26t38 10.5h15zM205 270q-95 0 -140 51.5
t-45 133.5q0 83 44.5 133.5t140.5 50.5h543q96 0 140 -50.5t44 -133.5q0 -82 -44.5 -133.5t-139.5 -51.5h-543z" />
    <glyph glyph-name="greater" unicode="&#x3e;" 
d="M758 61v-10h8v-8h-8v-12q0 -8 8 -4v-11q-3 -2 -9 -1.5t-9 3.5q-3 4 -3 25h-18v-12q0 -7 10 -4v-11q-13 -3 -18 2q-2 2 -2 13v12h-4v8h4v6l10 4v-10h18v6zM612 879q-15 22 -2.5 44.5t43.5 6.5q49 -21 49 -144q0 -16 -0.5 -29t-6 -46.5t-15 -56t-31 -41.5t-51.5 -19
q-29 0 -49 17t-23 44q-8 -26 -29.5 -41.5t-41.5 -15.5q-78 0 -78 166q0 141 88 141q26 0 32.5 -17t-5.5 -36q-22 -38 -31.5 -85.5t-3.5 -79.5t24 -32q15 0 19.5 30t3 66.5t9.5 67t38 31.5q33 1 37 -64q1 -19 0 -60q-1 -73 11 -81q5 -4 13 0q29 13 29 99t-29 135zM797 586
q-39 0 -58.5 41t-19.5 98q0 16 1.5 33.5t6 46.5t17.5 47t32 18q16 0 27.5 -13.5t11.5 -39.5q0 -12 -6 -57.5t-6 -77.5q0 -37 20 -37q7 0 13.5 6t11.5 17.5t9 25t6.5 31t5 32.5t4 32.5t2 28.5t1.5 23.5t1 14.5q3 23 12.5 34t30.5 11q13 0 21 -5.5t11.5 -17t5 -24.5
t-0.5 -33.5t-4.5 -37.5t-5.5 -42t-5 -43t1 -16q9 6 28 141v4q6 38 22 56t45 18q37 0 58.5 -27t13.5 -77q-3 -16 -6 -38.5t-6 -57t0 -56.5t14 -20q15 3 29 41.5t19.5 97.5t1 123.5t-30 127t-70.5 99.5q-54 45 -118.5 45t-116 -39t-72.5 -104q-20 -62 -54 -61q-28 1 -42 41
q-11 30 -5 67q12 72 81 132.5t157 72.5q93 12 170 -40.5t115 -154.5q35 -108 31 -218t-43 -193.5t-91 -83.5q-36 0 -50.5 39.5t-10.5 87.5q1 22 6 51.5t9 49t4 36t-7 22.5q-14 11 -21 -21q-4 -16 -11 -66q-16 -125 -40 -160q-16 -23 -39 -23q-39 0 -39 65q-7 -29 -26.5 -51
t-50.5 -22zM180 905q0 -13 -10 -20t-18 -7.5t-23 -0.5q-31 0 -58.5 13.5t-27.5 39.5q0 58 81.5 87t252.5 34q161 4 209 -9q57 -16 26 -55q-22 -26 -45.5 -32t-45.5 1t-68.5 13t-98.5 0q-2 -35 -6.5 -104.5t-6.5 -112t-0.5 -95t9.5 -88.5q3 -16 9 -34t10 -28t5 -19t-4.5 -13
t-19.5 -4q-27 0 -46 17t-28.5 39t-14.5 53t-6 48t-1 36q0 90 14 303q-1 0 -22 -1l-31.5 -1.5t-32.5 -2.5t-34.5 -4.5t-27.5 -6t-22.5 -9t-7.5 -12.5q3 -13 23 -10t43.5 1.5t23.5 -16.5zM784 879q-22 0 -33.5 16t-11.5 41q0 21 11.5 36t31.5 15q21 0 32 -14.5t11 -36.5
q0 -21 -10.5 -39t-30.5 -18zM735 530h68t102.5 2t104 7.5t117.5 19t100 33.5q2 1 5 2q6 4 9.5 3t3.5 -11q0 -25 -14 -44t-32 -28.5t-47.5 -16.5t-47 -8.5t-43.5 -3.5q-133 -8 -326 -8q-17 -252 25 -252q19 0 32.5 35.5t22.5 78.5t31 78.5t55 35.5q45 0 50 -43q6 -47 -33 -91
q-20 -24 -48 -36q-1 -15 -1.5 -33.5t9 -34.5t27.5 -16q25 0 43 24t25.5 52.5t9.5 58.5q2 28 -7 54.5t-9 37.5q0 12 9.5 17t18.5 3q28 -6 42.5 -29t11.5 -52q6 28 35.5 53.5t56.5 25.5q41 0 60 -41.5t7 -86t-49 -52.5q-20 -3 -37.5 6.5t-17.5 30.5q0 11 17 11t24 7
q21 20 12 51t-39 27q-27 -5 -37.5 -47t-10 -89.5t-10.5 -85t-38 -34.5q-17 1 -27 29.5t-10 71.5q-11 -37 -33 -64.5t-55 -27.5t-59 24.5t-29 56.5q-32 -71 -68 -71q-25 0 -44 25.5t-25 52.5q-10 -31 -35.5 -56.5t-56.5 -25.5q-30 0 -54.5 23t-23.5 54q-10 -36 -34.5 -59.5
t-59.5 -23.5q-25 0 -47.5 13t-34.5 36q-26 -29 -60 -41q-61 -23 -97 18t-36 135q0 34 7.5 100t5 119.5t-22.5 112.5q-9 26 2 37.5t30 9.5t38 -12q37 -22 48.5 -79t5.5 -123t-13.5 -129t-3 -104.5t31.5 -41.5q26 0 41 25.5t20.5 62t12.5 73t25 62t49 25.5q53 0 48 -52
q-5 -50 -50 -98q-8 -9 -17 -16q-5 -26 6.5 -55t36.5 -29q21 0 35.5 23.5t20 62t7.5 73.5t2 74t1 47q-5 0 -23.5 -1.5t-30.5 -0.5t-28 4t-26.5 13t-14.5 26q-6 27 1.5 31t30.5 -6q15 -6 25 -9t28.5 -6.5t35.5 -3.5q0 27 7 40.5t27 13.5q37 0 37 -54l95 2q0 52 36 52
q16 0 26 -14t9 -36zM571 479q0 -5 -3 -80.5t2 -129t22 -54.5q19 -1 33 21t21 60t10.5 71t5.5 70.5t2 41.5h-93zM391 311q16 13 32 49t7 43q-12 12 -26 -26q-13 -36 -13 -66zM874 311q39 18 52 60q4 20 1 28.5t-14 6.5q-13 -3 -25 -37.5t-14 -57.5zM653 16v50h13v-50h-13z
M514 61v-10h8v-8h-8v-12q0 -7 8 -4v-11q-12 -4 -18 2q-2 3 -2 25h-4v8h4v6zM979 53q10 0 10 -16v-21h-8v19q0 6 -3.5 7.5t-7 -1.5t-3.5 -6v-19h-11v19q0 8 -6 8t-6 -6v-21h-10v35h8l2 -2q4 5 12 4t9 -8q5 8 14 8zM631 53q16 0 16 -16v-21h-14v19q0 4 -2 6t-4.5 1.5
t-3.5 -3.5v-23h-15v35h13l2 -2q4 4 8 4zM821 45q5 8 17 8v-12q-4 1 -9.5 -0.5t-5.5 -3.5v-21h-10v35h8v-6zM690 53q19 0 19 -22h-23q0 -13 19 -4l4 -9q-12 -6 -24.5 -1t-12.5 16q0 20 18 20zM909 53q19 0 19 -19.5t-19 -19.5q-13 0 -18 10t0 19.5t18 9.5zM866 35q0 -8 21 -8
v-9q-26 -8 -32 10q-5 15 11 22q9 4 21 1v-10q-5 3 -13 1.5t-8 -7.5zM590 16v35h10v-35h-10zM348 27l4 24h10l-8 -35h-10l-8 23l-6 -23h-11l-10 35h13l4 -24l6 24h10zM686 37h12q0 6 -6 6t-6 -6zM909 25q7 0 7 9t-7 9t-9 -4.5t0.5 -9t8.5 -4.5zM842 29q6 0 6 -7.5t-6 -7.5
t-6 7.5t6 7.5zM485 29q7 0 7 -7.5t-7 -7.5q-6 0 -6 7.5t6 7.5zM403 27l5 24h12l-10 -35h-11l-6 23l-8 -23h-10l-8 35h10l4 -24l6 24h10zM459 27l6 24h10l-8 -35h-12l-6 23l-7 -23h-12l-8 35h10l4 -24l8 24h9zM567 27l4 24h11l-9 -35h-10l-8 23l-6 -23h-10l-11 35h13l4 -24
l6 24h8zM594 66q6 0 6 -6.5t-6 -6.5q-5 0 -7 3.5t0 6.5t7 3zM788 53q19 0 19 -22h-23q0 -13 19 -4l4 -9q-13 -6 -25 -1.5t-12 16.5q0 20 18 20zM784 37h13q0 6 -6.5 6t-6.5 -6z" />
    <glyph glyph-name="question" unicode="?" 
d="M758 61v-10h8v-8h-8v-12q0 -8 8 -4v-11q-3 -2 -9 -1.5t-9 3.5q-3 4 -3 25h-18v-12q0 -7 10 -4v-11q-13 -3 -18 2q-2 2 -2 13v12h-4v8h4v6l10 4v-10h18v6zM612 879q-15 22 -2.5 44.5t43.5 6.5q49 -21 49 -144q0 -16 -0.5 -29t-6 -46.5t-15 -56t-31 -41.5t-51.5 -19
q-29 0 -49 17t-23 44q-8 -26 -29.5 -41.5t-41.5 -15.5q-78 0 -78 166q0 141 88 141q26 0 32.5 -17t-5.5 -36q-22 -38 -31.5 -85.5t-3.5 -79.5t24 -32q15 0 19.5 30t3 66.5t9.5 67t38 31.5q33 1 37 -64q1 -19 0 -60q-1 -73 11 -81q5 -4 13 0q29 13 29 99t-29 135zM797 586
q-39 0 -58.5 41t-19.5 98q0 16 1.5 33.5t6 46.5t17.5 47t32 18q16 0 27.5 -13.5t11.5 -39.5q0 -12 -6 -57.5t-6 -77.5q0 -37 20 -37q7 0 13.5 6t11.5 17.5t9 25t6.5 31t5 32.5t4 32.5t2 28.5t1.5 23.5t1 14.5q3 23 12.5 34t30.5 11q13 0 21 -5.5t11.5 -17t5 -24.5
t-0.5 -33.5t-4.5 -37.5t-5.5 -42t-5 -43t1 -16q9 6 28 141v4q6 38 22 56t45 18q37 0 58.5 -27t13.5 -77q-3 -16 -6 -38.5t-6 -57t0 -56.5t14 -20q15 3 29 41.5t19.5 97.5t1 123.5t-30 127t-70.5 99.5q-54 45 -118.5 45t-116 -39t-72.5 -104q-20 -62 -54 -61q-28 1 -42 41
q-11 30 -5 67q12 72 81 132.5t157 72.5q93 12 170 -40.5t115 -154.5q35 -108 31 -218t-43 -193.5t-91 -83.5q-36 0 -50.5 39.5t-10.5 87.5q1 22 6 51.5t9 49t4 36t-7 22.5q-14 11 -21 -21q-4 -16 -11 -66q-16 -125 -40 -160q-16 -23 -39 -23q-39 0 -39 65q-7 -29 -26.5 -51
t-50.5 -22zM180 905q0 -13 -10 -20t-18 -7.5t-23 -0.5q-31 0 -58.5 13.5t-27.5 39.5q0 58 81.5 87t252.5 34q161 4 209 -9q57 -16 26 -55q-22 -26 -45.5 -32t-45.5 1t-68.5 13t-98.5 0q-2 -35 -6.5 -104.5t-6.5 -112t-0.5 -95t9.5 -88.5q3 -16 9 -34t10 -28t5 -19t-4.5 -13
t-19.5 -4q-27 0 -46 17t-28.5 39t-14.5 53t-6 48t-1 36q0 90 14 303q-1 0 -22 -1l-31.5 -1.5t-32.5 -2.5t-34.5 -4.5t-27.5 -6t-22.5 -9t-7.5 -12.5q3 -13 23 -10t43.5 1.5t23.5 -16.5zM784 879q-22 0 -33.5 16t-11.5 41q0 21 11.5 36t31.5 15q21 0 32 -14.5t11 -36.5
q0 -21 -10.5 -39t-30.5 -18zM735 530h68t102.5 2t104 7.5t117.5 19t100 33.5q2 1 5 2q6 4 9.5 3t3.5 -11q0 -25 -14 -44t-32 -28.5t-47.5 -16.5t-47 -8.5t-43.5 -3.5q-133 -8 -326 -8q-17 -252 25 -252q19 0 32.5 35.5t22.5 78.5t31 78.5t55 35.5q45 0 50 -43q6 -47 -33 -91
q-20 -24 -48 -36q-1 -15 -1.5 -33.5t9 -34.5t27.5 -16q25 0 43 24t25.5 52.5t9.5 58.5q2 28 -7 54.5t-9 37.5q0 12 9.5 17t18.5 3q28 -6 42.5 -29t11.5 -52q6 28 35.5 53.5t56.5 25.5q41 0 60 -41.5t7 -86t-49 -52.5q-20 -3 -37.5 6.5t-17.5 30.5q0 11 17 11t24 7
q21 20 12 51t-39 27q-27 -5 -37.5 -47t-10 -89.5t-10.5 -85t-38 -34.5q-17 1 -27 29.5t-10 71.5q-11 -37 -33 -64.5t-55 -27.5t-59 24.5t-29 56.5q-32 -71 -68 -71q-25 0 -44 25.5t-25 52.5q-10 -31 -35.5 -56.5t-56.5 -25.5q-30 0 -54.5 23t-23.5 54q-10 -36 -34.5 -59.5
t-59.5 -23.5q-25 0 -47.5 13t-34.5 36q-26 -29 -60 -41q-61 -23 -97 18t-36 135q0 34 7.5 100t5 119.5t-22.5 112.5q-9 26 2 37.5t30 9.5t38 -12q37 -22 48.5 -79t5.5 -123t-13.5 -129t-3 -104.5t31.5 -41.5q26 0 41 25.5t20.5 62t12.5 73t25 62t49 25.5q53 0 48 -52
q-5 -50 -50 -98q-8 -9 -17 -16q-5 -26 6.5 -55t36.5 -29q21 0 35.5 23.5t20 62t7.5 73.5t2 74t1 47q-5 0 -23.5 -1.5t-30.5 -0.5t-28 4t-26.5 13t-14.5 26q-6 27 1.5 31t30.5 -6q15 -6 25 -9t28.5 -6.5t35.5 -3.5q0 27 7 40.5t27 13.5q37 0 37 -54l95 2q0 52 36 52
q16 0 26 -14t9 -36zM571 479q0 -5 -3 -80.5t2 -129t22 -54.5q19 -1 33 21t21 60t10.5 71t5.5 70.5t2 41.5h-93zM391 311q16 13 32 49t7 43q-12 12 -26 -26q-13 -36 -13 -66zM874 311q39 18 52 60q4 20 1 28.5t-14 6.5q-13 -3 -25 -37.5t-14 -57.5zM653 16v50h13v-50h-13z
M514 61v-10h8v-8h-8v-12q0 -7 8 -4v-11q-12 -4 -18 2q-2 3 -2 25h-4v8h4v6zM979 53q10 0 10 -16v-21h-8v19q0 6 -3.5 7.5t-7 -1.5t-3.5 -6v-19h-11v19q0 8 -6 8t-6 -6v-21h-10v35h8l2 -2q4 5 12 4t9 -8q5 8 14 8zM631 53q16 0 16 -16v-21h-14v19q0 4 -2 6t-4.5 1.5
t-3.5 -3.5v-23h-15v35h13l2 -2q4 4 8 4zM821 45q5 8 17 8v-12q-4 1 -9.5 -0.5t-5.5 -3.5v-21h-10v35h8v-6zM690 53q19 0 19 -22h-23q0 -13 19 -4l4 -9q-12 -6 -24.5 -1t-12.5 16q0 20 18 20zM909 53q19 0 19 -19.5t-19 -19.5q-13 0 -18 10t0 19.5t18 9.5zM866 35q0 -8 21 -8
v-9q-26 -8 -32 10q-5 15 11 22q9 4 21 1v-10q-5 3 -13 1.5t-8 -7.5zM590 16v35h10v-35h-10zM348 27l4 24h10l-8 -35h-10l-8 23l-6 -23h-11l-10 35h13l4 -24l6 24h10zM686 37h12q0 6 -6 6t-6 -6zM909 25q7 0 7 9t-7 9t-9 -4.5t0.5 -9t8.5 -4.5zM842 29q6 0 6 -7.5t-6 -7.5
t-6 7.5t6 7.5zM485 29q7 0 7 -7.5t-7 -7.5q-6 0 -6 7.5t6 7.5zM403 27l5 24h12l-10 -35h-11l-6 23l-8 -23h-10l-8 35h10l4 -24l6 24h10zM459 27l6 24h10l-8 -35h-12l-6 23l-7 -23h-12l-8 35h10l4 -24l8 24h9zM567 27l4 24h11l-9 -35h-10l-8 23l-6 -23h-10l-11 35h13l4 -24
l6 24h8zM594 66q6 0 6 -6.5t-6 -6.5q-5 0 -7 3.5t0 6.5t7 3zM788 53q19 0 19 -22h-23q0 -13 19 -4l4 -9q-13 -6 -25 -1.5t-12 16.5q0 20 18 20zM784 37h13q0 6 -6.5 6t-6.5 -6z" />
    <glyph glyph-name="at" unicode="@" 
d="M758 61v-10h8v-8h-8v-12q0 -8 8 -4v-11q-3 -2 -9 -1.5t-9 3.5q-3 4 -3 25h-18v-12q0 -7 10 -4v-11q-13 -3 -18 2q-2 2 -2 13v12h-4v8h4v6l10 4v-10h18v6zM612 879q-15 22 -2.5 44.5t43.5 6.5q49 -21 49 -144q0 -16 -0.5 -29t-6 -46.5t-15 -56t-31 -41.5t-51.5 -19
q-29 0 -49 17t-23 44q-8 -26 -29.5 -41.5t-41.5 -15.5q-78 0 -78 166q0 141 88 141q26 0 32.5 -17t-5.5 -36q-22 -38 -31.5 -85.5t-3.5 -79.5t24 -32q15 0 19.5 30t3 66.5t9.5 67t38 31.5q33 1 37 -64q1 -19 0 -60q-1 -73 11 -81q5 -4 13 0q29 13 29 99t-29 135zM797 586
q-39 0 -58.5 41t-19.5 98q0 16 1.5 33.5t6 46.5t17.5 47t32 18q16 0 27.5 -13.5t11.5 -39.5q0 -12 -6 -57.5t-6 -77.5q0 -37 20 -37q7 0 13.5 6t11.5 17.5t9 25t6.5 31t5 32.5t4 32.5t2 28.5t1.5 23.5t1 14.5q3 23 12.5 34t30.5 11q13 0 21 -5.5t11.5 -17t5 -24.5
t-0.5 -33.5t-4.5 -37.5t-5.5 -42t-5 -43t1 -16q9 6 28 141v4q6 38 22 56t45 18q37 0 58.5 -27t13.5 -77q-3 -16 -6 -38.5t-6 -57t0 -56.5t14 -20q15 3 29 41.5t19.5 97.5t1 123.5t-30 127t-70.5 99.5q-54 45 -118.5 45t-116 -39t-72.5 -104q-20 -62 -54 -61q-28 1 -42 41
q-11 30 -5 67q12 72 81 132.5t157 72.5q93 12 170 -40.5t115 -154.5q35 -108 31 -218t-43 -193.5t-91 -83.5q-36 0 -50.5 39.5t-10.5 87.5q1 22 6 51.5t9 49t4 36t-7 22.5q-14 11 -21 -21q-4 -16 -11 -66q-16 -125 -40 -160q-16 -23 -39 -23q-39 0 -39 65q-7 -29 -26.5 -51
t-50.5 -22zM180 905q0 -13 -10 -20t-18 -7.5t-23 -0.5q-31 0 -58.5 13.5t-27.5 39.5q0 58 81.5 87t252.5 34q161 4 209 -9q57 -16 26 -55q-22 -26 -45.5 -32t-45.5 1t-68.5 13t-98.5 0q-2 -35 -6.5 -104.5t-6.5 -112t-0.5 -95t9.5 -88.5q3 -16 9 -34t10 -28t5 -19t-4.5 -13
t-19.5 -4q-27 0 -46 17t-28.5 39t-14.5 53t-6 48t-1 36q0 90 14 303q-1 0 -22 -1l-31.5 -1.5t-32.5 -2.5t-34.5 -4.5t-27.5 -6t-22.5 -9t-7.5 -12.5q3 -13 23 -10t43.5 1.5t23.5 -16.5zM784 879q-22 0 -33.5 16t-11.5 41q0 21 11.5 36t31.5 15q21 0 32 -14.5t11 -36.5
q0 -21 -10.5 -39t-30.5 -18zM735 530h68t102.5 2t104 7.5t117.5 19t100 33.5q2 1 5 2q6 4 9.5 3t3.5 -11q0 -25 -14 -44t-32 -28.5t-47.5 -16.5t-47 -8.5t-43.5 -3.5q-133 -8 -326 -8q-17 -252 25 -252q19 0 32.5 35.5t22.5 78.5t31 78.5t55 35.5q45 0 50 -43q6 -47 -33 -91
q-20 -24 -48 -36q-1 -15 -1.5 -33.5t9 -34.5t27.5 -16q25 0 43 24t25.5 52.5t9.5 58.5q2 28 -7 54.5t-9 37.5q0 12 9.5 17t18.5 3q28 -6 42.5 -29t11.5 -52q6 28 35.5 53.5t56.5 25.5q41 0 60 -41.5t7 -86t-49 -52.5q-20 -3 -37.5 6.5t-17.5 30.5q0 11 17 11t24 7
q21 20 12 51t-39 27q-27 -5 -37.5 -47t-10 -89.5t-10.5 -85t-38 -34.5q-17 1 -27 29.5t-10 71.5q-11 -37 -33 -64.5t-55 -27.5t-59 24.5t-29 56.5q-32 -71 -68 -71q-25 0 -44 25.5t-25 52.5q-10 -31 -35.5 -56.5t-56.5 -25.5q-30 0 -54.5 23t-23.5 54q-10 -36 -34.5 -59.5
t-59.5 -23.5q-25 0 -47.5 13t-34.5 36q-26 -29 -60 -41q-61 -23 -97 18t-36 135q0 34 7.5 100t5 119.5t-22.5 112.5q-9 26 2 37.5t30 9.5t38 -12q37 -22 48.5 -79t5.5 -123t-13.5 -129t-3 -104.5t31.5 -41.5q26 0 41 25.5t20.5 62t12.5 73t25 62t49 25.5q53 0 48 -52
q-5 -50 -50 -98q-8 -9 -17 -16q-5 -26 6.5 -55t36.5 -29q21 0 35.5 23.5t20 62t7.5 73.5t2 74t1 47q-5 0 -23.5 -1.5t-30.5 -0.5t-28 4t-26.5 13t-14.5 26q-6 27 1.5 31t30.5 -6q15 -6 25 -9t28.5 -6.5t35.5 -3.5q0 27 7 40.5t27 13.5q37 0 37 -54l95 2q0 52 36 52
q16 0 26 -14t9 -36zM571 479q0 -5 -3 -80.5t2 -129t22 -54.5q19 -1 33 21t21 60t10.5 71t5.5 70.5t2 41.5h-93zM391 311q16 13 32 49t7 43q-12 12 -26 -26q-13 -36 -13 -66zM874 311q39 18 52 60q4 20 1 28.5t-14 6.5q-13 -3 -25 -37.5t-14 -57.5zM653 16v50h13v-50h-13z
M514 61v-10h8v-8h-8v-12q0 -7 8 -4v-11q-12 -4 -18 2q-2 3 -2 25h-4v8h4v6zM979 53q10 0 10 -16v-21h-8v19q0 6 -3.5 7.5t-7 -1.5t-3.5 -6v-19h-11v19q0 8 -6 8t-6 -6v-21h-10v35h8l2 -2q4 5 12 4t9 -8q5 8 14 8zM631 53q16 0 16 -16v-21h-14v19q0 4 -2 6t-4.5 1.5
t-3.5 -3.5v-23h-15v35h13l2 -2q4 4 8 4zM821 45q5 8 17 8v-12q-4 1 -9.5 -0.5t-5.5 -3.5v-21h-10v35h8v-6zM690 53q19 0 19 -22h-23q0 -13 19 -4l4 -9q-12 -6 -24.5 -1t-12.5 16q0 20 18 20zM909 53q19 0 19 -19.5t-19 -19.5q-13 0 -18 10t0 19.5t18 9.5zM866 35q0 -8 21 -8
v-9q-26 -8 -32 10q-5 15 11 22q9 4 21 1v-10q-5 3 -13 1.5t-8 -7.5zM590 16v35h10v-35h-10zM348 27l4 24h10l-8 -35h-10l-8 23l-6 -23h-11l-10 35h13l4 -24l6 24h10zM686 37h12q0 6 -6 6t-6 -6zM909 25q7 0 7 9t-7 9t-9 -4.5t0.5 -9t8.5 -4.5zM842 29q6 0 6 -7.5t-6 -7.5
t-6 7.5t6 7.5zM485 29q7 0 7 -7.5t-7 -7.5q-6 0 -6 7.5t6 7.5zM403 27l5 24h12l-10 -35h-11l-6 23l-8 -23h-10l-8 35h10l4 -24l6 24h10zM459 27l6 24h10l-8 -35h-12l-6 23l-7 -23h-12l-8 35h10l4 -24l8 24h9zM567 27l4 24h11l-9 -35h-10l-8 23l-6 -23h-10l-11 35h13l4 -24
l6 24h8zM594 66q6 0 6 -6.5t-6 -6.5q-5 0 -7 3.5t0 6.5t7 3zM788 53q19 0 19 -22h-23q0 -13 19 -4l4 -9q-13 -6 -25 -1.5t-12 16.5q0 20 18 20zM784 37h13q0 6 -6.5 6t-6.5 -6z" />
    <glyph glyph-name="A" unicode="A" horiz-adv-x="1480" 
d="M571 115q-43 -57 -107 -89t-136 -32q-128 0 -218 90t-90 217q0 100 42.5 241t104.5 275.5t133 264t128 218t88 125.5q45 53 112 82t138 29q77 0 146.5 -32t113.5 -89q44 -54 114.5 -183t143 -289.5t124.5 -339t52 -302.5q0 -127 -90 -217t-217 -90q-73 0 -138 33t-108 90
q-180 -31 -336 -2zM766 1489q-34 0 -57 -2.5t-58.5 -16t-63 -39t-60.5 -75t-62 -119.5q36 68 80 119t81.5 75.5t70 38.5t51.5 16zM748 524q-27 -42 -54 -110q49 -3 101 0q-20 65 -47 110z" />
    <glyph glyph-name="B" unicode="B" horiz-adv-x="1398" 
d="M651 0h-266q-113 0 -196 73.5t-105 184.5q-43 226 -43 510t43 510q22 111 105 184.5t196 73.5h205q99 0 191.5 -15t182 -50.5t155.5 -89.5t106.5 -138t40.5 -190q0 -132 -45 -238q157 -144 157 -373q0 -442 -727 -442zM391 1491q-41 0 -83.5 -17.5t-80.5 -51.5t-62 -92.5
t-24 -131.5q13 57 43 108.5t64.5 83.5t67 56t54.5 34zM694 1073v-90q46 2 74 13t27 36q-2 33 -101 41zM694 537v-74h39t39.5 1t40.5 3.5t31.5 7t24.5 11.5t8 16q0 25 -48.5 31t-134.5 4z" />
    <glyph glyph-name="C" unicode="C" horiz-adv-x="1425" 
d="M793 1542q76 0 156 -13.5t160.5 -45t143.5 -76.5t102.5 -113.5t39.5 -150.5q0 -83 -36 -162t-102 -130.5t-143 -51.5q-48 0 -92.5 22t-86 44t-81.5 22q-57 0 -97 -35.5t-40 -89.5q0 -52 37.5 -89.5t99.5 -37.5q38 0 72 16.5t57 35.5t60 35.5t79 16.5q78 0 144.5 -51.5
t102.5 -130t36 -160.5q0 -85 -43 -157t-111 -118.5t-155.5 -79.5t-174 -47.5t-167.5 -14.5q-213 0 -382 103.5t-260.5 278.5t-91.5 386q0 171 63.5 320.5t169.5 252.5t246.5 162t293.5 59zM780 1491q-136 1 -264 -51.5t-231 -161t-146 -254.5q58 100 126.5 178t130 125
t136 82t127.5 51t121 31z" />
    <glyph glyph-name="D" unicode="D" horiz-adv-x="1527" 
d="M385 0q-113 0 -196 73.5t-105 184.5q-43 226 -43 510t43 510q22 111 105 184.5t196 73.5h115q126 0 228 -8t209 -29.5t189 -58t156 -96t121.5 -140.5t75.5 -195t28 -255q0 -138 -29.5 -249t-79 -189t-127.5 -135.5t-162.5 -91.5t-196.5 -54.5t-217 -27.5t-236 -7h-74z
M406 1491q-41 0 -83.5 -17.5t-80.5 -51.5t-62 -92.5t-24 -131.5q13 57 43 108.5t64.5 83.5t67 56t53.5 34zM688 938v-342h38.5t34.5 1.5t33 4.5t27.5 9t24.5 14.5t18.5 21.5t15 30t8 40t3.5 51q0 61 -9 96t-37.5 50.5t-49.5 18.5t-75 4q-21 1 -32 1z" />
    <glyph glyph-name="E" unicode="E" horiz-adv-x="1251" 
d="M55 1057l15 172q11 130 101.5 218.5t221.5 88.5h508q127 0 217 -90t90 -217q0 -110 -72.5 -197t-181.5 -106q-23 -4 -102 -4h-168v-117l254 84q53 18 96 -21t43 -98q0 -55 -40 -87t-99 -32h-254v-39h293q81 0 140.5 -46t86.5 -113.5t27 -145.5q0 -127 -89.5 -217
t-217.5 -90h-531q-131 0 -221 88.5t-102 218.5l-17 176q-24 256 2 574zM379 1491q-43 0 -83.5 -13t-79.5 -40.5t-63 -81.5t-24 -127q9 42 28 79t41.5 63t47.5 47t48.5 34.5t42.5 22.5t31 13z" />
    <glyph glyph-name="F" unicode="F" horiz-adv-x="1216" 
d="M53 1061l15 168q11 130 101.5 218.5t221.5 88.5h508q127 0 217 -90t90 -217q0 -110 -72.5 -197t-181.5 -106q-33 -6 -102 -6q-19 0 -76.5 1t-91.5 1l-2 -117l256 63q53 13 96 -33t43 -106q0 -57 -41 -98t-98 -41h-254v-92q0 -21 1.5 -67.5t1 -82t-4.5 -67.5
q-12 -120 -98.5 -200.5t-206.5 -80.5q-125 0 -210.5 88.5t-96.5 218.5l-17 180q-22 275 2 574zM379 1491q-43 0 -83.5 -13t-79.5 -40.5t-63 -81.5t-24 -127q9 42 28 79t41.5 63t47.5 47t48.5 34.5t42.5 22.5t31 13z" />
    <glyph glyph-name="G" unicode="G" horiz-adv-x="1425" 
d="M805 1542q321 0 422 -184q37 -67 37 -146q0 -284 -228 -284h-229q-71 0 -121.5 -40.5t-50.5 -109.5q0 -93 31 -138.5t118 -45.5q22 0 47 6t48.5 24t23.5 44q-27 1 -57.5 -8.5t-49.5 -17.5t-43 -2.5t-46 32.5q-25 32 -25 82q0 57 40 98t97 41h447q57 0 98 -41t41 -98v-377
q0 -21 -2 -29q-11 -82 -70 -153q-36 -42 -86 -74q-205 -141 -469 -141q-155 0 -297 57q-154 63 -259.5 177.5t-153.5 257.5t-48 312q0 158 63.5 299.5t170.5 241.5t251 158.5t300 58.5zM780 1491q-136 1 -264 -51.5t-231 -161t-146 -254.5q58 100 126.5 178t130 125t136 82
t127.5 51t121 31z" />
    <glyph glyph-name="H" unicode="H" horiz-adv-x="1429" 
d="M1346 258q-22 -111 -105.5 -184.5t-196.5 -73.5q-128 0 -217.5 90t-89.5 217v307h-45v-307q0 -127 -90 -217t-217 -90q-113 0 -196 73.5t-105 184.5q-43 226 -43 510t43 510q22 111 105 184.5t196 73.5q127 0 217 -90t90 -217v-367h45v367q0 127 89.5 217t217.5 90
q113 0 196.5 -73.5t105.5 -184.5q43 -226 43 -510t-43 -510zM381 1491q-43 0 -83.5 -13t-79.5 -40.5t-63 -81.5t-24 -127q9 42 28 79t41.5 63t47.5 47t48.5 34.5t42.5 22.5t31 13zM1044 1491q-33 0 -66 -7.5t-66.5 -26t-59 -47.5t-41.5 -75.5t-16 -105.5q13 57 43 105.5
t64.5 76t66.5 47t53 26.5z" />
    <glyph glyph-name="I" unicode="I" horiz-adv-x="940" 
d="M780 508l-2 -29q59 -33 95 -92.5t36 -130.5q0 -106 -75 -181t-181 -75h-366q-106 0 -181 75t-75 181q0 137 133 225l-2 27q-18 260 -2 491l4 56q-61 33 -97 93.5t-36 131.5q0 106 75 181t181 75h366q106 0 181 -75t75 -181q0 -140 -131 -223l4 -58q16 -231 -2 -491z
M287 1491q-33 0 -56.5 -3t-53.5 -15t-49 -33.5t-34 -62t-18 -97.5q12 54 38 95.5t55 62.5t56 34t45 16z" />
    <glyph glyph-name="J" unicode="J" horiz-adv-x="1320" 
d="M584 -18q-73 0 -151.5 17t-154 53t-135.5 85.5t-96.5 120.5t-36.5 152q0 128 90 217.5t217 89.5q52 0 96.5 -19t69.5 -41.5t52 -41.5t49 -19q17 0 30.5 3.5t22 7.5t14.5 14.5t9 17t4.5 23t2 24t0 29.5t-0.5 30l-2 418q0 74 17.5 138t53.5 116.5t97 82.5t141 30
q127 0 217 -90t90 -217v-484q0 -164 -45 -301.5t-131 -239.5t-219 -159t-301 -57zM975 1491q-43 0 -83.5 -13t-79.5 -40.5t-63 -81.5t-24 -127q9 42 28 79t41.5 63t47.5 47t48.5 34.5t42.5 22.5t31 13z" />
    <glyph glyph-name="K" unicode="K" horiz-adv-x="1421" 
d="M692 1229v-142q52 24 87.5 83.5t66.5 183.5q22 84 91.5 137t156.5 53q55 0 106 -15t95 -44.5t70 -80.5t26 -116q0 -139 -53 -265t-152 -222q108 -116 155.5 -248.5t47.5 -296.5q0 -73 -26 -125t-70.5 -79.5t-94 -39.5t-106.5 -12q-87 0 -156.5 53t-91.5 137
q-54 207 -67 238q-18 45 -46 53q-13 4 -39 4v-178q0 -127 -90 -217t-217 -90q-113 0 -196 73.5t-105 184.5q-43 226 -43 510t43 510q22 111 105 184.5t196 73.5q127 0 217 -90t90 -217zM389 1495q-43 0 -83.5 -13t-79.5 -40.5t-63 -81.5t-24 -127q9 42 28 79t41.5 63
t47.5 47t48.5 34.5t42.5 22.5t31 13z" />
    <glyph glyph-name="L" unicode="L" horiz-adv-x="1218" 
d="M57 1098q4 50 9.5 88t16 86t25.5 83t39 71t55 58.5t75.5 37t99.5 14.5q79 0 139 -36t95.5 -87.5t56.5 -135t29 -152t6.5 -167.5t-5 -150.5t-10.5 -131.5l-4 -62l270 -4q71 -1 130.5 -46t91.5 -114t32 -143q0 -127 -90 -217t-217 -90h-508q-62 0 -111.5 16.5t-83 41
t-58.5 65.5t-39 78.5t-24 91t-14 92.5t-9 93q-1 9 -1 14q-25 280 4 606zM375 1491q-43 0 -83.5 -13t-79.5 -40.5t-63 -81.5t-24 -127q9 42 28 79t41.5 63t47.5 47t48.5 34.5t42.5 22.5t31 13z" />
    <glyph glyph-name="M" unicode="M" horiz-adv-x="1830" 
d="M674 459q-2 -21 -5.5 -68t-6.5 -68.5t-9 -60.5t-16 -61.5t-25.5 -52t-39.5 -53t-56 -44.5q-76 -51 -168 -51q-128 0 -217.5 90t-89.5 217q0 66 2 142t11 201.5t23.5 238.5t43 235t66 210t95 145t128.5 57q127 0 204 -31q142 -56 217.5 -196.5t75.5 -350.5q6 86 29 169
t62.5 159t101 134t137.5 83q104 33 184 33q54 0 101.5 -35t81.5 -94t62.5 -141t47.5 -169t33.5 -186.5t22 -186.5t12.5 -174.5t6.5 -144t1.5 -102.5q0 -127 -90 -217t-217 -90q-92 0 -168 51q-33 22 -58 48.5t-41 58.5t-26.5 60t-16.5 69.5t-8.5 68.5t-6 74t-5.5 72
q-12 -22 -33.5 -69.5t-39 -80t-43.5 -68.5t-60 -54.5t-76 -18.5q-39 0 -70 15t-54.5 46t-38 56.5t-34.5 71t-30 63.5zM1427 1509q-44 -3 -69.5 -6.5t-61.5 -14t-62.5 -30t-60 -52t-67 -82t-70.5 -118.5q104 148 191.5 212t199.5 91zM453 1497q-122 -12 -187 -91.5
t-108 -281.5q61 165 91 217q54 95 147 136q26 11 57 20z" />
    <glyph glyph-name="N" unicode="N" horiz-adv-x="1468" 
d="M1083 0q-166 0 -262 145q-34 52 -60 147t-42.5 179.5t-26.5 103.5v-268q0 -127 -90 -217t-217 -90q-113 0 -196 73.5t-105 184.5q-43 226 -43 510t43 510q22 111 105 184.5t196 73.5q82 0 150 -38.5t110 -104.5q26 -37 71.5 -169t59.5 -159v164q0 127 90 217t217 90
q113 0 196 -73.5t105 -184.5q43 -226 43 -510t-43 -510q-22 -111 -105 -184.5t-196 -73.5zM1083 1491q-33 0 -66 -7.5t-66.5 -26t-59 -47.5t-41.5 -75.5t-16 -105.5q13 57 43 105.5t64.5 76t66.5 47t54 26.5zM377 1491q-43 0 -83.5 -13t-79.5 -40.5t-63 -81.5t-24 -127
q9 42 28 79t41.5 63t47.5 47t48.5 34.5t42.5 22.5t31 13z" />
    <glyph glyph-name="O" unicode="O" horiz-adv-x="1609" 
d="M786 -31q-170 0 -315 66.5t-243 178.5t-153 260.5t-55 311.5q0 159 64 301.5t171.5 243t252.5 159t303 58.5q167 0 312 -61t247 -166.5t160.5 -252t58.5 -312.5q0 -224 -108.5 -405t-292 -281.5t-402.5 -100.5zM786 1491q-136 1 -264 -51.5t-231 -161t-146 -254.5
q58 100 126.5 178t130 125t136 82t127.5 51t121 31zM715 760q0 -35 25.5 -64.5t60.5 -29.5q94 0 94 94q0 42 -25 67t-69 25q-42 0 -64 -24.5t-22 -67.5z" />
    <glyph glyph-name="P" unicode="P" horiz-adv-x="1382" 
d="M700 512v-207q0 -127 -90 -217t-217 -90q-112 0 -195.5 74t-105.5 186q-20 116 -26 188l-3 7v18v4l-2 6v4q-27 202 -17.5 408t48.5 385q19 85 75.5 149t139.5 91l2 2q49 16 105 16h223q77 0 147 -5.5t144.5 -20.5t136.5 -38.5t118 -61t94.5 -87t61.5 -118.5t23 -152
q0 -128 -33.5 -223t-89.5 -154t-143 -95.5t-180.5 -51t-215.5 -17.5zM389 1491q-88 0 -161.5 -68.5t-102.5 -212.5q24 58 60 108t70.5 80.5t65 52.5t49.5 31zM700 1073v-88q109 8 109 41q0 39 -109 47z" />
    <glyph glyph-name="Q" unicode="Q" horiz-adv-x="1644" 
d="M786 -31q-249 0 -447.5 147t-275.5 384q-43 128 -43 286q0 159 64 301.5t171.5 243t252.5 159t303 58.5q167 0 312 -61t247 -166.5t160.5 -252t58.5 -312.5q0 -139 -41 -260l15 -17q82 -98 69.5 -224t-112.5 -208q-88 -69 -192.5 -67.5t-192.5 67.5q-176 -78 -349 -78z
M786 1491q-136 1 -264 -51.5t-231 -161t-146 -254.5q58 100 126.5 178t130 125t136 82t127.5 51t121 31zM715 760q0 -35 25.5 -64.5t60.5 -29.5q94 0 94 94q0 42 -25 67t-69 25q-42 0 -64 -24.5t-22 -67.5z" />
    <glyph glyph-name="R" unicode="R" horiz-adv-x="1292" 
d="M711 553q-26 0 -40 -53.5t-5 -85.5q3 -14 10.5 -35.5t11.5 -38.5t4 -35q0 -127 -90 -217t-217 -90q-70 0 -131 33q-66 32 -110.5 92t-59.5 135q-43 226 -43 510t43 510q22 114 105 186t196 72h209q476 0 627 -274q51 -92 51 -209q0 -219 -117 -355q22 -4 40 -16t30 -32
t21 -40.5t14 -52t8 -56t4 -62.5t1 -62t-0.5 -63.5t-0.5 -57.5q0 -58 -4 -96t-16.5 -68.5t-31.5 -46.5t-54.5 -27t-79 -14.5t-111.5 -3.5q-90 0 -167 54t-89 136q-10 63 -3 117.5t17 99.5t17.5 77.5t-1 50.5t-38.5 18zM381 1491q-88 0 -161.5 -68.5t-102.5 -212.5
q24 58 60 108t70.5 80.5t65 52.5t49.5 31zM692 1073v-88q109 8 109 41q0 39 -109 47z" />
    <glyph glyph-name="S" unicode="S" horiz-adv-x="1396" 
d="M680 1563q77 0 164.5 -13.5t180.5 -44.5t167.5 -75t122 -112t47.5 -149q0 -108 -76 -195t-180 -87q-63 0 -248 84q-148 68 -181 75q-32 6 -32 -12q0 -16 31 -30.5t81.5 -26t115.5 -31t132.5 -42t132.5 -61.5t115.5 -87.5t81.5 -122.5t31 -164q0 -86 -24.5 -157.5
t-65.5 -122t-99.5 -89.5t-123 -63t-140.5 -39t-145.5 -21t-144.5 -6q-60 0 -120.5 5.5t-130 18.5t-128.5 38t-108 59.5t-77 87t-28 117.5q0 111 75.5 193.5t180.5 82.5q57 0 161.5 -37.5t175 -62.5t70.5 -4q0 8 -28.5 18t-75 21t-106 31t-122 45.5t-122 68.5t-106 95.5
t-75 130.5t-28.5 170q0 114 52 211.5t141 163t207 102.5t249 37zM633 1524q-78 -1 -157 -22.5t-153.5 -66t-129 -106t-81 -150.5t-12.5 -192q5 84 28 155.5t54.5 121.5t78.5 92t89.5 67.5t98.5 47t95 32t89 21.5z" />
    <glyph glyph-name="T" unicode="T" horiz-adv-x="1179" 
d="M907 401l-10 -94q-14 -131 -98.5 -219t-208.5 -88t-208.5 88t-98.5 219l-11 94q-13 134 -15 301.5t9 303.5l2 18h-2q-106 0 -181 75t-75 181t75 181t181 75h647q106 0 181 -75t75 -181t-75 -181t-181 -75h-2l2 -18q11 -136 9 -303.5t-15 -301.5zM264 1491
q-205 0 -205 -211q16 55 43 97t54 62.5t52 33.5t40 15z" />
    <glyph glyph-name="U" unicode="U" horiz-adv-x="1413" 
d="M41 1233q0 127 89.5 217t217.5 90q99 0 170.5 -49.5t105 -126.5t33.5 -172l-2 -430q0 -100 11 -131q12 -35 39 -35q13 0 22.5 4.5t15.5 14.5t9.5 19t4.5 26.5t1.5 27t0 30t-0.5 27.5l-2 418q0 74 17.5 138t53.5 116.5t97 82.5t141 30q127 0 217 -90t90 -217v-484
q0 -164 -45 -301.5t-131 -239.5t-219 -159t-301 -57q-138 0 -247 38.5t-181 105.5t-119 162.5t-67.5 203.5t-20.5 235v506zM1073 1491q-43 0 -83.5 -13t-79.5 -40.5t-63 -81.5t-24 -127q9 42 28 79t41.5 63t47.5 47t48.5 34.5t42.5 22.5t31 13zM352 1491q-43 0 -83.5 -13
t-79.5 -40.5t-63 -81.5t-24 -127q9 42 28 79t41.5 63t47.5 47t48.5 34.5t42.5 22.5t30 13z" />
    <glyph glyph-name="V" unicode="V" horiz-adv-x="1542" 
d="M772 737q8 72 30.5 167.5t63 208t91 205.5t121.5 155.5t147 62.5q127 0 217 -90t90 -217q0 -67 -18 -165t-53.5 -214t-83.5 -236t-112.5 -231t-135.5 -198t-157.5 -139t-174.5 -52q-98 0 -200.5 71t-187 183.5t-160 251.5t-127.5 276.5t-82 257.5t-30 195q0 127 90 217
t217 90q79 0 151 -60.5t121.5 -150.5t89 -203t61.5 -208.5t32 -176.5zM301 1491q-37 0 -72.5 -13t-70.5 -41.5t-57.5 -81t-26.5 -122.5q12 54 40 100.5t59 74t60.5 47.5t48.5 28zM1311 1466q-258 0 -357 -254q33 66 82 116.5t95.5 75.5t88 40t66.5 18z" />
    <glyph glyph-name="W" unicode="W" horiz-adv-x="2381" 
d="M819 807q22 222 36 298q66 366 261 421q36 10 76 10q351 0 385 -729q15 214 79 380t165.5 257.5t224.5 91.5q135 0 230.5 -90t95.5 -217q0 -78 -25.5 -198t-70.5 -258.5t-113 -276.5t-146.5 -250t-178.5 -182t-202 -70q-66 0 -122 19t-91.5 40t-79 74t-62 81t-62.5 100
q-5 7 -7 11q-78 -140 -121 -191q-95 -115 -238 -131q-27 -3 -56 -3q-98 0 -200.5 71t-187 183.5t-160 251.5t-127.5 276.5t-82 257.5t-30 195q0 127 95.5 217t230.5 90q124 0 228.5 -92.5t171.5 -258.5t83 -378zM2116 1507q-258 0 -357 -254q33 66 82 116.5t95.5 75.5t88 40
t66.5 19zM1249 1505q-38 0 -72 -11t-73 -39t-77 -85.5t-71 -142.5q33 66 75.5 119t79.5 81.5t69 47.5t50 25zM301 1491q-37 0 -72.5 -13t-70.5 -41.5t-57.5 -81t-26.5 -122.5q12 54 40 100.5t59 74t60.5 47.5t48.5 28z" />
    <glyph glyph-name="X" unicode="X" horiz-adv-x="1355" 
d="M1335 307q0 -132 -93.5 -220.5t-225.5 -88.5q-67 0 -149.5 65.5t-188.5 188.5q-106 -123 -188.5 -188.5t-149.5 -65.5q-132 0 -226 88.5t-94 220.5q0 118 246 469q-246 348 -246 451q0 130 92.5 219.5t223.5 89.5q142 0 342 -225q200 225 342 225q131 0 223 -89.5
t92 -219.5q0 -51 -66.5 -171.5t-178.5 -279.5q245 -350 245 -469zM250 1485q-79 0 -128.5 -78.5t-49.5 -161.5q0 -27 2 -39q12 96 73 176q34 41 91 88q2 0 8 6t6 7l-2 2v0z" />
    <glyph glyph-name="Y" unicode="Y" horiz-adv-x="1378" 
d="M700 1024q23 167 31 201q43 203 161 271q69 40 169 40q127 0 217 -90t90 -217q0 -158 -102.5 -348.5t-259.5 -307.5q-6 -127 -21 -266q-14 -131 -98.5 -219t-208.5 -88t-208.5 88t-98.5 219q-18 171 -21 318q-141 131 -240.5 308.5t-99.5 295.5q0 127 90 217t217 90
q65 0 118.5 -18t91 -47t67 -72t47 -86t30.5 -97.5t19 -97.5t10 -94zM1059 1507q-33 0 -58 -3.5t-59 -18t-60.5 -40.5t-53 -75t-44.5 -117q25 66 62.5 116.5t73.5 75.5t68 40t52 19zM301 1491q-37 0 -72.5 -13t-70.5 -41.5t-57.5 -81t-26.5 -122.5q12 54 40 100.5t59 74
t60.5 47.5t48.5 28z" />
    <glyph glyph-name="Z" unicode="Z" horiz-adv-x="1478" 
d="M1141 0h-779q-138 0 -234.5 89.5t-96.5 217.5q0 115 123 246l524 494l-316 -125q-81 -32 -160 11t-125 126.5t-46 169.5q0 128 96.5 217.5t234.5 89.5h779q127 0 217 -90t90 -217q0 -134 -96 -223l-535 -482l324 90q58 16 115.5 -5.5t99 -67.5t67 -108.5t25.5 -125.5
q0 -127 -90 -217t-217 -90zM78 1233q2 8 7 22.5t26 52t48 69t75.5 62.5t105.5 44q-73 0 -127 -24t-81.5 -63t-40.5 -79.5t-13 -83.5z" />
    <glyph glyph-name="bracketleft" unicode="[" horiz-adv-x="729" 
d="M569 340l-20 -256q71 -25 115.5 -89t44.5 -140q0 -101 -72.5 -173.5t-173.5 -72.5h-160q-100 0 -169 71.5t-77 174.5l-16 190q-20 251 -19 557t23 557l12 139q9 104 78 175t168 71h160q101 0 173.5 -72.5t72.5 -173.5q0 -76 -44.5 -140t-115.5 -89l18 -205
q23 -254 2 -524zM330 1491q-38 0 -69.5 -8t-63 -29.5t-52 -65.5t-26.5 -108q12 55 38 96.5t55 62.5t56 33.5t44 15.5z" />
    <glyph glyph-name="backslash" unicode="\" 
d="M758 61v-10h8v-8h-8v-12q0 -8 8 -4v-11q-3 -2 -9 -1.5t-9 3.5q-3 4 -3 25h-18v-12q0 -7 10 -4v-11q-13 -3 -18 2q-2 2 -2 13v12h-4v8h4v6l10 4v-10h18v6zM612 879q-15 22 -2.5 44.5t43.5 6.5q49 -21 49 -144q0 -16 -0.5 -29t-6 -46.5t-15 -56t-31 -41.5t-51.5 -19
q-29 0 -49 17t-23 44q-8 -26 -29.5 -41.5t-41.5 -15.5q-78 0 -78 166q0 141 88 141q26 0 32.5 -17t-5.5 -36q-22 -38 -31.5 -85.5t-3.5 -79.5t24 -32q15 0 19.5 30t3 66.5t9.5 67t38 31.5q33 1 37 -64q1 -19 0 -60q-1 -73 11 -81q5 -4 13 0q29 13 29 99t-29 135zM797 586
q-39 0 -58.5 41t-19.5 98q0 16 1.5 33.5t6 46.5t17.5 47t32 18q16 0 27.5 -13.5t11.5 -39.5q0 -12 -6 -57.5t-6 -77.5q0 -37 20 -37q7 0 13.5 6t11.5 17.5t9 25t6.5 31t5 32.5t4 32.5t2 28.5t1.5 23.5t1 14.5q3 23 12.5 34t30.5 11q13 0 21 -5.5t11.5 -17t5 -24.5
t-0.5 -33.5t-4.5 -37.5t-5.5 -42t-5 -43t1 -16q9 6 28 141v4q6 38 22 56t45 18q37 0 58.5 -27t13.5 -77q-3 -16 -6 -38.5t-6 -57t0 -56.5t14 -20q15 3 29 41.5t19.5 97.5t1 123.5t-30 127t-70.5 99.5q-54 45 -118.5 45t-116 -39t-72.5 -104q-20 -62 -54 -61q-28 1 -42 41
q-11 30 -5 67q12 72 81 132.5t157 72.5q93 12 170 -40.5t115 -154.5q35 -108 31 -218t-43 -193.5t-91 -83.5q-36 0 -50.5 39.5t-10.5 87.5q1 22 6 51.5t9 49t4 36t-7 22.5q-14 11 -21 -21q-4 -16 -11 -66q-16 -125 -40 -160q-16 -23 -39 -23q-39 0 -39 65q-7 -29 -26.5 -51
t-50.5 -22zM180 905q0 -13 -10 -20t-18 -7.5t-23 -0.5q-31 0 -58.5 13.5t-27.5 39.5q0 58 81.5 87t252.5 34q161 4 209 -9q57 -16 26 -55q-22 -26 -45.5 -32t-45.5 1t-68.5 13t-98.5 0q-2 -35 -6.5 -104.5t-6.5 -112t-0.5 -95t9.5 -88.5q3 -16 9 -34t10 -28t5 -19t-4.5 -13
t-19.5 -4q-27 0 -46 17t-28.5 39t-14.5 53t-6 48t-1 36q0 90 14 303q-1 0 -22 -1l-31.5 -1.5t-32.5 -2.5t-34.5 -4.5t-27.5 -6t-22.5 -9t-7.5 -12.5q3 -13 23 -10t43.5 1.5t23.5 -16.5zM784 879q-22 0 -33.5 16t-11.5 41q0 21 11.5 36t31.5 15q21 0 32 -14.5t11 -36.5
q0 -21 -10.5 -39t-30.5 -18zM735 530h68t102.5 2t104 7.5t117.5 19t100 33.5q2 1 5 2q6 4 9.5 3t3.5 -11q0 -25 -14 -44t-32 -28.5t-47.5 -16.5t-47 -8.5t-43.5 -3.5q-133 -8 -326 -8q-17 -252 25 -252q19 0 32.5 35.5t22.5 78.5t31 78.5t55 35.5q45 0 50 -43q6 -47 -33 -91
q-20 -24 -48 -36q-1 -15 -1.5 -33.5t9 -34.5t27.5 -16q25 0 43 24t25.5 52.5t9.5 58.5q2 28 -7 54.5t-9 37.5q0 12 9.5 17t18.5 3q28 -6 42.5 -29t11.5 -52q6 28 35.5 53.5t56.5 25.5q41 0 60 -41.5t7 -86t-49 -52.5q-20 -3 -37.5 6.5t-17.5 30.5q0 11 17 11t24 7
q21 20 12 51t-39 27q-27 -5 -37.5 -47t-10 -89.5t-10.5 -85t-38 -34.5q-17 1 -27 29.5t-10 71.5q-11 -37 -33 -64.5t-55 -27.5t-59 24.5t-29 56.5q-32 -71 -68 -71q-25 0 -44 25.5t-25 52.5q-10 -31 -35.5 -56.5t-56.5 -25.5q-30 0 -54.5 23t-23.5 54q-10 -36 -34.5 -59.5
t-59.5 -23.5q-25 0 -47.5 13t-34.5 36q-26 -29 -60 -41q-61 -23 -97 18t-36 135q0 34 7.5 100t5 119.5t-22.5 112.5q-9 26 2 37.5t30 9.5t38 -12q37 -22 48.5 -79t5.5 -123t-13.5 -129t-3 -104.5t31.5 -41.5q26 0 41 25.5t20.5 62t12.5 73t25 62t49 25.5q53 0 48 -52
q-5 -50 -50 -98q-8 -9 -17 -16q-5 -26 6.5 -55t36.5 -29q21 0 35.5 23.5t20 62t7.5 73.5t2 74t1 47q-5 0 -23.5 -1.5t-30.5 -0.5t-28 4t-26.5 13t-14.5 26q-6 27 1.5 31t30.5 -6q15 -6 25 -9t28.5 -6.5t35.5 -3.5q0 27 7 40.5t27 13.5q37 0 37 -54l95 2q0 52 36 52
q16 0 26 -14t9 -36zM571 479q0 -5 -3 -80.5t2 -129t22 -54.5q19 -1 33 21t21 60t10.5 71t5.5 70.5t2 41.5h-93zM391 311q16 13 32 49t7 43q-12 12 -26 -26q-13 -36 -13 -66zM874 311q39 18 52 60q4 20 1 28.5t-14 6.5q-13 -3 -25 -37.5t-14 -57.5zM653 16v50h13v-50h-13z
M514 61v-10h8v-8h-8v-12q0 -7 8 -4v-11q-12 -4 -18 2q-2 3 -2 25h-4v8h4v6zM979 53q10 0 10 -16v-21h-8v19q0 6 -3.5 7.5t-7 -1.5t-3.5 -6v-19h-11v19q0 8 -6 8t-6 -6v-21h-10v35h8l2 -2q4 5 12 4t9 -8q5 8 14 8zM631 53q16 0 16 -16v-21h-14v19q0 4 -2 6t-4.5 1.5
t-3.5 -3.5v-23h-15v35h13l2 -2q4 4 8 4zM821 45q5 8 17 8v-12q-4 1 -9.5 -0.5t-5.5 -3.5v-21h-10v35h8v-6zM690 53q19 0 19 -22h-23q0 -13 19 -4l4 -9q-12 -6 -24.5 -1t-12.5 16q0 20 18 20zM909 53q19 0 19 -19.5t-19 -19.5q-13 0 -18 10t0 19.5t18 9.5zM866 35q0 -8 21 -8
v-9q-26 -8 -32 10q-5 15 11 22q9 4 21 1v-10q-5 3 -13 1.5t-8 -7.5zM590 16v35h10v-35h-10zM348 27l4 24h10l-8 -35h-10l-8 23l-6 -23h-11l-10 35h13l4 -24l6 24h10zM686 37h12q0 6 -6 6t-6 -6zM909 25q7 0 7 9t-7 9t-9 -4.5t0.5 -9t8.5 -4.5zM842 29q6 0 6 -7.5t-6 -7.5
t-6 7.5t6 7.5zM485 29q7 0 7 -7.5t-7 -7.5q-6 0 -6 7.5t6 7.5zM403 27l5 24h12l-10 -35h-11l-6 23l-8 -23h-10l-8 35h10l4 -24l6 24h10zM459 27l6 24h10l-8 -35h-12l-6 23l-7 -23h-12l-8 35h10l4 -24l8 24h9zM567 27l4 24h11l-9 -35h-10l-8 23l-6 -23h-10l-11 35h13l4 -24
l6 24h8zM594 66q6 0 6 -6.5t-6 -6.5q-5 0 -7 3.5t0 6.5t7 3zM788 53q19 0 19 -22h-23q0 -13 19 -4l4 -9q-13 -6 -25 -1.5t-12 16.5q0 20 18 20zM784 37h13q0 6 -6.5 6t-6.5 -6z" />
    <glyph glyph-name="bracketright" unicode="]" 
d="M758 61v-10h8v-8h-8v-12q0 -8 8 -4v-11q-3 -2 -9 -1.5t-9 3.5q-3 4 -3 25h-18v-12q0 -7 10 -4v-11q-13 -3 -18 2q-2 2 -2 13v12h-4v8h4v6l10 4v-10h18v6zM612 879q-15 22 -2.5 44.5t43.5 6.5q49 -21 49 -144q0 -16 -0.5 -29t-6 -46.5t-15 -56t-31 -41.5t-51.5 -19
q-29 0 -49 17t-23 44q-8 -26 -29.5 -41.5t-41.5 -15.5q-78 0 -78 166q0 141 88 141q26 0 32.5 -17t-5.5 -36q-22 -38 -31.5 -85.5t-3.5 -79.5t24 -32q15 0 19.5 30t3 66.5t9.5 67t38 31.5q33 1 37 -64q1 -19 0 -60q-1 -73 11 -81q5 -4 13 0q29 13 29 99t-29 135zM797 586
q-39 0 -58.5 41t-19.5 98q0 16 1.5 33.5t6 46.5t17.5 47t32 18q16 0 27.5 -13.5t11.5 -39.5q0 -12 -6 -57.5t-6 -77.5q0 -37 20 -37q7 0 13.5 6t11.5 17.5t9 25t6.5 31t5 32.5t4 32.5t2 28.5t1.5 23.5t1 14.5q3 23 12.5 34t30.5 11q13 0 21 -5.5t11.5 -17t5 -24.5
t-0.5 -33.5t-4.5 -37.5t-5.5 -42t-5 -43t1 -16q9 6 28 141v4q6 38 22 56t45 18q37 0 58.5 -27t13.5 -77q-3 -16 -6 -38.5t-6 -57t0 -56.5t14 -20q15 3 29 41.5t19.5 97.5t1 123.5t-30 127t-70.5 99.5q-54 45 -118.5 45t-116 -39t-72.5 -104q-20 -62 -54 -61q-28 1 -42 41
q-11 30 -5 67q12 72 81 132.5t157 72.5q93 12 170 -40.5t115 -154.5q35 -108 31 -218t-43 -193.5t-91 -83.5q-36 0 -50.5 39.5t-10.5 87.5q1 22 6 51.5t9 49t4 36t-7 22.5q-14 11 -21 -21q-4 -16 -11 -66q-16 -125 -40 -160q-16 -23 -39 -23q-39 0 -39 65q-7 -29 -26.5 -51
t-50.5 -22zM180 905q0 -13 -10 -20t-18 -7.5t-23 -0.5q-31 0 -58.5 13.5t-27.5 39.5q0 58 81.5 87t252.5 34q161 4 209 -9q57 -16 26 -55q-22 -26 -45.5 -32t-45.5 1t-68.5 13t-98.5 0q-2 -35 -6.5 -104.5t-6.5 -112t-0.5 -95t9.5 -88.5q3 -16 9 -34t10 -28t5 -19t-4.5 -13
t-19.5 -4q-27 0 -46 17t-28.5 39t-14.5 53t-6 48t-1 36q0 90 14 303q-1 0 -22 -1l-31.5 -1.5t-32.5 -2.5t-34.5 -4.5t-27.5 -6t-22.5 -9t-7.5 -12.5q3 -13 23 -10t43.5 1.5t23.5 -16.5zM784 879q-22 0 -33.5 16t-11.5 41q0 21 11.5 36t31.5 15q21 0 32 -14.5t11 -36.5
q0 -21 -10.5 -39t-30.5 -18zM735 530h68t102.5 2t104 7.5t117.5 19t100 33.5q2 1 5 2q6 4 9.5 3t3.5 -11q0 -25 -14 -44t-32 -28.5t-47.5 -16.5t-47 -8.5t-43.5 -3.5q-133 -8 -326 -8q-17 -252 25 -252q19 0 32.5 35.5t22.5 78.5t31 78.5t55 35.5q45 0 50 -43q6 -47 -33 -91
q-20 -24 -48 -36q-1 -15 -1.5 -33.5t9 -34.5t27.5 -16q25 0 43 24t25.5 52.5t9.5 58.5q2 28 -7 54.5t-9 37.5q0 12 9.5 17t18.5 3q28 -6 42.5 -29t11.5 -52q6 28 35.5 53.5t56.5 25.5q41 0 60 -41.5t7 -86t-49 -52.5q-20 -3 -37.5 6.5t-17.5 30.5q0 11 17 11t24 7
q21 20 12 51t-39 27q-27 -5 -37.5 -47t-10 -89.5t-10.5 -85t-38 -34.5q-17 1 -27 29.5t-10 71.5q-11 -37 -33 -64.5t-55 -27.5t-59 24.5t-29 56.5q-32 -71 -68 -71q-25 0 -44 25.5t-25 52.5q-10 -31 -35.5 -56.5t-56.5 -25.5q-30 0 -54.5 23t-23.5 54q-10 -36 -34.5 -59.5
t-59.5 -23.5q-25 0 -47.5 13t-34.5 36q-26 -29 -60 -41q-61 -23 -97 18t-36 135q0 34 7.5 100t5 119.5t-22.5 112.5q-9 26 2 37.5t30 9.5t38 -12q37 -22 48.5 -79t5.5 -123t-13.5 -129t-3 -104.5t31.5 -41.5q26 0 41 25.5t20.5 62t12.5 73t25 62t49 25.5q53 0 48 -52
q-5 -50 -50 -98q-8 -9 -17 -16q-5 -26 6.5 -55t36.5 -29q21 0 35.5 23.5t20 62t7.5 73.5t2 74t1 47q-5 0 -23.5 -1.5t-30.5 -0.5t-28 4t-26.5 13t-14.5 26q-6 27 1.5 31t30.5 -6q15 -6 25 -9t28.5 -6.5t35.5 -3.5q0 27 7 40.5t27 13.5q37 0 37 -54l95 2q0 52 36 52
q16 0 26 -14t9 -36zM571 479q0 -5 -3 -80.5t2 -129t22 -54.5q19 -1 33 21t21 60t10.5 71t5.5 70.5t2 41.5h-93zM391 311q16 13 32 49t7 43q-12 12 -26 -26q-13 -36 -13 -66zM874 311q39 18 52 60q4 20 1 28.5t-14 6.5q-13 -3 -25 -37.5t-14 -57.5zM653 16v50h13v-50h-13z
M514 61v-10h8v-8h-8v-12q0 -7 8 -4v-11q-12 -4 -18 2q-2 3 -2 25h-4v8h4v6zM979 53q10 0 10 -16v-21h-8v19q0 6 -3.5 7.5t-7 -1.5t-3.5 -6v-19h-11v19q0 8 -6 8t-6 -6v-21h-10v35h8l2 -2q4 5 12 4t9 -8q5 8 14 8zM631 53q16 0 16 -16v-21h-14v19q0 4 -2 6t-4.5 1.5
t-3.5 -3.5v-23h-15v35h13l2 -2q4 4 8 4zM821 45q5 8 17 8v-12q-4 1 -9.5 -0.5t-5.5 -3.5v-21h-10v35h8v-6zM690 53q19 0 19 -22h-23q0 -13 19 -4l4 -9q-12 -6 -24.5 -1t-12.5 16q0 20 18 20zM909 53q19 0 19 -19.5t-19 -19.5q-13 0 -18 10t0 19.5t18 9.5zM866 35q0 -8 21 -8
v-9q-26 -8 -32 10q-5 15 11 22q9 4 21 1v-10q-5 3 -13 1.5t-8 -7.5zM590 16v35h10v-35h-10zM348 27l4 24h10l-8 -35h-10l-8 23l-6 -23h-11l-10 35h13l4 -24l6 24h10zM686 37h12q0 6 -6 6t-6 -6zM909 25q7 0 7 9t-7 9t-9 -4.5t0.5 -9t8.5 -4.5zM842 29q6 0 6 -7.5t-6 -7.5
t-6 7.5t6 7.5zM485 29q7 0 7 -7.5t-7 -7.5q-6 0 -6 7.5t6 7.5zM403 27l5 24h12l-10 -35h-11l-6 23l-8 -23h-10l-8 35h10l4 -24l6 24h10zM459 27l6 24h10l-8 -35h-12l-6 23l-7 -23h-12l-8 35h10l4 -24l8 24h9zM567 27l4 24h11l-9 -35h-10l-8 23l-6 -23h-10l-11 35h13l4 -24
l6 24h8zM594 66q6 0 6 -6.5t-6 -6.5q-5 0 -7 3.5t0 6.5t7 3zM788 53q19 0 19 -22h-23q0 -13 19 -4l4 -9q-13 -6 -25 -1.5t-12 16.5q0 20 18 20zM784 37h13q0 6 -6.5 6t-6.5 -6z" />
    <glyph glyph-name="asciicircum" unicode="^" 
d="M758 61v-10h8v-8h-8v-12q0 -8 8 -4v-11q-3 -2 -9 -1.5t-9 3.5q-3 4 -3 25h-18v-12q0 -7 10 -4v-11q-13 -3 -18 2q-2 2 -2 13v12h-4v8h4v6l10 4v-10h18v6zM612 879q-15 22 -2.5 44.5t43.5 6.5q49 -21 49 -144q0 -16 -0.5 -29t-6 -46.5t-15 -56t-31 -41.5t-51.5 -19
q-29 0 -49 17t-23 44q-8 -26 -29.5 -41.5t-41.5 -15.5q-78 0 -78 166q0 141 88 141q26 0 32.5 -17t-5.5 -36q-22 -38 -31.5 -85.5t-3.5 -79.5t24 -32q15 0 19.5 30t3 66.5t9.5 67t38 31.5q33 1 37 -64q1 -19 0 -60q-1 -73 11 -81q5 -4 13 0q29 13 29 99t-29 135zM797 586
q-39 0 -58.5 41t-19.5 98q0 16 1.5 33.5t6 46.5t17.5 47t32 18q16 0 27.5 -13.5t11.5 -39.5q0 -12 -6 -57.5t-6 -77.5q0 -37 20 -37q7 0 13.5 6t11.5 17.5t9 25t6.5 31t5 32.5t4 32.5t2 28.5t1.5 23.5t1 14.5q3 23 12.5 34t30.5 11q13 0 21 -5.5t11.5 -17t5 -24.5
t-0.5 -33.5t-4.5 -37.5t-5.5 -42t-5 -43t1 -16q9 6 28 141v4q6 38 22 56t45 18q37 0 58.5 -27t13.5 -77q-3 -16 -6 -38.5t-6 -57t0 -56.5t14 -20q15 3 29 41.5t19.5 97.5t1 123.5t-30 127t-70.5 99.5q-54 45 -118.5 45t-116 -39t-72.5 -104q-20 -62 -54 -61q-28 1 -42 41
q-11 30 -5 67q12 72 81 132.5t157 72.5q93 12 170 -40.5t115 -154.5q35 -108 31 -218t-43 -193.5t-91 -83.5q-36 0 -50.5 39.5t-10.5 87.5q1 22 6 51.5t9 49t4 36t-7 22.5q-14 11 -21 -21q-4 -16 -11 -66q-16 -125 -40 -160q-16 -23 -39 -23q-39 0 -39 65q-7 -29 -26.5 -51
t-50.5 -22zM180 905q0 -13 -10 -20t-18 -7.5t-23 -0.5q-31 0 -58.5 13.5t-27.5 39.5q0 58 81.5 87t252.5 34q161 4 209 -9q57 -16 26 -55q-22 -26 -45.5 -32t-45.5 1t-68.5 13t-98.5 0q-2 -35 -6.5 -104.5t-6.5 -112t-0.5 -95t9.5 -88.5q3 -16 9 -34t10 -28t5 -19t-4.5 -13
t-19.5 -4q-27 0 -46 17t-28.5 39t-14.5 53t-6 48t-1 36q0 90 14 303q-1 0 -22 -1l-31.5 -1.5t-32.5 -2.5t-34.5 -4.5t-27.5 -6t-22.5 -9t-7.5 -12.5q3 -13 23 -10t43.5 1.5t23.5 -16.5zM784 879q-22 0 -33.5 16t-11.5 41q0 21 11.5 36t31.5 15q21 0 32 -14.5t11 -36.5
q0 -21 -10.5 -39t-30.5 -18zM735 530h68t102.5 2t104 7.5t117.5 19t100 33.5q2 1 5 2q6 4 9.5 3t3.5 -11q0 -25 -14 -44t-32 -28.5t-47.5 -16.5t-47 -8.5t-43.5 -3.5q-133 -8 -326 -8q-17 -252 25 -252q19 0 32.5 35.5t22.5 78.5t31 78.5t55 35.5q45 0 50 -43q6 -47 -33 -91
q-20 -24 -48 -36q-1 -15 -1.5 -33.5t9 -34.5t27.5 -16q25 0 43 24t25.5 52.5t9.5 58.5q2 28 -7 54.5t-9 37.5q0 12 9.5 17t18.5 3q28 -6 42.5 -29t11.5 -52q6 28 35.5 53.5t56.5 25.5q41 0 60 -41.5t7 -86t-49 -52.5q-20 -3 -37.5 6.5t-17.5 30.5q0 11 17 11t24 7
q21 20 12 51t-39 27q-27 -5 -37.5 -47t-10 -89.5t-10.5 -85t-38 -34.5q-17 1 -27 29.5t-10 71.5q-11 -37 -33 -64.5t-55 -27.5t-59 24.5t-29 56.5q-32 -71 -68 -71q-25 0 -44 25.5t-25 52.5q-10 -31 -35.5 -56.5t-56.5 -25.5q-30 0 -54.5 23t-23.5 54q-10 -36 -34.5 -59.5
t-59.5 -23.5q-25 0 -47.5 13t-34.5 36q-26 -29 -60 -41q-61 -23 -97 18t-36 135q0 34 7.5 100t5 119.5t-22.5 112.5q-9 26 2 37.5t30 9.5t38 -12q37 -22 48.5 -79t5.5 -123t-13.5 -129t-3 -104.5t31.5 -41.5q26 0 41 25.5t20.5 62t12.5 73t25 62t49 25.5q53 0 48 -52
q-5 -50 -50 -98q-8 -9 -17 -16q-5 -26 6.5 -55t36.5 -29q21 0 35.5 23.5t20 62t7.5 73.5t2 74t1 47q-5 0 -23.5 -1.5t-30.5 -0.5t-28 4t-26.5 13t-14.5 26q-6 27 1.5 31t30.5 -6q15 -6 25 -9t28.5 -6.5t35.5 -3.5q0 27 7 40.5t27 13.5q37 0 37 -54l95 2q0 52 36 52
q16 0 26 -14t9 -36zM571 479q0 -5 -3 -80.5t2 -129t22 -54.5q19 -1 33 21t21 60t10.5 71t5.5 70.5t2 41.5h-93zM391 311q16 13 32 49t7 43q-12 12 -26 -26q-13 -36 -13 -66zM874 311q39 18 52 60q4 20 1 28.5t-14 6.5q-13 -3 -25 -37.5t-14 -57.5zM653 16v50h13v-50h-13z
M514 61v-10h8v-8h-8v-12q0 -7 8 -4v-11q-12 -4 -18 2q-2 3 -2 25h-4v8h4v6zM979 53q10 0 10 -16v-21h-8v19q0 6 -3.5 7.5t-7 -1.5t-3.5 -6v-19h-11v19q0 8 -6 8t-6 -6v-21h-10v35h8l2 -2q4 5 12 4t9 -8q5 8 14 8zM631 53q16 0 16 -16v-21h-14v19q0 4 -2 6t-4.5 1.5
t-3.5 -3.5v-23h-15v35h13l2 -2q4 4 8 4zM821 45q5 8 17 8v-12q-4 1 -9.5 -0.5t-5.5 -3.5v-21h-10v35h8v-6zM690 53q19 0 19 -22h-23q0 -13 19 -4l4 -9q-12 -6 -24.5 -1t-12.5 16q0 20 18 20zM909 53q19 0 19 -19.5t-19 -19.5q-13 0 -18 10t0 19.5t18 9.5zM866 35q0 -8 21 -8
v-9q-26 -8 -32 10q-5 15 11 22q9 4 21 1v-10q-5 3 -13 1.5t-8 -7.5zM590 16v35h10v-35h-10zM348 27l4 24h10l-8 -35h-10l-8 23l-6 -23h-11l-10 35h13l4 -24l6 24h10zM686 37h12q0 6 -6 6t-6 -6zM909 25q7 0 7 9t-7 9t-9 -4.5t0.5 -9t8.5 -4.5zM842 29q6 0 6 -7.5t-6 -7.5
t-6 7.5t6 7.5zM485 29q7 0 7 -7.5t-7 -7.5q-6 0 -6 7.5t6 7.5zM403 27l5 24h12l-10 -35h-11l-6 23l-8 -23h-10l-8 35h10l4 -24l6 24h10zM459 27l6 24h10l-8 -35h-12l-6 23l-7 -23h-12l-8 35h10l4 -24l8 24h9zM567 27l4 24h11l-9 -35h-10l-8 23l-6 -23h-10l-11 35h13l4 -24
l6 24h8zM594 66q6 0 6 -6.5t-6 -6.5q-5 0 -7 3.5t0 6.5t7 3zM788 53q19 0 19 -22h-23q0 -13 19 -4l4 -9q-13 -6 -25 -1.5t-12 16.5q0 20 18 20zM784 37h13q0 6 -6.5 6t-6.5 -6z" />
    <glyph glyph-name="a" unicode="a" horiz-adv-x="1329" 
d="M1274 717q1 -13 4 -49t3.5 -45t2.5 -36.5t2 -36t0.5 -32t0 -35.5t-1 -34.5t-2.5 -42t-4 -44.5t-5 -55q-14 -131 -98.5 -219t-208.5 -88q-66 0 -129 29q-116 -43 -236 -43q-155 0 -284.5 64.5t-208 185.5t-78.5 274q0 112 28.5 210t84 175t145 121.5t203.5 44.5
q159 0 309 -88q73 51 166 51q125 0 211.5 -88.5t95.5 -218.5zM496 1004q-25 0 -40.5 -0.5t-47 -5t-54 -12.5t-55 -25t-55.5 -41t-49 -61.5t-43.5 -84.5t-31 -113t-18.5 -145q14 99 43.5 180t65.5 130.5t75.5 86t76.5 53t67 26.5t48 11zM643 635q-3 0 -8.5 -1t-19 -5.5
t-23.5 -11t-18.5 -20t-8.5 -30.5q0 -30 19 -46.5t38 -17.5l19 -1q-6 79 2 133z" />
    <glyph glyph-name="b" unicode="b" horiz-adv-x="1341" 
d="M504 29q-63 -29 -129 -29q-124 0 -208.5 88t-98.5 219l-11 94q-31 279 -6 605l17 223q9 130 95.5 218.5t211.5 88.5t211.5 -88.5t95.5 -218.5l14 -191q84 23 154 23q114 0 203.5 -44.5t145 -121.5t84 -175t28.5 -210q0 -153 -78.5 -274t-208.5 -185.5t-285 -64.5
q-119 0 -235 43zM375 1483q-43 0 -83.5 -13t-79.5 -40.5t-63 -81.5t-24 -127q9 42 28 79t41.5 63t47.5 47t48.5 34.5t42.5 22.5t31 13zM709 629q-1 -16 -2 -44.5t-2 -43.5q0 -9 -5 -39q5 0 10 0.5t18 3.5t22.5 9.5t17.5 19.5t8 32q0 27 -17 42.5t-33 17.5z" />
    <glyph glyph-name="c" unicode="c" horiz-adv-x="1148" 
d="M827 541q76 0 140.5 -32.5t102 -84.5t52 -111.5t-6.5 -120.5t-75 -104q-147 -117 -405 -117q-136 0 -250.5 45.5t-191 123t-119.5 180.5t-43 219q0 104 43.5 200.5t120.5 171t191.5 119.5t248.5 45q260 0 393 -96q52 -38 77.5 -82.5t20 -87t-37 -79.5t-99.5 -62.5
t-162 -32.5q-18 -1 -30.5 11t-18 27.5t-17 28.5t-28.5 13q-65 0 -104 -34t-39 -99q0 -51 21.5 -104.5t56.5 -53.5q28 0 48.5 18.5t31.5 40t31.5 40t47.5 18.5zM684 1024q-36 0 -70.5 -2.5t-91.5 -13t-106 -29t-104.5 -54.5t-97.5 -84.5t-75.5 -123.5t-46.5 -168
q24 95 69.5 172.5t99 125.5t113 84t114.5 53t99 27t71 11z" />
    <glyph glyph-name="d" unicode="d" horiz-adv-x="1341" 
d="M1284 401l-10 -94q-14 -131 -98.5 -219t-208.5 -88q-66 0 -129 29q-116 -43 -236 -43q-155 0 -284.5 64.5t-208 185.5t-78.5 274q0 112 28.5 210t84 175t145 121.5t203.5 44.5q69 0 153 -23l14 191q9 130 95.5 218.5t212.5 88.5q125 0 211.5 -88.5t95.5 -218.5l16 -223
q25 -326 -6 -605zM971 1499q-43 0 -83.5 -13t-79.5 -40.5t-63 -81.5t-24 -127q9 42 28 79t41.5 63t47.5 47t48.5 34.5t42.5 22.5t31 13zM492 1004q-25 0 -40.5 -0.5t-47 -5t-54 -12.5t-55 -25t-55.5 -41t-49 -61.5t-43.5 -84.5t-31 -113t-18.5 -145q14 99 43.5 180
t65.5 130.5t75.5 86t76.5 53t67 26.5t48 11zM633 629q-3 0 -7.5 -0.5t-16 -4t-20.5 -9.5t-16.5 -18.5t-7.5 -29.5q0 -19 8 -32t17.5 -19.5t22.5 -9.5t18 -3.5t10 -0.5q0 6 -2 19t-2 20q-1 15 -2 43.5t-2 44.5z" />
    <glyph glyph-name="e" unicode="e" horiz-adv-x="1187" 
d="M827 479q64 0 121.5 -18.5t98 -48.5t64.5 -70.5t27 -83.5t-21.5 -88t-76.5 -82q-161 -117 -405 -117q-132 0 -246.5 46.5t-192 124.5t-121.5 181.5t-44 215.5q0 104 40 200t113 171t185 120t245 45q56 0 120.5 -10.5t136 -33t130 -58t103.5 -85.5t57 -116t-10 -149
q-10 -32 -45.5 -56t-95.5 -39.5t-111 -24.5t-131 -19.5t-115 -16.5q5 -21 12.5 -30.5t14 -11t20.5 -1.5q33 0 63.5 27.5t63.5 27.5zM684 1024q-37 0 -72.5 -2.5t-94 -13t-108.5 -29t-107 -54.5t-100 -84.5t-77 -123.5t-47 -168q24 95 70.5 172.5t101 125.5t115.5 84
t117.5 53t102 27t72.5 11zM639 623q46 6 98.5 26t59.5 35q10 20 -19.5 37t-54.5 14q-81 -10 -84 -112z" />
    <glyph glyph-name="f" unicode="f" horiz-adv-x="1101" 
d="M670 1124q0 31 -17 32q-13 1 -19 -17q-1 -4 -1 -9q-4 -77 4 -296q16 0 34.5 -1.5t45.5 -4t49 -3.5q87 -6 146 -63t59 -141q0 -85 -59 -142t-146 -63q-49 -4 -111 -8q2 -51 2 -136q0 -121 -92.5 -205.5t-214.5 -84.5q-61 0 -110 37.5t-80.5 95t-55 141t-35 159t-18.5 166
t-8.5 145.5t-1.5 114q0 80 5.5 148t20 141t38.5 131t64 111t92.5 88t127 56t166.5 21q79 0 154.5 -14.5t147.5 -47t126 -79t86.5 -117.5t32.5 -156q0 -123 -64 -202.5t-184 -79.5q-125 0 -167.5 62t-16.5 222zM539 1487q-27 0 -53.5 -3.5t-66 -15.5t-74.5 -33t-74.5 -60
t-71 -91t-59 -131t-42.5 -176q24 98 61 179.5t77.5 132.5t84 90.5t82 59t69.5 31.5t49 14z" />
    <glyph glyph-name="g" unicode="g" horiz-adv-x="1343" 
d="M621 -14h-19q-155 0 -284.5 64.5t-208 185.5t-78.5 274q0 112 28.5 210t84 175t145 121.5t203.5 44.5q147 0 299 -84q76 51 170 51q70 0 126 -28t92 -77t61 -108t37.5 -131t18 -135t4.5 -129q-2 -138 -27 -265.5t-82.5 -251t-143 -214t-218.5 -146t-299 -55.5
q-18 0 -61 -0.5t-63.5 -0.5t-60.5 2t-61 6t-53.5 12.5t-50.5 20.5t-40 31t-33 44t-19 58.5t-8 74.5q0 55 23.5 96t64.5 64t90 34t107 11q19 0 71 -2.5t76 -1.5t57 12.5t52 36.5zM492 1004q-25 0 -40.5 -0.5t-47 -5t-54 -12.5t-55 -25t-55.5 -41t-49 -61.5t-43.5 -84.5
t-31 -113t-18.5 -145q14 99 43.5 180t65.5 130.5t75.5 86t76.5 53t67 26.5t48 11zM633 629q-3 0 -7.5 -0.5t-16 -4t-20.5 -9.5t-16.5 -18.5t-7.5 -29.5q0 -30 19 -46.5t38 -17.5l19 -1q-6 69 -8 127z" />
    <glyph glyph-name="h" unicode="h" horiz-adv-x="1335" 
d="M668 1229q6 -106 12 -191q80 25 143 25q71 0 129.5 -10.5t103.5 -29.5t80.5 -51.5t60.5 -68.5t42.5 -88.5t28 -105t16.5 -124t7.5 -139t0.5 -157.5q-2 -128 -91 -217.5t-216 -89.5t-217 90t-90 217q0 19 8.5 49.5t18.5 58t18 53t7 41t-15 15.5q-33 0 -33 -27v-2v-10
q-9 -113 -14 -160q-14 -131 -99 -219t-209 -88t-208.5 88t-98.5 219q-17 159 -21 316.5t1.5 291t19.5 314.5q9 130 95.5 218.5t211.5 88.5q126 0 212.5 -88.5t95.5 -218.5zM362 1491q-33 0 -66 -7.5t-66.5 -26t-59 -47.5t-41.5 -75.5t-16 -105.5q13 57 43 105.5t64.5 76
t66.5 47t53 26.5z" />
    <glyph glyph-name="i" unicode="i" horiz-adv-x="724" 
d="M127 1300q0 106 64.5 171t170.5 65t171 -65t65 -171t-65 -170.5t-171 -64.5t-170.5 64.5t-64.5 170.5zM367 1509q-83 0 -141 -55t-58 -154q18 54 45.5 95.5t53.5 62t49 33t37 15.5zM670 717q1 -13 4 -49t3.5 -45t2.5 -36.5t2 -36t0.5 -32t0 -35.5t-1 -34.5t-2.5 -42
t-4 -44.5t-5 -55q-14 -131 -99 -219t-209 -88t-208.5 88t-98.5 219q-3 30 -5 55t-4 44.5t-2.5 42t-1 34.5t0 35.5t0.5 32t2 36t2.5 36.5t3.5 45t4 49q9 130 95.5 218.5t211.5 88.5q126 0 212.5 -88.5t95.5 -218.5zM367 979q-43 0 -83.5 -13t-79.5 -40.5t-63 -81.5t-24 -127
q9 42 28 79t41.5 63t47.5 47t48.5 34.5t42.5 22.5t31 13z" />
    <glyph glyph-name="j" unicode="j" horiz-adv-x="776" 
d="M115 1300q0 106 64.5 171t170.5 65t171 -65t65 -171t-65 -170.5t-171 -64.5t-170.5 64.5t-64.5 170.5zM356 1509q-83 0 -140.5 -55t-57.5 -154q18 54 45.5 95.5t53 62t48.5 33t37 15.5zM78 631q0 189 88 293t227 104q70 0 126 -28t92 -77t61.5 -108.5t38 -131t18 -134.5
t4.5 -129q-1 -98 -13 -190t-38 -186t-65.5 -175t-99.5 -152t-135 -121t-176.5 -79t-221.5 -29q-43 0 -80.5 12.5t-71.5 39.5t-54 77.5t-20 118.5q0 108 53.5 160t131.5 45q30 0 51.5 -2t37.5 6t26.5 16.5t17.5 29.5t11 45.5t7 63.5q6 66 -5 281t-11 250zM393 983
q-43 0 -83.5 -13t-79.5 -40.5t-63 -81.5t-24 -127q8 48 26 88.5t40.5 67t48 47t49.5 31t43.5 17.5t31.5 9z" />
    <glyph glyph-name="k" unicode="k" horiz-adv-x="1230" 
d="M678 1229q12 -168 18 -307q137 102 232 102q139 0 210.5 -71.5t71.5 -211.5q0 -35 -32 -72.5t-82 -69.5t-87.5 -51.5t-72.5 -35.5q31 -13 70.5 -34.5t89 -53.5t82 -70.5t32.5 -72.5q0 -140 -71.5 -211.5t-210.5 -71.5q-63 0 -141 44.5t-154 117.5q-41 -73 -109 -116.5
t-153 -43.5q-124 0 -209 88t-99 219q-17 159 -21 316.5t1.5 291t19.5 314.5q9 130 95.5 218.5t212.5 88.5q125 0 211.5 -88.5t95.5 -218.5zM371 1483q-43 0 -83.5 -13t-79.5 -40.5t-63 -81.5t-24 -127q9 42 28 79t41.5 63t47.5 47t48.5 34.5t42.5 22.5t31 13z" />
    <glyph glyph-name="l" unicode="l" horiz-adv-x="741" 
d="M678 1229q14 -181 19.5 -314.5t1.5 -291t-21 -316.5q-14 -131 -98.5 -219t-208.5 -88t-209 88t-99 219q-17 159 -21 316.5t1.5 291t19.5 314.5q9 130 95.5 218.5t212.5 88.5q125 0 211.5 -88.5t95.5 -218.5zM371 1483q-43 0 -83.5 -13t-79.5 -40.5t-63 -81.5t-24 -127
q9 42 28 79t41.5 63t47.5 47t48.5 34.5t42.5 22.5t31 13z" />
    <glyph glyph-name="m" unicode="m" horiz-adv-x="1957" 
d="M715 506q-18 0 -25.5 -12t-7.5 -25q-4 -96 -12 -162q-14 -131 -99 -219t-209 -88t-208.5 88t-98.5 219q-3 30 -5 55t-4 44.5t-2.5 42t-1 34.5t0 35.5t0.5 32t2 36t2.5 36.5t3.5 45t4 49q9 130 95.5 218.5t211.5 88.5q95 0 168 -51q158 90 293 90q201 0 307 -86
q81 48 165 76t151 28q71 0 129.5 -10.5t103.5 -29.5t80.5 -51.5t60.5 -68.5t42.5 -88.5t28 -105t16.5 -124t7.5 -139t0.5 -157.5q-2 -128 -91 -217.5t-216 -89.5q-128 0 -218 90t-90 217q0 19 8.5 50t17.5 58t15 53t1 41t-25 15q-27 0 -27 -43q2 -59 2 -192
q-2 -128 -91 -217.5t-216 -89.5t-217 90t-90 217q0 19 8.5 49.5t18.5 58t18 53t7 41t-15 15.5zM362 977q-33 0 -66 -7.5t-66.5 -26t-59 -47.5t-41.5 -75.5t-16 -105.5q13 57 43 105.5t64.5 76t66.5 47t53 26.5z" />
    <glyph glyph-name="n" unicode="n" horiz-adv-x="1335" 
d="M715 506q-18 0 -25.5 -12t-7.5 -25q-4 -96 -12 -162q-14 -131 -99 -219t-209 -88t-208.5 88t-98.5 219q-3 30 -5 55t-4 44.5t-2.5 42t-1 34.5t0 35.5t0.5 32t2 36t2.5 36.5t3.5 45t4 49q9 130 95.5 218.5t211.5 88.5q95 0 168 -51q158 90 293 90q71 0 129.5 -10.5
t103.5 -29.5t80.5 -51.5t60.5 -68.5t42.5 -88.5t28 -105t16.5 -124t7.5 -139t0.5 -157.5q-2 -128 -91 -217.5t-216 -89.5t-212 89t-85 218q0 19 7.5 49.5t16 58t15 53.5t4.5 41t-16 15zM365 985q-42 0 -83.5 -14t-80 -43t-62.5 -82.5t-24 -122.5q9 42 28 79t41.5 63t47.5 47
t48.5 34.5t42.5 22.5t31 13z" />
    <glyph glyph-name="o" unicode="o" horiz-adv-x="1228" 
d="M1198 539q0 -91 -24.5 -174.5t-74.5 -155.5t-120.5 -125t-167 -83t-209.5 -30q-125 0 -233 46.5t-181.5 124.5t-115 181.5t-41.5 215.5q0 103 41 200t114 171.5t181.5 119.5t234.5 45q140 0 255 -44.5t188 -120t113 -171t40 -200.5zM602 1024q-30 0 -59 -2.5t-77 -13
t-89 -29t-88 -54.5t-83 -84.5t-65.5 -123.5t-42.5 -168q24 95 64.5 172.5t86.5 125.5t96 84t95.5 53t82 27t57.5 11zM686 524q0 19 -20 32t-56 13q-30 0 -48.5 -13t-18.5 -32q0 -20 19 -33.5t48 -13.5q36 0 56 13t20 34z" />
    <glyph glyph-name="p" unicode="p" horiz-adv-x="1341" 
d="M692 -111l-10 -94q-14 -131 -98.5 -219t-208.5 -88t-208.5 88t-98.5 219l-11 94q-31 279 -6 605l17 223q9 130 95.5 218.5t211.5 88.5q93 0 166 -51q150 88 309 88q114 0 203.5 -44.5t145 -121.5t84 -175t28.5 -210q0 -153 -78.5 -274t-208.5 -185.5t-285 -64.5
q-6 0 -19.5 1t-19.5 1q-4 -66 -8 -99zM373 981q-43 0 -83.5 -13t-79.5 -40.5t-63 -81.5t-24 -127q9 42 28 79t41.5 63t47.5 47t48.5 34.5t42.5 22.5t31 13zM709 629q-1 -33 -9 -127h8t18.5 3.5t23.5 9.5t18 19.5t8 32.5q0 27 -17 42.5t-33 17.5z" />
    <glyph glyph-name="q" unicode="q" horiz-adv-x="1341" 
d="M649 -111q-4 33 -8 99q-6 0 -19.5 -1t-19.5 -1q-155 0 -284.5 64.5t-208 185.5t-78.5 274q0 112 28.5 210t84 175t145 121.5t203.5 44.5q159 0 309 -88q73 51 166 51q125 0 211.5 -88.5t95.5 -218.5l16 -223q25 -326 -6 -605l-10 -94q-14 -131 -98.5 -219t-208.5 -88
t-209 88t-99 219zM492 1004q-25 0 -40.5 -0.5t-47 -5t-54 -12.5t-55 -25t-55.5 -41t-49 -61.5t-43.5 -84.5t-31 -113t-18.5 -145q14 99 43.5 180t65.5 130.5t75.5 86t76.5 53t67 26.5t48 11zM633 629q-3 0 -7.5 -0.5t-16 -4t-20.5 -9.5t-16.5 -18.5t-7.5 -29.5
q0 -30 19 -46.5t38 -17.5l19 -1q-6 69 -8 127z" />
    <glyph glyph-name="r" unicode="r" horiz-adv-x="1198" 
d="M694 526q-7 0 -12 -28q0 -62 -12 -191q-14 -131 -99 -219t-209 -88t-208.5 88t-98.5 219q-3 30 -5 55t-4 44.5t-2.5 42t-1 34.5t0 35.5t0.5 32t2 36t2.5 36.5t3.5 45t4 49q9 130 95.5 218.5t211.5 88.5q96 0 173 -55q156 75 288 75q63 0 123.5 -13.5t116.5 -42.5
t90.5 -82.5t34.5 -125.5q0 -117 -41 -190.5t-119 -130.5q-42 -31 -95 -50.5t-101.5 -23t-81.5 22t-33 79.5q0 39 -23 39zM365 977q-43 0 -83.5 -13t-79.5 -40.5t-63 -81.5t-24 -127q9 42 28 79t41.5 63t47.5 47t48.5 34.5t42.5 22.5t31 13z" />
    <glyph glyph-name="s" unicode="s" horiz-adv-x="1218" 
d="M594 1051q69 0 131.5 -4t130 -14t121.5 -28.5t98 -45t68 -66.5t24 -90q0 -66 -47.5 -113t-113.5 -47q-38 0 -146 52q-97 47 -123 44q-22 -2 -22 -28q0 -12 9 -20t28 -12.5t39 -7t53 -7t59 -9.5q164 -34 224.5 -104t60.5 -207q0 -91 -49.5 -165.5t-130.5 -121
t-180.5 -71.5t-204.5 -25q-66 0 -125.5 4t-131.5 14.5t-128.5 32t-105 53t-74.5 82t-25 113.5q2 69 49 119.5t113 50.5q73 0 122 -59q22 -28 80 -41t106.5 -6t47.5 30q-1 21 -39.5 34.5t-95.5 21t-123.5 26.5t-123 47.5t-94.5 88.5t-38 145q0 70 34 127.5t89.5 95t129 63.5
t149.5 37t155 11zM530 1014q-359 0 -444 -297q27 57 66 104t79.5 77t84 53t81.5 34.5t68 18.5t47 8z" />
    <glyph glyph-name="t" unicode="t" horiz-adv-x="1112" 
d="M657 420q0 135 44.5 196.5t142.5 61.5q119 0 183.5 -80t64.5 -203q0 -85 -32.5 -155.5t-86.5 -117.5t-126 -79t-147.5 -46.5t-154.5 -14.5q-91 0 -166 27.5t-127.5 73t-92.5 111.5t-64 136.5t-38.5 154t-20 157.5t-5.5 155q0 700 309 700q122 0 214.5 -85t92.5 -206v-73
q6 0 64 -3.5t86 -5.5q87 -6 145.5 -62.5t58.5 -141.5t-58.5 -142t-145.5 -63q-118 -8 -172 -8v-164q2 -92 10 -109q7 -14 22 -14zM348 1456q-41 0 -78 -15t-72 -48t-62 -93.5t-42 -144.5q21 71 55 127.5t67.5 87.5t63.5 52t49 28z" />
    <glyph glyph-name="u" unicode="u" horiz-adv-x="1325" 
d="M631 498q7 0 12 30q0 94 12 209q14 131 99 219t209 88t208.5 -88t98.5 -219q3 -30 5 -55t4 -44.5t2.5 -41.5t1 -34.5t0 -35.5t-0.5 -32t-2 -36t-2.5 -36.5t-3.5 -44.5t-4 -49q-9 -130 -95.5 -219t-211.5 -89q-94 0 -168 52q-158 -90 -293 -90q-92 0 -162 16.5t-120 45.5
t-85 80t-55.5 106.5t-31.5 140t-13.5 166.5t-1.5 198q2 128 88 217.5t209 89.5t210 -90t87 -217q0 -21 -5.5 -88.5t-4.5 -108t14 -40.5zM967 1012q-42 0 -83.5 -14t-80 -43t-62.5 -82.5t-24 -122.5q9 42 28 79t41.5 63t47.5 47t48.5 34.5t42.5 22.5t31 12zM344 1012
q-42 0 -83.5 -14t-80 -43t-62.5 -82.5t-24 -122.5q9 42 28 79t41.5 63t47.5 47t48.5 34.5t42.5 22.5t30 12z" />
    <glyph glyph-name="v" unicode="v" horiz-adv-x="1171" 
d="M592 629q22 131 40 183q74 212 290 212q104 0 171.5 -74t67.5 -172q0 -122 -42 -257.5t-114.5 -253.5t-184 -195.5t-236.5 -77.5q-99 0 -190.5 50.5t-159.5 132.5t-119.5 183.5t-78 207.5t-26.5 200q0 102 65.5 179t174.5 77q75 0 133.5 -28t90.5 -61.5t58 -94.5
t34.5 -94t20.5 -93q3 -16 5 -24zM248 993q-27 0 -57.5 -11t-61.5 -34t-53.5 -67t-28.5 -101q10 40 34 76.5t52 60.5t54 42t43 26zM920 987q-26 5 -59.5 -3.5t-68.5 -28.5t-66 -59.5t-46 -90.5q24 43 57 77t64 53t58.5 31.5t44.5 16.5z" />
    <glyph glyph-name="w" unicode="w" horiz-adv-x="1804" 
d="M633 629q8 56 15.5 95t21.5 89.5t33 84t46 64.5t66 46.5t88 15.5q41 0 76 -13t60 -31.5t46.5 -52.5t35 -63t26.5 -75.5t20 -77.5t17 -82l3 18q5 28 8 44t9.5 47.5t14 51.5t19 49.5t25.5 48.5t33 42.5t43 38.5t53 28.5t65.5 20t78.5 6.5q112 0 185 -74t73 -172
q0 -122 -42 -257.5t-114.5 -253.5t-184 -195.5t-236.5 -77.5q-81 0 -155.5 50t-160.5 136q-41 -41 -71 -67.5t-72.5 -57t-86 -46t-87.5 -15.5q-99 0 -190.5 50.5t-159.5 132.5t-119.5 183.5t-78 207.5t-26.5 200q0 102 70.5 179t187.5 77q59 0 108 -14.5t83 -36t62 -56
t44 -64t30 -72.5t20 -69t14 -63q3 -14 4 -20zM248 993q-27 0 -57.5 -11t-61.5 -34t-53.5 -67t-28.5 -101q10 40 34 76.5t52 60.5t54 42t43 26zM1552 987q-26 5 -59.5 -3.5t-68.5 -28.5t-65.5 -59.5t-45.5 -90.5q24 43 57 77t63.5 53t58 31.5t44.5 16.5zM903 983
q-30 2 -56 -6.5t-53 -31.5t-49.5 -69.5t-37.5 -113.5q21 57 49 100.5t53 65.5t46.5 35.5t34.5 16.5z" />
    <glyph glyph-name="x" unicode="x" horiz-adv-x="1200" 
d="M31 233q0 98 159 287q-159 174 -159 277q0 97 77.5 166t186.5 69q112 0 305 -137q193 137 307 137q107 0 184.5 -69t77.5 -166q0 -103 -159 -277q159 -189 159 -287q0 -97 -77.5 -166t-184.5 -69q-113 0 -307 149q-194 -149 -305 -149q-109 0 -186.5 69t-77.5 166z
M297 993q-34 0 -60 -5t-59 -20.5t-59.5 -52t-44.5 -92.5q21 44 51.5 78t59.5 50.5t54.5 27t41.5 12.5z" />
    <glyph glyph-name="y" unicode="y" horiz-adv-x="1359" 
d="M643 371q27 0 27 59v8q-8 156 -8 193q0 189 88 293t227 104q70 0 126 -28t92 -77t61.5 -108.5t38 -131t18 -134.5t4.5 -129q-2 -138 -27 -265.5t-82.5 -251t-143 -214t-218.5 -146t-299 -55.5q-18 0 -55 -1q-163 -2 -232 16q-142 37 -161 182q-3 24 -3 51q0 55 23.5 96
t64.5 64t90 34t107 11q19 0 51.5 -1.5t53 -2.5t48 1.5t46 8.5t37.5 20t32 35q-75 -20 -127 -20q-80 0 -144.5 11t-114 34.5t-86.5 55.5t-63 80.5t-42.5 102t-25 127t-11.5 149t-2 173.5q2 128 87 217.5t206 89.5q120 0 205 -111.5t85 -269.5v-16q0 -254 27 -254zM340 983
q-43 0 -83.5 -13t-79.5 -40.5t-63 -81.5t-24 -127q8 48 26 88.5t40.5 67t48 47t49.5 31t43.5 17.5t30.5 9zM977 983q-43 0 -83.5 -13t-79.5 -40.5t-63 -81.5t-24 -127q8 48 26 88.5t40.5 67t48 47t49.5 31t43.5 17.5t31.5 9z" />
    <glyph glyph-name="z" unicode="z" horiz-adv-x="1132" 
d="M100 969q57 47 205 67.5t260 20.5q101 0 228 -14t202 -50q54 -20 82 -75q18 -30 21 -64q6 -38 0 -78q-5 -40 -44.5 -85t-82.5 -76.5t-116 -81t-105 -74.5q210 -19 284 -80q64 -56 63 -131t-67 -146q-32 -34 -88 -56t-124.5 -30.5t-119 -11.5t-106.5 -4h-19
q-387 0 -477 102q-52 58 -61 121q-7 43 6 80q14 39 64 85t99 78t118 73.5t88 54.5q-244 16 -314 98q-65 72 -64 146t68 131zM459 1024q-40 0 -82.5 -3.5t-102 -16t-103 -33t-72.5 -59.5t-23 -91q14 53 59 93t98.5 60t105 32.5t85.5 15.5z" />
    <glyph glyph-name="braceleft" unicode="{" horiz-adv-x="1056" 
d="M772 1536q110 0 187 -72.5t77 -183.5q0 -106 -75 -181t-181 -75h-4v-223v-27.5v-29t-1 -26t-3 -28.5t-5 -25t-8.5 -28t-12.5 -25.5t-17 -28.5t-22 -26q32 -30 48 -63t18.5 -56.5t2.5 -66.5v-275q107 2 183.5 -73.5t76.5 -182.5q0 -111 -77.5 -183.5t-188.5 -72.5
q-191 0 -327 107.5t-171 294.5q-10 51 -10 157l2 158q-50 0 -91.5 13t-77 41t-55.5 79.5t-20 122.5q0 66 23 117t60 80.5t78 44t83 14.5q0 22 -2 98.5t0 126.5t10 97q35 186 171.5 293.5t328.5 107.5zM768 1491q-42 0 -81.5 -6t-92 -26.5t-96.5 -54t-88 -94.5t-74 -143
q46 89 108 155.5t116.5 97t102.5 48.5t77 20z" />
    <glyph glyph-name="bar" unicode="|" horiz-adv-x="409" 
d="M20 1360q0 95 51.5 139.5t133.5 44.5q83 0 133.5 -44t50.5 -140v-1608q0 -96 -50.5 -140t-133.5 -44q-82 0 -133.5 44.5t-51.5 139.5v1608zM205 1518q-72 0 -105.5 -37t-46.5 -150q12 51 32 89t40 56t38.5 28.5t30.5 11.5z" />
    <glyph glyph-name="braceright" unicode="}" 
d="M758 61v-10h8v-8h-8v-12q0 -8 8 -4v-11q-3 -2 -9 -1.5t-9 3.5q-3 4 -3 25h-18v-12q0 -7 10 -4v-11q-13 -3 -18 2q-2 2 -2 13v12h-4v8h4v6l10 4v-10h18v6zM612 879q-15 22 -2.5 44.5t43.5 6.5q49 -21 49 -144q0 -16 -0.5 -29t-6 -46.5t-15 -56t-31 -41.5t-51.5 -19
q-29 0 -49 17t-23 44q-8 -26 -29.5 -41.5t-41.5 -15.5q-78 0 -78 166q0 141 88 141q26 0 32.5 -17t-5.5 -36q-22 -38 -31.5 -85.5t-3.5 -79.5t24 -32q15 0 19.5 30t3 66.5t9.5 67t38 31.5q33 1 37 -64q1 -19 0 -60q-1 -73 11 -81q5 -4 13 0q29 13 29 99t-29 135zM797 586
q-39 0 -58.5 41t-19.5 98q0 16 1.5 33.5t6 46.5t17.5 47t32 18q16 0 27.5 -13.5t11.5 -39.5q0 -12 -6 -57.5t-6 -77.5q0 -37 20 -37q7 0 13.5 6t11.5 17.5t9 25t6.5 31t5 32.5t4 32.5t2 28.5t1.5 23.5t1 14.5q3 23 12.5 34t30.5 11q13 0 21 -5.5t11.5 -17t5 -24.5
t-0.5 -33.5t-4.5 -37.5t-5.5 -42t-5 -43t1 -16q9 6 28 141v4q6 38 22 56t45 18q37 0 58.5 -27t13.5 -77q-3 -16 -6 -38.5t-6 -57t0 -56.5t14 -20q15 3 29 41.5t19.5 97.5t1 123.5t-30 127t-70.5 99.5q-54 45 -118.5 45t-116 -39t-72.5 -104q-20 -62 -54 -61q-28 1 -42 41
q-11 30 -5 67q12 72 81 132.5t157 72.5q93 12 170 -40.5t115 -154.5q35 -108 31 -218t-43 -193.5t-91 -83.5q-36 0 -50.5 39.5t-10.5 87.5q1 22 6 51.5t9 49t4 36t-7 22.5q-14 11 -21 -21q-4 -16 -11 -66q-16 -125 -40 -160q-16 -23 -39 -23q-39 0 -39 65q-7 -29 -26.5 -51
t-50.5 -22zM180 905q0 -13 -10 -20t-18 -7.5t-23 -0.5q-31 0 -58.5 13.5t-27.5 39.5q0 58 81.5 87t252.5 34q161 4 209 -9q57 -16 26 -55q-22 -26 -45.5 -32t-45.5 1t-68.5 13t-98.5 0q-2 -35 -6.5 -104.5t-6.5 -112t-0.5 -95t9.5 -88.5q3 -16 9 -34t10 -28t5 -19t-4.5 -13
t-19.5 -4q-27 0 -46 17t-28.5 39t-14.5 53t-6 48t-1 36q0 90 14 303q-1 0 -22 -1l-31.5 -1.5t-32.5 -2.5t-34.5 -4.5t-27.5 -6t-22.5 -9t-7.5 -12.5q3 -13 23 -10t43.5 1.5t23.5 -16.5zM784 879q-22 0 -33.5 16t-11.5 41q0 21 11.5 36t31.5 15q21 0 32 -14.5t11 -36.5
q0 -21 -10.5 -39t-30.5 -18zM735 530h68t102.5 2t104 7.5t117.5 19t100 33.5q2 1 5 2q6 4 9.5 3t3.5 -11q0 -25 -14 -44t-32 -28.5t-47.5 -16.5t-47 -8.5t-43.5 -3.5q-133 -8 -326 -8q-17 -252 25 -252q19 0 32.5 35.5t22.5 78.5t31 78.5t55 35.5q45 0 50 -43q6 -47 -33 -91
q-20 -24 -48 -36q-1 -15 -1.5 -33.5t9 -34.5t27.5 -16q25 0 43 24t25.5 52.5t9.5 58.5q2 28 -7 54.5t-9 37.5q0 12 9.5 17t18.5 3q28 -6 42.5 -29t11.5 -52q6 28 35.5 53.5t56.5 25.5q41 0 60 -41.5t7 -86t-49 -52.5q-20 -3 -37.5 6.5t-17.5 30.5q0 11 17 11t24 7
q21 20 12 51t-39 27q-27 -5 -37.5 -47t-10 -89.5t-10.5 -85t-38 -34.5q-17 1 -27 29.5t-10 71.5q-11 -37 -33 -64.5t-55 -27.5t-59 24.5t-29 56.5q-32 -71 -68 -71q-25 0 -44 25.5t-25 52.5q-10 -31 -35.5 -56.5t-56.5 -25.5q-30 0 -54.5 23t-23.5 54q-10 -36 -34.5 -59.5
t-59.5 -23.5q-25 0 -47.5 13t-34.5 36q-26 -29 -60 -41q-61 -23 -97 18t-36 135q0 34 7.5 100t5 119.5t-22.5 112.5q-9 26 2 37.5t30 9.5t38 -12q37 -22 48.5 -79t5.5 -123t-13.5 -129t-3 -104.5t31.5 -41.5q26 0 41 25.5t20.5 62t12.5 73t25 62t49 25.5q53 0 48 -52
q-5 -50 -50 -98q-8 -9 -17 -16q-5 -26 6.5 -55t36.5 -29q21 0 35.5 23.5t20 62t7.5 73.5t2 74t1 47q-5 0 -23.5 -1.5t-30.5 -0.5t-28 4t-26.5 13t-14.5 26q-6 27 1.5 31t30.5 -6q15 -6 25 -9t28.5 -6.5t35.5 -3.5q0 27 7 40.5t27 13.5q37 0 37 -54l95 2q0 52 36 52
q16 0 26 -14t9 -36zM571 479q0 -5 -3 -80.5t2 -129t22 -54.5q19 -1 33 21t21 60t10.5 71t5.5 70.5t2 41.5h-93zM391 311q16 13 32 49t7 43q-12 12 -26 -26q-13 -36 -13 -66zM874 311q39 18 52 60q4 20 1 28.5t-14 6.5q-13 -3 -25 -37.5t-14 -57.5zM653 16v50h13v-50h-13z
M514 61v-10h8v-8h-8v-12q0 -7 8 -4v-11q-12 -4 -18 2q-2 3 -2 25h-4v8h4v6zM979 53q10 0 10 -16v-21h-8v19q0 6 -3.5 7.5t-7 -1.5t-3.5 -6v-19h-11v19q0 8 -6 8t-6 -6v-21h-10v35h8l2 -2q4 5 12 4t9 -8q5 8 14 8zM631 53q16 0 16 -16v-21h-14v19q0 4 -2 6t-4.5 1.5
t-3.5 -3.5v-23h-15v35h13l2 -2q4 4 8 4zM821 45q5 8 17 8v-12q-4 1 -9.5 -0.5t-5.5 -3.5v-21h-10v35h8v-6zM690 53q19 0 19 -22h-23q0 -13 19 -4l4 -9q-12 -6 -24.5 -1t-12.5 16q0 20 18 20zM909 53q19 0 19 -19.5t-19 -19.5q-13 0 -18 10t0 19.5t18 9.5zM866 35q0 -8 21 -8
v-9q-26 -8 -32 10q-5 15 11 22q9 4 21 1v-10q-5 3 -13 1.5t-8 -7.5zM590 16v35h10v-35h-10zM348 27l4 24h10l-8 -35h-10l-8 23l-6 -23h-11l-10 35h13l4 -24l6 24h10zM686 37h12q0 6 -6 6t-6 -6zM909 25q7 0 7 9t-7 9t-9 -4.5t0.5 -9t8.5 -4.5zM842 29q6 0 6 -7.5t-6 -7.5
t-6 7.5t6 7.5zM485 29q7 0 7 -7.5t-7 -7.5q-6 0 -6 7.5t6 7.5zM403 27l5 24h12l-10 -35h-11l-6 23l-8 -23h-10l-8 35h10l4 -24l6 24h10zM459 27l6 24h10l-8 -35h-12l-6 23l-7 -23h-12l-8 35h10l4 -24l8 24h9zM567 27l4 24h11l-9 -35h-10l-8 23l-6 -23h-10l-11 35h13l4 -24
l6 24h8zM594 66q6 0 6 -6.5t-6 -6.5q-5 0 -7 3.5t0 6.5t7 3zM788 53q19 0 19 -22h-23q0 -13 19 -4l4 -9q-13 -6 -25 -1.5t-12 16.5q0 20 18 20zM784 37h13q0 6 -6.5 6t-6.5 -6z" />
    <glyph glyph-name="tilde" unicode="&#x2dc;" 
d="M758 61v-10h8v-8h-8v-12q0 -8 8 -4v-11q-3 -2 -9 -1.5t-9 3.5q-3 4 -3 25h-18v-12q0 -7 10 -4v-11q-13 -3 -18 2q-2 2 -2 13v12h-4v8h4v6l10 4v-10h18v6zM612 879q-15 22 -2.5 44.5t43.5 6.5q49 -21 49 -144q0 -16 -0.5 -29t-6 -46.5t-15 -56t-31 -41.5t-51.5 -19
q-29 0 -49 17t-23 44q-8 -26 -29.5 -41.5t-41.5 -15.5q-78 0 -78 166q0 141 88 141q26 0 32.5 -17t-5.5 -36q-22 -38 -31.5 -85.5t-3.5 -79.5t24 -32q15 0 19.5 30t3 66.5t9.5 67t38 31.5q33 1 37 -64q1 -19 0 -60q-1 -73 11 -81q5 -4 13 0q29 13 29 99t-29 135zM797 586
q-39 0 -58.5 41t-19.5 98q0 16 1.5 33.5t6 46.5t17.5 47t32 18q16 0 27.5 -13.5t11.5 -39.5q0 -12 -6 -57.5t-6 -77.5q0 -37 20 -37q7 0 13.5 6t11.5 17.5t9 25t6.5 31t5 32.5t4 32.5t2 28.5t1.5 23.5t1 14.5q3 23 12.5 34t30.5 11q13 0 21 -5.5t11.5 -17t5 -24.5
t-0.5 -33.5t-4.5 -37.5t-5.5 -42t-5 -43t1 -16q9 6 28 141v4q6 38 22 56t45 18q37 0 58.5 -27t13.5 -77q-3 -16 -6 -38.5t-6 -57t0 -56.5t14 -20q15 3 29 41.5t19.5 97.5t1 123.5t-30 127t-70.5 99.5q-54 45 -118.5 45t-116 -39t-72.5 -104q-20 -62 -54 -61q-28 1 -42 41
q-11 30 -5 67q12 72 81 132.5t157 72.5q93 12 170 -40.5t115 -154.5q35 -108 31 -218t-43 -193.5t-91 -83.5q-36 0 -50.5 39.5t-10.5 87.5q1 22 6 51.5t9 49t4 36t-7 22.5q-14 11 -21 -21q-4 -16 -11 -66q-16 -125 -40 -160q-16 -23 -39 -23q-39 0 -39 65q-7 -29 -26.5 -51
t-50.5 -22zM180 905q0 -13 -10 -20t-18 -7.5t-23 -0.5q-31 0 -58.5 13.5t-27.5 39.5q0 58 81.5 87t252.5 34q161 4 209 -9q57 -16 26 -55q-22 -26 -45.5 -32t-45.5 1t-68.5 13t-98.5 0q-2 -35 -6.5 -104.5t-6.5 -112t-0.5 -95t9.5 -88.5q3 -16 9 -34t10 -28t5 -19t-4.5 -13
t-19.5 -4q-27 0 -46 17t-28.5 39t-14.5 53t-6 48t-1 36q0 90 14 303q-1 0 -22 -1l-31.5 -1.5t-32.5 -2.5t-34.5 -4.5t-27.5 -6t-22.5 -9t-7.5 -12.5q3 -13 23 -10t43.5 1.5t23.5 -16.5zM784 879q-22 0 -33.5 16t-11.5 41q0 21 11.5 36t31.5 15q21 0 32 -14.5t11 -36.5
q0 -21 -10.5 -39t-30.5 -18zM735 530h68t102.5 2t104 7.5t117.5 19t100 33.5q2 1 5 2q6 4 9.5 3t3.5 -11q0 -25 -14 -44t-32 -28.5t-47.5 -16.5t-47 -8.5t-43.5 -3.5q-133 -8 -326 -8q-17 -252 25 -252q19 0 32.5 35.5t22.5 78.5t31 78.5t55 35.5q45 0 50 -43q6 -47 -33 -91
q-20 -24 -48 -36q-1 -15 -1.5 -33.5t9 -34.5t27.5 -16q25 0 43 24t25.5 52.5t9.5 58.5q2 28 -7 54.5t-9 37.5q0 12 9.5 17t18.5 3q28 -6 42.5 -29t11.5 -52q6 28 35.5 53.5t56.5 25.5q41 0 60 -41.5t7 -86t-49 -52.5q-20 -3 -37.5 6.5t-17.5 30.5q0 11 17 11t24 7
q21 20 12 51t-39 27q-27 -5 -37.5 -47t-10 -89.5t-10.5 -85t-38 -34.5q-17 1 -27 29.5t-10 71.5q-11 -37 -33 -64.5t-55 -27.5t-59 24.5t-29 56.5q-32 -71 -68 -71q-25 0 -44 25.5t-25 52.5q-10 -31 -35.5 -56.5t-56.5 -25.5q-30 0 -54.5 23t-23.5 54q-10 -36 -34.5 -59.5
t-59.5 -23.5q-25 0 -47.5 13t-34.5 36q-26 -29 -60 -41q-61 -23 -97 18t-36 135q0 34 7.5 100t5 119.5t-22.5 112.5q-9 26 2 37.5t30 9.5t38 -12q37 -22 48.5 -79t5.5 -123t-13.5 -129t-3 -104.5t31.5 -41.5q26 0 41 25.5t20.5 62t12.5 73t25 62t49 25.5q53 0 48 -52
q-5 -50 -50 -98q-8 -9 -17 -16q-5 -26 6.5 -55t36.5 -29q21 0 35.5 23.5t20 62t7.5 73.5t2 74t1 47q-5 0 -23.5 -1.5t-30.5 -0.5t-28 4t-26.5 13t-14.5 26q-6 27 1.5 31t30.5 -6q15 -6 25 -9t28.5 -6.5t35.5 -3.5q0 27 7 40.5t27 13.5q37 0 37 -54l95 2q0 52 36 52
q16 0 26 -14t9 -36zM571 479q0 -5 -3 -80.5t2 -129t22 -54.5q19 -1 33 21t21 60t10.5 71t5.5 70.5t2 41.5h-93zM391 311q16 13 32 49t7 43q-12 12 -26 -26q-13 -36 -13 -66zM874 311q39 18 52 60q4 20 1 28.5t-14 6.5q-13 -3 -25 -37.5t-14 -57.5zM653 16v50h13v-50h-13z
M514 61v-10h8v-8h-8v-12q0 -7 8 -4v-11q-12 -4 -18 2q-2 3 -2 25h-4v8h4v6zM979 53q10 0 10 -16v-21h-8v19q0 6 -3.5 7.5t-7 -1.5t-3.5 -6v-19h-11v19q0 8 -6 8t-6 -6v-21h-10v35h8l2 -2q4 5 12 4t9 -8q5 8 14 8zM631 53q16 0 16 -16v-21h-14v19q0 4 -2 6t-4.5 1.5
t-3.5 -3.5v-23h-15v35h13l2 -2q4 4 8 4zM821 45q5 8 17 8v-12q-4 1 -9.5 -0.5t-5.5 -3.5v-21h-10v35h8v-6zM690 53q19 0 19 -22h-23q0 -13 19 -4l4 -9q-12 -6 -24.5 -1t-12.5 16q0 20 18 20zM909 53q19 0 19 -19.5t-19 -19.5q-13 0 -18 10t0 19.5t18 9.5zM866 35q0 -8 21 -8
v-9q-26 -8 -32 10q-5 15 11 22q9 4 21 1v-10q-5 3 -13 1.5t-8 -7.5zM590 16v35h10v-35h-10zM348 27l4 24h10l-8 -35h-10l-8 23l-6 -23h-11l-10 35h13l4 -24l6 24h10zM686 37h12q0 6 -6 6t-6 -6zM909 25q7 0 7 9t-7 9t-9 -4.5t0.5 -9t8.5 -4.5zM842 29q6 0 6 -7.5t-6 -7.5
t-6 7.5t6 7.5zM485 29q7 0 7 -7.5t-7 -7.5q-6 0 -6 7.5t6 7.5zM403 27l5 24h12l-10 -35h-11l-6 23l-8 -23h-10l-8 35h10l4 -24l6 24h10zM459 27l6 24h10l-8 -35h-12l-6 23l-7 -23h-12l-8 35h10l4 -24l8 24h9zM567 27l4 24h11l-9 -35h-10l-8 23l-6 -23h-10l-11 35h13l4 -24
l6 24h8zM594 66q6 0 6 -6.5t-6 -6.5q-5 0 -7 3.5t0 6.5t7 3zM788 53q19 0 19 -22h-23q0 -13 19 -4l4 -9q-13 -6 -25 -1.5t-12 16.5q0 20 18 20zM784 37h13q0 6 -6.5 6t-6.5 -6z" />
    <glyph glyph-name="quoteleft" unicode="&#x2018;" 
d="M758 61v-10h8v-8h-8v-12q0 -8 8 -4v-11q-3 -2 -9 -1.5t-9 3.5q-3 4 -3 25h-18v-12q0 -7 10 -4v-11q-13 -3 -18 2q-2 2 -2 13v12h-4v8h4v6l10 4v-10h18v6zM612 879q-15 22 -2.5 44.5t43.5 6.5q49 -21 49 -144q0 -16 -0.5 -29t-6 -46.5t-15 -56t-31 -41.5t-51.5 -19
q-29 0 -49 17t-23 44q-8 -26 -29.5 -41.5t-41.5 -15.5q-78 0 -78 166q0 141 88 141q26 0 32.5 -17t-5.5 -36q-22 -38 -31.5 -85.5t-3.5 -79.5t24 -32q15 0 19.5 30t3 66.5t9.5 67t38 31.5q33 1 37 -64q1 -19 0 -60q-1 -73 11 -81q5 -4 13 0q29 13 29 99t-29 135zM797 586
q-39 0 -58.5 41t-19.5 98q0 16 1.5 33.5t6 46.5t17.5 47t32 18q16 0 27.5 -13.5t11.5 -39.5q0 -12 -6 -57.5t-6 -77.5q0 -37 20 -37q7 0 13.5 6t11.5 17.5t9 25t6.5 31t5 32.5t4 32.5t2 28.5t1.5 23.5t1 14.5q3 23 12.5 34t30.5 11q13 0 21 -5.5t11.5 -17t5 -24.5
t-0.5 -33.5t-4.5 -37.5t-5.5 -42t-5 -43t1 -16q9 6 28 141v4q6 38 22 56t45 18q37 0 58.5 -27t13.5 -77q-3 -16 -6 -38.5t-6 -57t0 -56.5t14 -20q15 3 29 41.5t19.5 97.5t1 123.5t-30 127t-70.5 99.5q-54 45 -118.5 45t-116 -39t-72.5 -104q-20 -62 -54 -61q-28 1 -42 41
q-11 30 -5 67q12 72 81 132.5t157 72.5q93 12 170 -40.5t115 -154.5q35 -108 31 -218t-43 -193.5t-91 -83.5q-36 0 -50.5 39.5t-10.5 87.5q1 22 6 51.5t9 49t4 36t-7 22.5q-14 11 -21 -21q-4 -16 -11 -66q-16 -125 -40 -160q-16 -23 -39 -23q-39 0 -39 65q-7 -29 -26.5 -51
t-50.5 -22zM180 905q0 -13 -10 -20t-18 -7.5t-23 -0.5q-31 0 -58.5 13.5t-27.5 39.5q0 58 81.5 87t252.5 34q161 4 209 -9q57 -16 26 -55q-22 -26 -45.5 -32t-45.5 1t-68.5 13t-98.5 0q-2 -35 -6.5 -104.5t-6.5 -112t-0.5 -95t9.5 -88.5q3 -16 9 -34t10 -28t5 -19t-4.5 -13
t-19.5 -4q-27 0 -46 17t-28.5 39t-14.5 53t-6 48t-1 36q0 90 14 303q-1 0 -22 -1l-31.5 -1.5t-32.5 -2.5t-34.5 -4.5t-27.5 -6t-22.5 -9t-7.5 -12.5q3 -13 23 -10t43.5 1.5t23.5 -16.5zM784 879q-22 0 -33.5 16t-11.5 41q0 21 11.5 36t31.5 15q21 0 32 -14.5t11 -36.5
q0 -21 -10.5 -39t-30.5 -18zM735 530h68t102.5 2t104 7.5t117.5 19t100 33.5q2 1 5 2q6 4 9.5 3t3.5 -11q0 -25 -14 -44t-32 -28.5t-47.5 -16.5t-47 -8.5t-43.5 -3.5q-133 -8 -326 -8q-17 -252 25 -252q19 0 32.5 35.5t22.5 78.5t31 78.5t55 35.5q45 0 50 -43q6 -47 -33 -91
q-20 -24 -48 -36q-1 -15 -1.5 -33.5t9 -34.5t27.5 -16q25 0 43 24t25.5 52.5t9.5 58.5q2 28 -7 54.5t-9 37.5q0 12 9.5 17t18.5 3q28 -6 42.5 -29t11.5 -52q6 28 35.5 53.5t56.5 25.5q41 0 60 -41.5t7 -86t-49 -52.5q-20 -3 -37.5 6.5t-17.5 30.5q0 11 17 11t24 7
q21 20 12 51t-39 27q-27 -5 -37.5 -47t-10 -89.5t-10.5 -85t-38 -34.5q-17 1 -27 29.5t-10 71.5q-11 -37 -33 -64.5t-55 -27.5t-59 24.5t-29 56.5q-32 -71 -68 -71q-25 0 -44 25.5t-25 52.5q-10 -31 -35.5 -56.5t-56.5 -25.5q-30 0 -54.5 23t-23.5 54q-10 -36 -34.5 -59.5
t-59.5 -23.5q-25 0 -47.5 13t-34.5 36q-26 -29 -60 -41q-61 -23 -97 18t-36 135q0 34 7.5 100t5 119.5t-22.5 112.5q-9 26 2 37.5t30 9.5t38 -12q37 -22 48.5 -79t5.5 -123t-13.5 -129t-3 -104.5t31.5 -41.5q26 0 41 25.5t20.5 62t12.5 73t25 62t49 25.5q53 0 48 -52
q-5 -50 -50 -98q-8 -9 -17 -16q-5 -26 6.5 -55t36.5 -29q21 0 35.5 23.5t20 62t7.5 73.5t2 74t1 47q-5 0 -23.5 -1.5t-30.5 -0.5t-28 4t-26.5 13t-14.5 26q-6 27 1.5 31t30.5 -6q15 -6 25 -9t28.5 -6.5t35.5 -3.5q0 27 7 40.5t27 13.5q37 0 37 -54l95 2q0 52 36 52
q16 0 26 -14t9 -36zM571 479q0 -5 -3 -80.5t2 -129t22 -54.5q19 -1 33 21t21 60t10.5 71t5.5 70.5t2 41.5h-93zM391 311q16 13 32 49t7 43q-12 12 -26 -26q-13 -36 -13 -66zM874 311q39 18 52 60q4 20 1 28.5t-14 6.5q-13 -3 -25 -37.5t-14 -57.5zM653 16v50h13v-50h-13z
M514 61v-10h8v-8h-8v-12q0 -7 8 -4v-11q-12 -4 -18 2q-2 3 -2 25h-4v8h4v6zM979 53q10 0 10 -16v-21h-8v19q0 6 -3.5 7.5t-7 -1.5t-3.5 -6v-19h-11v19q0 8 -6 8t-6 -6v-21h-10v35h8l2 -2q4 5 12 4t9 -8q5 8 14 8zM631 53q16 0 16 -16v-21h-14v19q0 4 -2 6t-4.5 1.5
t-3.5 -3.5v-23h-15v35h13l2 -2q4 4 8 4zM821 45q5 8 17 8v-12q-4 1 -9.5 -0.5t-5.5 -3.5v-21h-10v35h8v-6zM690 53q19 0 19 -22h-23q0 -13 19 -4l4 -9q-12 -6 -24.5 -1t-12.5 16q0 20 18 20zM909 53q19 0 19 -19.5t-19 -19.5q-13 0 -18 10t0 19.5t18 9.5zM866 35q0 -8 21 -8
v-9q-26 -8 -32 10q-5 15 11 22q9 4 21 1v-10q-5 3 -13 1.5t-8 -7.5zM590 16v35h10v-35h-10zM348 27l4 24h10l-8 -35h-10l-8 23l-6 -23h-11l-10 35h13l4 -24l6 24h10zM686 37h12q0 6 -6 6t-6 -6zM909 25q7 0 7 9t-7 9t-9 -4.5t0.5 -9t8.5 -4.5zM842 29q6 0 6 -7.5t-6 -7.5
t-6 7.5t6 7.5zM485 29q7 0 7 -7.5t-7 -7.5q-6 0 -6 7.5t6 7.5zM403 27l5 24h12l-10 -35h-11l-6 23l-8 -23h-10l-8 35h10l4 -24l6 24h10zM459 27l6 24h10l-8 -35h-12l-6 23l-7 -23h-12l-8 35h10l4 -24l8 24h9zM567 27l4 24h11l-9 -35h-10l-8 23l-6 -23h-10l-11 35h13l4 -24
l6 24h8zM594 66q6 0 6 -6.5t-6 -6.5q-5 0 -7 3.5t0 6.5t7 3zM788 53q19 0 19 -22h-23q0 -13 19 -4l4 -9q-13 -6 -25 -1.5t-12 16.5q0 20 18 20zM784 37h13q0 6 -6.5 6t-6.5 -6z" />
    <glyph glyph-name="quoteright" unicode="&#x2019;" 
d="M758 61v-10h8v-8h-8v-12q0 -8 8 -4v-11q-3 -2 -9 -1.5t-9 3.5q-3 4 -3 25h-18v-12q0 -7 10 -4v-11q-13 -3 -18 2q-2 2 -2 13v12h-4v8h4v6l10 4v-10h18v6zM612 879q-15 22 -2.5 44.5t43.5 6.5q49 -21 49 -144q0 -16 -0.5 -29t-6 -46.5t-15 -56t-31 -41.5t-51.5 -19
q-29 0 -49 17t-23 44q-8 -26 -29.5 -41.5t-41.5 -15.5q-78 0 -78 166q0 141 88 141q26 0 32.5 -17t-5.5 -36q-22 -38 -31.5 -85.5t-3.5 -79.5t24 -32q15 0 19.5 30t3 66.5t9.5 67t38 31.5q33 1 37 -64q1 -19 0 -60q-1 -73 11 -81q5 -4 13 0q29 13 29 99t-29 135zM797 586
q-39 0 -58.5 41t-19.5 98q0 16 1.5 33.5t6 46.5t17.5 47t32 18q16 0 27.5 -13.5t11.5 -39.5q0 -12 -6 -57.5t-6 -77.5q0 -37 20 -37q7 0 13.5 6t11.5 17.5t9 25t6.5 31t5 32.5t4 32.5t2 28.5t1.5 23.5t1 14.5q3 23 12.5 34t30.5 11q13 0 21 -5.5t11.5 -17t5 -24.5
t-0.5 -33.5t-4.5 -37.5t-5.5 -42t-5 -43t1 -16q9 6 28 141v4q6 38 22 56t45 18q37 0 58.5 -27t13.5 -77q-3 -16 -6 -38.5t-6 -57t0 -56.5t14 -20q15 3 29 41.5t19.5 97.5t1 123.5t-30 127t-70.5 99.5q-54 45 -118.5 45t-116 -39t-72.5 -104q-20 -62 -54 -61q-28 1 -42 41
q-11 30 -5 67q12 72 81 132.5t157 72.5q93 12 170 -40.5t115 -154.5q35 -108 31 -218t-43 -193.5t-91 -83.5q-36 0 -50.5 39.5t-10.5 87.5q1 22 6 51.5t9 49t4 36t-7 22.5q-14 11 -21 -21q-4 -16 -11 -66q-16 -125 -40 -160q-16 -23 -39 -23q-39 0 -39 65q-7 -29 -26.5 -51
t-50.5 -22zM180 905q0 -13 -10 -20t-18 -7.5t-23 -0.5q-31 0 -58.5 13.5t-27.5 39.5q0 58 81.5 87t252.5 34q161 4 209 -9q57 -16 26 -55q-22 -26 -45.5 -32t-45.5 1t-68.5 13t-98.5 0q-2 -35 -6.5 -104.5t-6.5 -112t-0.5 -95t9.5 -88.5q3 -16 9 -34t10 -28t5 -19t-4.5 -13
t-19.5 -4q-27 0 -46 17t-28.5 39t-14.5 53t-6 48t-1 36q0 90 14 303q-1 0 -22 -1l-31.5 -1.5t-32.5 -2.5t-34.5 -4.5t-27.5 -6t-22.5 -9t-7.5 -12.5q3 -13 23 -10t43.5 1.5t23.5 -16.5zM784 879q-22 0 -33.5 16t-11.5 41q0 21 11.5 36t31.5 15q21 0 32 -14.5t11 -36.5
q0 -21 -10.5 -39t-30.5 -18zM735 530h68t102.5 2t104 7.5t117.5 19t100 33.5q2 1 5 2q6 4 9.5 3t3.5 -11q0 -25 -14 -44t-32 -28.5t-47.5 -16.5t-47 -8.5t-43.5 -3.5q-133 -8 -326 -8q-17 -252 25 -252q19 0 32.5 35.5t22.5 78.5t31 78.5t55 35.5q45 0 50 -43q6 -47 -33 -91
q-20 -24 -48 -36q-1 -15 -1.5 -33.5t9 -34.5t27.5 -16q25 0 43 24t25.5 52.5t9.5 58.5q2 28 -7 54.5t-9 37.5q0 12 9.5 17t18.5 3q28 -6 42.5 -29t11.5 -52q6 28 35.5 53.5t56.5 25.5q41 0 60 -41.5t7 -86t-49 -52.5q-20 -3 -37.5 6.5t-17.5 30.5q0 11 17 11t24 7
q21 20 12 51t-39 27q-27 -5 -37.5 -47t-10 -89.5t-10.5 -85t-38 -34.5q-17 1 -27 29.5t-10 71.5q-11 -37 -33 -64.5t-55 -27.5t-59 24.5t-29 56.5q-32 -71 -68 -71q-25 0 -44 25.5t-25 52.5q-10 -31 -35.5 -56.5t-56.5 -25.5q-30 0 -54.5 23t-23.5 54q-10 -36 -34.5 -59.5
t-59.5 -23.5q-25 0 -47.5 13t-34.5 36q-26 -29 -60 -41q-61 -23 -97 18t-36 135q0 34 7.5 100t5 119.5t-22.5 112.5q-9 26 2 37.5t30 9.5t38 -12q37 -22 48.5 -79t5.5 -123t-13.5 -129t-3 -104.5t31.5 -41.5q26 0 41 25.5t20.5 62t12.5 73t25 62t49 25.5q53 0 48 -52
q-5 -50 -50 -98q-8 -9 -17 -16q-5 -26 6.5 -55t36.5 -29q21 0 35.5 23.5t20 62t7.5 73.5t2 74t1 47q-5 0 -23.5 -1.5t-30.5 -0.5t-28 4t-26.5 13t-14.5 26q-6 27 1.5 31t30.5 -6q15 -6 25 -9t28.5 -6.5t35.5 -3.5q0 27 7 40.5t27 13.5q37 0 37 -54l95 2q0 52 36 52
q16 0 26 -14t9 -36zM571 479q0 -5 -3 -80.5t2 -129t22 -54.5q19 -1 33 21t21 60t10.5 71t5.5 70.5t2 41.5h-93zM391 311q16 13 32 49t7 43q-12 12 -26 -26q-13 -36 -13 -66zM874 311q39 18 52 60q4 20 1 28.5t-14 6.5q-13 -3 -25 -37.5t-14 -57.5zM653 16v50h13v-50h-13z
M514 61v-10h8v-8h-8v-12q0 -7 8 -4v-11q-12 -4 -18 2q-2 3 -2 25h-4v8h4v6zM979 53q10 0 10 -16v-21h-8v19q0 6 -3.5 7.5t-7 -1.5t-3.5 -6v-19h-11v19q0 8 -6 8t-6 -6v-21h-10v35h8l2 -2q4 5 12 4t9 -8q5 8 14 8zM631 53q16 0 16 -16v-21h-14v19q0 4 -2 6t-4.5 1.5
t-3.5 -3.5v-23h-15v35h13l2 -2q4 4 8 4zM821 45q5 8 17 8v-12q-4 1 -9.5 -0.5t-5.5 -3.5v-21h-10v35h8v-6zM690 53q19 0 19 -22h-23q0 -13 19 -4l4 -9q-12 -6 -24.5 -1t-12.5 16q0 20 18 20zM909 53q19 0 19 -19.5t-19 -19.5q-13 0 -18 10t0 19.5t18 9.5zM866 35q0 -8 21 -8
v-9q-26 -8 -32 10q-5 15 11 22q9 4 21 1v-10q-5 3 -13 1.5t-8 -7.5zM590 16v35h10v-35h-10zM348 27l4 24h10l-8 -35h-10l-8 23l-6 -23h-11l-10 35h13l4 -24l6 24h10zM686 37h12q0 6 -6 6t-6 -6zM909 25q7 0 7 9t-7 9t-9 -4.5t0.5 -9t8.5 -4.5zM842 29q6 0 6 -7.5t-6 -7.5
t-6 7.5t6 7.5zM485 29q7 0 7 -7.5t-7 -7.5q-6 0 -6 7.5t6 7.5zM403 27l5 24h12l-10 -35h-11l-6 23l-8 -23h-10l-8 35h10l4 -24l6 24h10zM459 27l6 24h10l-8 -35h-12l-6 23l-7 -23h-12l-8 35h10l4 -24l8 24h9zM567 27l4 24h11l-9 -35h-10l-8 23l-6 -23h-10l-11 35h13l4 -24
l6 24h8zM594 66q6 0 6 -6.5t-6 -6.5q-5 0 -7 3.5t0 6.5t7 3zM788 53q19 0 19 -22h-23q0 -13 19 -4l4 -9q-13 -6 -25 -1.5t-12 16.5q0 20 18 20zM784 37h13q0 6 -6.5 6t-6.5 -6z" />
    <glyph glyph-name="quotesinglbase" unicode="&#x201a;" 
d="M758 61v-10h8v-8h-8v-12q0 -8 8 -4v-11q-3 -2 -9 -1.5t-9 3.5q-3 4 -3 25h-18v-12q0 -7 10 -4v-11q-13 -3 -18 2q-2 2 -2 13v12h-4v8h4v6l10 4v-10h18v6zM612 879q-15 22 -2.5 44.5t43.5 6.5q49 -21 49 -144q0 -16 -0.5 -29t-6 -46.5t-15 -56t-31 -41.5t-51.5 -19
q-29 0 -49 17t-23 44q-8 -26 -29.5 -41.5t-41.5 -15.5q-78 0 -78 166q0 141 88 141q26 0 32.5 -17t-5.5 -36q-22 -38 -31.5 -85.5t-3.5 -79.5t24 -32q15 0 19.5 30t3 66.5t9.5 67t38 31.5q33 1 37 -64q1 -19 0 -60q-1 -73 11 -81q5 -4 13 0q29 13 29 99t-29 135zM797 586
q-39 0 -58.5 41t-19.5 98q0 16 1.5 33.5t6 46.5t17.5 47t32 18q16 0 27.5 -13.5t11.5 -39.5q0 -12 -6 -57.5t-6 -77.5q0 -37 20 -37q7 0 13.5 6t11.5 17.5t9 25t6.5 31t5 32.5t4 32.5t2 28.5t1.5 23.5t1 14.5q3 23 12.5 34t30.5 11q13 0 21 -5.5t11.5 -17t5 -24.5
t-0.5 -33.5t-4.5 -37.5t-5.5 -42t-5 -43t1 -16q9 6 28 141v4q6 38 22 56t45 18q37 0 58.5 -27t13.5 -77q-3 -16 -6 -38.5t-6 -57t0 -56.5t14 -20q15 3 29 41.5t19.5 97.5t1 123.5t-30 127t-70.5 99.5q-54 45 -118.5 45t-116 -39t-72.5 -104q-20 -62 -54 -61q-28 1 -42 41
q-11 30 -5 67q12 72 81 132.5t157 72.5q93 12 170 -40.5t115 -154.5q35 -108 31 -218t-43 -193.5t-91 -83.5q-36 0 -50.5 39.5t-10.5 87.5q1 22 6 51.5t9 49t4 36t-7 22.5q-14 11 -21 -21q-4 -16 -11 -66q-16 -125 -40 -160q-16 -23 -39 -23q-39 0 -39 65q-7 -29 -26.5 -51
t-50.5 -22zM180 905q0 -13 -10 -20t-18 -7.5t-23 -0.5q-31 0 -58.5 13.5t-27.5 39.5q0 58 81.5 87t252.5 34q161 4 209 -9q57 -16 26 -55q-22 -26 -45.5 -32t-45.5 1t-68.5 13t-98.5 0q-2 -35 -6.5 -104.5t-6.5 -112t-0.5 -95t9.5 -88.5q3 -16 9 -34t10 -28t5 -19t-4.5 -13
t-19.5 -4q-27 0 -46 17t-28.5 39t-14.5 53t-6 48t-1 36q0 90 14 303q-1 0 -22 -1l-31.5 -1.5t-32.5 -2.5t-34.5 -4.5t-27.5 -6t-22.5 -9t-7.5 -12.5q3 -13 23 -10t43.5 1.5t23.5 -16.5zM784 879q-22 0 -33.5 16t-11.5 41q0 21 11.5 36t31.5 15q21 0 32 -14.5t11 -36.5
q0 -21 -10.5 -39t-30.5 -18zM735 530h68t102.5 2t104 7.5t117.5 19t100 33.5q2 1 5 2q6 4 9.5 3t3.5 -11q0 -25 -14 -44t-32 -28.5t-47.5 -16.5t-47 -8.5t-43.5 -3.5q-133 -8 -326 -8q-17 -252 25 -252q19 0 32.5 35.5t22.5 78.5t31 78.5t55 35.5q45 0 50 -43q6 -47 -33 -91
q-20 -24 -48 -36q-1 -15 -1.5 -33.5t9 -34.5t27.5 -16q25 0 43 24t25.5 52.5t9.5 58.5q2 28 -7 54.5t-9 37.5q0 12 9.5 17t18.5 3q28 -6 42.5 -29t11.5 -52q6 28 35.5 53.5t56.5 25.5q41 0 60 -41.5t7 -86t-49 -52.5q-20 -3 -37.5 6.5t-17.5 30.5q0 11 17 11t24 7
q21 20 12 51t-39 27q-27 -5 -37.5 -47t-10 -89.5t-10.5 -85t-38 -34.5q-17 1 -27 29.5t-10 71.5q-11 -37 -33 -64.5t-55 -27.5t-59 24.5t-29 56.5q-32 -71 -68 -71q-25 0 -44 25.5t-25 52.5q-10 -31 -35.5 -56.5t-56.5 -25.5q-30 0 -54.5 23t-23.5 54q-10 -36 -34.5 -59.5
t-59.5 -23.5q-25 0 -47.5 13t-34.5 36q-26 -29 -60 -41q-61 -23 -97 18t-36 135q0 34 7.5 100t5 119.5t-22.5 112.5q-9 26 2 37.5t30 9.5t38 -12q37 -22 48.5 -79t5.5 -123t-13.5 -129t-3 -104.5t31.5 -41.5q26 0 41 25.5t20.5 62t12.5 73t25 62t49 25.5q53 0 48 -52
q-5 -50 -50 -98q-8 -9 -17 -16q-5 -26 6.5 -55t36.5 -29q21 0 35.5 23.5t20 62t7.5 73.5t2 74t1 47q-5 0 -23.5 -1.5t-30.5 -0.5t-28 4t-26.5 13t-14.5 26q-6 27 1.5 31t30.5 -6q15 -6 25 -9t28.5 -6.5t35.5 -3.5q0 27 7 40.5t27 13.5q37 0 37 -54l95 2q0 52 36 52
q16 0 26 -14t9 -36zM571 479q0 -5 -3 -80.5t2 -129t22 -54.5q19 -1 33 21t21 60t10.5 71t5.5 70.5t2 41.5h-93zM391 311q16 13 32 49t7 43q-12 12 -26 -26q-13 -36 -13 -66zM874 311q39 18 52 60q4 20 1 28.5t-14 6.5q-13 -3 -25 -37.5t-14 -57.5zM653 16v50h13v-50h-13z
M514 61v-10h8v-8h-8v-12q0 -7 8 -4v-11q-12 -4 -18 2q-2 3 -2 25h-4v8h4v6zM979 53q10 0 10 -16v-21h-8v19q0 6 -3.5 7.5t-7 -1.5t-3.5 -6v-19h-11v19q0 8 -6 8t-6 -6v-21h-10v35h8l2 -2q4 5 12 4t9 -8q5 8 14 8zM631 53q16 0 16 -16v-21h-14v19q0 4 -2 6t-4.5 1.5
t-3.5 -3.5v-23h-15v35h13l2 -2q4 4 8 4zM821 45q5 8 17 8v-12q-4 1 -9.5 -0.5t-5.5 -3.5v-21h-10v35h8v-6zM690 53q19 0 19 -22h-23q0 -13 19 -4l4 -9q-12 -6 -24.5 -1t-12.5 16q0 20 18 20zM909 53q19 0 19 -19.5t-19 -19.5q-13 0 -18 10t0 19.5t18 9.5zM866 35q0 -8 21 -8
v-9q-26 -8 -32 10q-5 15 11 22q9 4 21 1v-10q-5 3 -13 1.5t-8 -7.5zM590 16v35h10v-35h-10zM348 27l4 24h10l-8 -35h-10l-8 23l-6 -23h-11l-10 35h13l4 -24l6 24h10zM686 37h12q0 6 -6 6t-6 -6zM909 25q7 0 7 9t-7 9t-9 -4.5t0.5 -9t8.5 -4.5zM842 29q6 0 6 -7.5t-6 -7.5
t-6 7.5t6 7.5zM485 29q7 0 7 -7.5t-7 -7.5q-6 0 -6 7.5t6 7.5zM403 27l5 24h12l-10 -35h-11l-6 23l-8 -23h-10l-8 35h10l4 -24l6 24h10zM459 27l6 24h10l-8 -35h-12l-6 23l-7 -23h-12l-8 35h10l4 -24l8 24h9zM567 27l4 24h11l-9 -35h-10l-8 23l-6 -23h-10l-11 35h13l4 -24
l6 24h8zM594 66q6 0 6 -6.5t-6 -6.5q-5 0 -7 3.5t0 6.5t7 3zM788 53q19 0 19 -22h-23q0 -13 19 -4l4 -9q-13 -6 -25 -1.5t-12 16.5q0 20 18 20zM784 37h13q0 6 -6.5 6t-6.5 -6z" />
    <glyph glyph-name="quotedblleft" unicode="&#x201c;" 
d="M758 61v-10h8v-8h-8v-12q0 -8 8 -4v-11q-3 -2 -9 -1.5t-9 3.5q-3 4 -3 25h-18v-12q0 -7 10 -4v-11q-13 -3 -18 2q-2 2 -2 13v12h-4v8h4v6l10 4v-10h18v6zM612 879q-15 22 -2.5 44.5t43.5 6.5q49 -21 49 -144q0 -16 -0.5 -29t-6 -46.5t-15 -56t-31 -41.5t-51.5 -19
q-29 0 -49 17t-23 44q-8 -26 -29.5 -41.5t-41.5 -15.5q-78 0 -78 166q0 141 88 141q26 0 32.5 -17t-5.5 -36q-22 -38 -31.5 -85.5t-3.5 -79.5t24 -32q15 0 19.5 30t3 66.5t9.5 67t38 31.5q33 1 37 -64q1 -19 0 -60q-1 -73 11 -81q5 -4 13 0q29 13 29 99t-29 135zM797 586
q-39 0 -58.5 41t-19.5 98q0 16 1.5 33.5t6 46.5t17.5 47t32 18q16 0 27.5 -13.5t11.5 -39.5q0 -12 -6 -57.5t-6 -77.5q0 -37 20 -37q7 0 13.5 6t11.5 17.5t9 25t6.5 31t5 32.5t4 32.5t2 28.5t1.5 23.5t1 14.5q3 23 12.5 34t30.5 11q13 0 21 -5.5t11.5 -17t5 -24.5
t-0.5 -33.5t-4.5 -37.5t-5.5 -42t-5 -43t1 -16q9 6 28 141v4q6 38 22 56t45 18q37 0 58.5 -27t13.5 -77q-3 -16 -6 -38.5t-6 -57t0 -56.5t14 -20q15 3 29 41.5t19.5 97.5t1 123.5t-30 127t-70.5 99.5q-54 45 -118.5 45t-116 -39t-72.5 -104q-20 -62 -54 -61q-28 1 -42 41
q-11 30 -5 67q12 72 81 132.5t157 72.5q93 12 170 -40.5t115 -154.5q35 -108 31 -218t-43 -193.5t-91 -83.5q-36 0 -50.5 39.5t-10.5 87.5q1 22 6 51.5t9 49t4 36t-7 22.5q-14 11 -21 -21q-4 -16 -11 -66q-16 -125 -40 -160q-16 -23 -39 -23q-39 0 -39 65q-7 -29 -26.5 -51
t-50.5 -22zM180 905q0 -13 -10 -20t-18 -7.5t-23 -0.5q-31 0 -58.5 13.5t-27.5 39.5q0 58 81.5 87t252.5 34q161 4 209 -9q57 -16 26 -55q-22 -26 -45.5 -32t-45.5 1t-68.5 13t-98.5 0q-2 -35 -6.5 -104.5t-6.5 -112t-0.5 -95t9.5 -88.5q3 -16 9 -34t10 -28t5 -19t-4.5 -13
t-19.5 -4q-27 0 -46 17t-28.5 39t-14.5 53t-6 48t-1 36q0 90 14 303q-1 0 -22 -1l-31.5 -1.5t-32.5 -2.5t-34.5 -4.5t-27.5 -6t-22.5 -9t-7.5 -12.5q3 -13 23 -10t43.5 1.5t23.5 -16.5zM784 879q-22 0 -33.5 16t-11.5 41q0 21 11.5 36t31.5 15q21 0 32 -14.5t11 -36.5
q0 -21 -10.5 -39t-30.5 -18zM735 530h68t102.5 2t104 7.5t117.5 19t100 33.5q2 1 5 2q6 4 9.5 3t3.5 -11q0 -25 -14 -44t-32 -28.5t-47.5 -16.5t-47 -8.5t-43.5 -3.5q-133 -8 -326 -8q-17 -252 25 -252q19 0 32.5 35.5t22.5 78.5t31 78.5t55 35.5q45 0 50 -43q6 -47 -33 -91
q-20 -24 -48 -36q-1 -15 -1.5 -33.5t9 -34.5t27.5 -16q25 0 43 24t25.5 52.5t9.5 58.5q2 28 -7 54.5t-9 37.5q0 12 9.5 17t18.5 3q28 -6 42.5 -29t11.5 -52q6 28 35.5 53.5t56.5 25.5q41 0 60 -41.5t7 -86t-49 -52.5q-20 -3 -37.5 6.5t-17.5 30.5q0 11 17 11t24 7
q21 20 12 51t-39 27q-27 -5 -37.5 -47t-10 -89.5t-10.5 -85t-38 -34.5q-17 1 -27 29.5t-10 71.5q-11 -37 -33 -64.5t-55 -27.5t-59 24.5t-29 56.5q-32 -71 -68 -71q-25 0 -44 25.5t-25 52.5q-10 -31 -35.5 -56.5t-56.5 -25.5q-30 0 -54.5 23t-23.5 54q-10 -36 -34.5 -59.5
t-59.5 -23.5q-25 0 -47.5 13t-34.5 36q-26 -29 -60 -41q-61 -23 -97 18t-36 135q0 34 7.5 100t5 119.5t-22.5 112.5q-9 26 2 37.5t30 9.5t38 -12q37 -22 48.5 -79t5.5 -123t-13.5 -129t-3 -104.5t31.5 -41.5q26 0 41 25.5t20.5 62t12.5 73t25 62t49 25.5q53 0 48 -52
q-5 -50 -50 -98q-8 -9 -17 -16q-5 -26 6.5 -55t36.5 -29q21 0 35.5 23.5t20 62t7.5 73.5t2 74t1 47q-5 0 -23.5 -1.5t-30.5 -0.5t-28 4t-26.5 13t-14.5 26q-6 27 1.5 31t30.5 -6q15 -6 25 -9t28.5 -6.5t35.5 -3.5q0 27 7 40.5t27 13.5q37 0 37 -54l95 2q0 52 36 52
q16 0 26 -14t9 -36zM571 479q0 -5 -3 -80.5t2 -129t22 -54.5q19 -1 33 21t21 60t10.5 71t5.5 70.5t2 41.5h-93zM391 311q16 13 32 49t7 43q-12 12 -26 -26q-13 -36 -13 -66zM874 311q39 18 52 60q4 20 1 28.5t-14 6.5q-13 -3 -25 -37.5t-14 -57.5zM653 16v50h13v-50h-13z
M514 61v-10h8v-8h-8v-12q0 -7 8 -4v-11q-12 -4 -18 2q-2 3 -2 25h-4v8h4v6zM979 53q10 0 10 -16v-21h-8v19q0 6 -3.5 7.5t-7 -1.5t-3.5 -6v-19h-11v19q0 8 -6 8t-6 -6v-21h-10v35h8l2 -2q4 5 12 4t9 -8q5 8 14 8zM631 53q16 0 16 -16v-21h-14v19q0 4 -2 6t-4.5 1.5
t-3.5 -3.5v-23h-15v35h13l2 -2q4 4 8 4zM821 45q5 8 17 8v-12q-4 1 -9.5 -0.5t-5.5 -3.5v-21h-10v35h8v-6zM690 53q19 0 19 -22h-23q0 -13 19 -4l4 -9q-12 -6 -24.5 -1t-12.5 16q0 20 18 20zM909 53q19 0 19 -19.5t-19 -19.5q-13 0 -18 10t0 19.5t18 9.5zM866 35q0 -8 21 -8
v-9q-26 -8 -32 10q-5 15 11 22q9 4 21 1v-10q-5 3 -13 1.5t-8 -7.5zM590 16v35h10v-35h-10zM348 27l4 24h10l-8 -35h-10l-8 23l-6 -23h-11l-10 35h13l4 -24l6 24h10zM686 37h12q0 6 -6 6t-6 -6zM909 25q7 0 7 9t-7 9t-9 -4.5t0.5 -9t8.5 -4.5zM842 29q6 0 6 -7.5t-6 -7.5
t-6 7.5t6 7.5zM485 29q7 0 7 -7.5t-7 -7.5q-6 0 -6 7.5t6 7.5zM403 27l5 24h12l-10 -35h-11l-6 23l-8 -23h-10l-8 35h10l4 -24l6 24h10zM459 27l6 24h10l-8 -35h-12l-6 23l-7 -23h-12l-8 35h10l4 -24l8 24h9zM567 27l4 24h11l-9 -35h-10l-8 23l-6 -23h-10l-11 35h13l4 -24
l6 24h8zM594 66q6 0 6 -6.5t-6 -6.5q-5 0 -7 3.5t0 6.5t7 3zM788 53q19 0 19 -22h-23q0 -13 19 -4l4 -9q-13 -6 -25 -1.5t-12 16.5q0 20 18 20zM784 37h13q0 6 -6.5 6t-6.5 -6z" />
    <glyph glyph-name="quotedblright" unicode="&#x201d;" 
d="M758 61v-10h8v-8h-8v-12q0 -8 8 -4v-11q-3 -2 -9 -1.5t-9 3.5q-3 4 -3 25h-18v-12q0 -7 10 -4v-11q-13 -3 -18 2q-2 2 -2 13v12h-4v8h4v6l10 4v-10h18v6zM612 879q-15 22 -2.5 44.5t43.5 6.5q49 -21 49 -144q0 -16 -0.5 -29t-6 -46.5t-15 -56t-31 -41.5t-51.5 -19
q-29 0 -49 17t-23 44q-8 -26 -29.5 -41.5t-41.5 -15.5q-78 0 -78 166q0 141 88 141q26 0 32.5 -17t-5.5 -36q-22 -38 -31.5 -85.5t-3.5 -79.5t24 -32q15 0 19.5 30t3 66.5t9.5 67t38 31.5q33 1 37 -64q1 -19 0 -60q-1 -73 11 -81q5 -4 13 0q29 13 29 99t-29 135zM797 586
q-39 0 -58.5 41t-19.5 98q0 16 1.5 33.5t6 46.5t17.5 47t32 18q16 0 27.5 -13.5t11.5 -39.5q0 -12 -6 -57.5t-6 -77.5q0 -37 20 -37q7 0 13.5 6t11.5 17.5t9 25t6.5 31t5 32.5t4 32.5t2 28.5t1.5 23.5t1 14.5q3 23 12.5 34t30.5 11q13 0 21 -5.5t11.5 -17t5 -24.5
t-0.5 -33.5t-4.5 -37.5t-5.5 -42t-5 -43t1 -16q9 6 28 141v4q6 38 22 56t45 18q37 0 58.5 -27t13.5 -77q-3 -16 -6 -38.5t-6 -57t0 -56.5t14 -20q15 3 29 41.5t19.5 97.5t1 123.5t-30 127t-70.5 99.5q-54 45 -118.5 45t-116 -39t-72.5 -104q-20 -62 -54 -61q-28 1 -42 41
q-11 30 -5 67q12 72 81 132.5t157 72.5q93 12 170 -40.5t115 -154.5q35 -108 31 -218t-43 -193.5t-91 -83.5q-36 0 -50.5 39.5t-10.5 87.5q1 22 6 51.5t9 49t4 36t-7 22.5q-14 11 -21 -21q-4 -16 -11 -66q-16 -125 -40 -160q-16 -23 -39 -23q-39 0 -39 65q-7 -29 -26.5 -51
t-50.5 -22zM180 905q0 -13 -10 -20t-18 -7.5t-23 -0.5q-31 0 -58.5 13.5t-27.5 39.5q0 58 81.5 87t252.5 34q161 4 209 -9q57 -16 26 -55q-22 -26 -45.5 -32t-45.5 1t-68.5 13t-98.5 0q-2 -35 -6.5 -104.5t-6.5 -112t-0.5 -95t9.5 -88.5q3 -16 9 -34t10 -28t5 -19t-4.5 -13
t-19.5 -4q-27 0 -46 17t-28.5 39t-14.5 53t-6 48t-1 36q0 90 14 303q-1 0 -22 -1l-31.5 -1.5t-32.5 -2.5t-34.5 -4.5t-27.5 -6t-22.5 -9t-7.5 -12.5q3 -13 23 -10t43.5 1.5t23.5 -16.5zM784 879q-22 0 -33.5 16t-11.5 41q0 21 11.5 36t31.5 15q21 0 32 -14.5t11 -36.5
q0 -21 -10.5 -39t-30.5 -18zM735 530h68t102.5 2t104 7.5t117.5 19t100 33.5q2 1 5 2q6 4 9.5 3t3.5 -11q0 -25 -14 -44t-32 -28.5t-47.5 -16.5t-47 -8.5t-43.5 -3.5q-133 -8 -326 -8q-17 -252 25 -252q19 0 32.5 35.5t22.5 78.5t31 78.5t55 35.5q45 0 50 -43q6 -47 -33 -91
q-20 -24 -48 -36q-1 -15 -1.5 -33.5t9 -34.5t27.5 -16q25 0 43 24t25.5 52.5t9.5 58.5q2 28 -7 54.5t-9 37.5q0 12 9.5 17t18.5 3q28 -6 42.5 -29t11.5 -52q6 28 35.5 53.5t56.5 25.5q41 0 60 -41.5t7 -86t-49 -52.5q-20 -3 -37.5 6.5t-17.5 30.5q0 11 17 11t24 7
q21 20 12 51t-39 27q-27 -5 -37.5 -47t-10 -89.5t-10.5 -85t-38 -34.5q-17 1 -27 29.5t-10 71.5q-11 -37 -33 -64.5t-55 -27.5t-59 24.5t-29 56.5q-32 -71 -68 -71q-25 0 -44 25.5t-25 52.5q-10 -31 -35.5 -56.5t-56.5 -25.5q-30 0 -54.5 23t-23.5 54q-10 -36 -34.5 -59.5
t-59.5 -23.5q-25 0 -47.5 13t-34.5 36q-26 -29 -60 -41q-61 -23 -97 18t-36 135q0 34 7.5 100t5 119.5t-22.5 112.5q-9 26 2 37.5t30 9.5t38 -12q37 -22 48.5 -79t5.5 -123t-13.5 -129t-3 -104.5t31.5 -41.5q26 0 41 25.5t20.5 62t12.5 73t25 62t49 25.5q53 0 48 -52
q-5 -50 -50 -98q-8 -9 -17 -16q-5 -26 6.5 -55t36.5 -29q21 0 35.5 23.5t20 62t7.5 73.5t2 74t1 47q-5 0 -23.5 -1.5t-30.5 -0.5t-28 4t-26.5 13t-14.5 26q-6 27 1.5 31t30.5 -6q15 -6 25 -9t28.5 -6.5t35.5 -3.5q0 27 7 40.5t27 13.5q37 0 37 -54l95 2q0 52 36 52
q16 0 26 -14t9 -36zM571 479q0 -5 -3 -80.5t2 -129t22 -54.5q19 -1 33 21t21 60t10.5 71t5.5 70.5t2 41.5h-93zM391 311q16 13 32 49t7 43q-12 12 -26 -26q-13 -36 -13 -66zM874 311q39 18 52 60q4 20 1 28.5t-14 6.5q-13 -3 -25 -37.5t-14 -57.5zM653 16v50h13v-50h-13z
M514 61v-10h8v-8h-8v-12q0 -7 8 -4v-11q-12 -4 -18 2q-2 3 -2 25h-4v8h4v6zM979 53q10 0 10 -16v-21h-8v19q0 6 -3.5 7.5t-7 -1.5t-3.5 -6v-19h-11v19q0 8 -6 8t-6 -6v-21h-10v35h8l2 -2q4 5 12 4t9 -8q5 8 14 8zM631 53q16 0 16 -16v-21h-14v19q0 4 -2 6t-4.5 1.5
t-3.5 -3.5v-23h-15v35h13l2 -2q4 4 8 4zM821 45q5 8 17 8v-12q-4 1 -9.5 -0.5t-5.5 -3.5v-21h-10v35h8v-6zM690 53q19 0 19 -22h-23q0 -13 19 -4l4 -9q-12 -6 -24.5 -1t-12.5 16q0 20 18 20zM909 53q19 0 19 -19.5t-19 -19.5q-13 0 -18 10t0 19.5t18 9.5zM866 35q0 -8 21 -8
v-9q-26 -8 -32 10q-5 15 11 22q9 4 21 1v-10q-5 3 -13 1.5t-8 -7.5zM590 16v35h10v-35h-10zM348 27l4 24h10l-8 -35h-10l-8 23l-6 -23h-11l-10 35h13l4 -24l6 24h10zM686 37h12q0 6 -6 6t-6 -6zM909 25q7 0 7 9t-7 9t-9 -4.5t0.5 -9t8.5 -4.5zM842 29q6 0 6 -7.5t-6 -7.5
t-6 7.5t6 7.5zM485 29q7 0 7 -7.5t-7 -7.5q-6 0 -6 7.5t6 7.5zM403 27l5 24h12l-10 -35h-11l-6 23l-8 -23h-10l-8 35h10l4 -24l6 24h10zM459 27l6 24h10l-8 -35h-12l-6 23l-7 -23h-12l-8 35h10l4 -24l8 24h9zM567 27l4 24h11l-9 -35h-10l-8 23l-6 -23h-10l-11 35h13l4 -24
l6 24h8zM594 66q6 0 6 -6.5t-6 -6.5q-5 0 -7 3.5t0 6.5t7 3zM788 53q19 0 19 -22h-23q0 -13 19 -4l4 -9q-13 -6 -25 -1.5t-12 16.5q0 20 18 20zM784 37h13q0 6 -6.5 6t-6.5 -6z" />
    <glyph glyph-name="quotedblbase" unicode="&#x201e;" 
d="M758 61v-10h8v-8h-8v-12q0 -8 8 -4v-11q-3 -2 -9 -1.5t-9 3.5q-3 4 -3 25h-18v-12q0 -7 10 -4v-11q-13 -3 -18 2q-2 2 -2 13v12h-4v8h4v6l10 4v-10h18v6zM612 879q-15 22 -2.5 44.5t43.5 6.5q49 -21 49 -144q0 -16 -0.5 -29t-6 -46.5t-15 -56t-31 -41.5t-51.5 -19
q-29 0 -49 17t-23 44q-8 -26 -29.5 -41.5t-41.5 -15.5q-78 0 -78 166q0 141 88 141q26 0 32.5 -17t-5.5 -36q-22 -38 -31.5 -85.5t-3.5 -79.5t24 -32q15 0 19.5 30t3 66.5t9.5 67t38 31.5q33 1 37 -64q1 -19 0 -60q-1 -73 11 -81q5 -4 13 0q29 13 29 99t-29 135zM797 586
q-39 0 -58.5 41t-19.5 98q0 16 1.5 33.5t6 46.5t17.5 47t32 18q16 0 27.5 -13.5t11.5 -39.5q0 -12 -6 -57.5t-6 -77.5q0 -37 20 -37q7 0 13.5 6t11.5 17.5t9 25t6.5 31t5 32.5t4 32.5t2 28.5t1.5 23.5t1 14.5q3 23 12.5 34t30.5 11q13 0 21 -5.5t11.5 -17t5 -24.5
t-0.5 -33.5t-4.5 -37.5t-5.5 -42t-5 -43t1 -16q9 6 28 141v4q6 38 22 56t45 18q37 0 58.5 -27t13.5 -77q-3 -16 -6 -38.5t-6 -57t0 -56.5t14 -20q15 3 29 41.5t19.5 97.5t1 123.5t-30 127t-70.5 99.5q-54 45 -118.5 45t-116 -39t-72.5 -104q-20 -62 -54 -61q-28 1 -42 41
q-11 30 -5 67q12 72 81 132.5t157 72.5q93 12 170 -40.5t115 -154.5q35 -108 31 -218t-43 -193.5t-91 -83.5q-36 0 -50.5 39.5t-10.5 87.5q1 22 6 51.5t9 49t4 36t-7 22.5q-14 11 -21 -21q-4 -16 -11 -66q-16 -125 -40 -160q-16 -23 -39 -23q-39 0 -39 65q-7 -29 -26.5 -51
t-50.5 -22zM180 905q0 -13 -10 -20t-18 -7.5t-23 -0.5q-31 0 -58.5 13.5t-27.5 39.5q0 58 81.5 87t252.5 34q161 4 209 -9q57 -16 26 -55q-22 -26 -45.5 -32t-45.5 1t-68.5 13t-98.5 0q-2 -35 -6.5 -104.5t-6.5 -112t-0.5 -95t9.5 -88.5q3 -16 9 -34t10 -28t5 -19t-4.5 -13
t-19.5 -4q-27 0 -46 17t-28.5 39t-14.5 53t-6 48t-1 36q0 90 14 303q-1 0 -22 -1l-31.5 -1.5t-32.5 -2.5t-34.5 -4.5t-27.5 -6t-22.5 -9t-7.5 -12.5q3 -13 23 -10t43.5 1.5t23.5 -16.5zM784 879q-22 0 -33.5 16t-11.5 41q0 21 11.5 36t31.5 15q21 0 32 -14.5t11 -36.5
q0 -21 -10.5 -39t-30.5 -18zM735 530h68t102.5 2t104 7.5t117.5 19t100 33.5q2 1 5 2q6 4 9.5 3t3.5 -11q0 -25 -14 -44t-32 -28.5t-47.5 -16.5t-47 -8.5t-43.5 -3.5q-133 -8 -326 -8q-17 -252 25 -252q19 0 32.5 35.5t22.5 78.5t31 78.5t55 35.5q45 0 50 -43q6 -47 -33 -91
q-20 -24 -48 -36q-1 -15 -1.5 -33.5t9 -34.5t27.5 -16q25 0 43 24t25.5 52.5t9.5 58.5q2 28 -7 54.5t-9 37.5q0 12 9.5 17t18.5 3q28 -6 42.5 -29t11.5 -52q6 28 35.5 53.5t56.5 25.5q41 0 60 -41.5t7 -86t-49 -52.5q-20 -3 -37.5 6.5t-17.5 30.5q0 11 17 11t24 7
q21 20 12 51t-39 27q-27 -5 -37.5 -47t-10 -89.5t-10.5 -85t-38 -34.5q-17 1 -27 29.5t-10 71.5q-11 -37 -33 -64.5t-55 -27.5t-59 24.5t-29 56.5q-32 -71 -68 -71q-25 0 -44 25.5t-25 52.5q-10 -31 -35.5 -56.5t-56.5 -25.5q-30 0 -54.5 23t-23.5 54q-10 -36 -34.5 -59.5
t-59.5 -23.5q-25 0 -47.5 13t-34.5 36q-26 -29 -60 -41q-61 -23 -97 18t-36 135q0 34 7.5 100t5 119.5t-22.5 112.5q-9 26 2 37.5t30 9.5t38 -12q37 -22 48.5 -79t5.5 -123t-13.5 -129t-3 -104.5t31.5 -41.5q26 0 41 25.5t20.5 62t12.5 73t25 62t49 25.5q53 0 48 -52
q-5 -50 -50 -98q-8 -9 -17 -16q-5 -26 6.5 -55t36.5 -29q21 0 35.5 23.5t20 62t7.5 73.5t2 74t1 47q-5 0 -23.5 -1.5t-30.5 -0.5t-28 4t-26.5 13t-14.5 26q-6 27 1.5 31t30.5 -6q15 -6 25 -9t28.5 -6.5t35.5 -3.5q0 27 7 40.5t27 13.5q37 0 37 -54l95 2q0 52 36 52
q16 0 26 -14t9 -36zM571 479q0 -5 -3 -80.5t2 -129t22 -54.5q19 -1 33 21t21 60t10.5 71t5.5 70.5t2 41.5h-93zM391 311q16 13 32 49t7 43q-12 12 -26 -26q-13 -36 -13 -66zM874 311q39 18 52 60q4 20 1 28.5t-14 6.5q-13 -3 -25 -37.5t-14 -57.5zM653 16v50h13v-50h-13z
M514 61v-10h8v-8h-8v-12q0 -7 8 -4v-11q-12 -4 -18 2q-2 3 -2 25h-4v8h4v6zM979 53q10 0 10 -16v-21h-8v19q0 6 -3.5 7.5t-7 -1.5t-3.5 -6v-19h-11v19q0 8 -6 8t-6 -6v-21h-10v35h8l2 -2q4 5 12 4t9 -8q5 8 14 8zM631 53q16 0 16 -16v-21h-14v19q0 4 -2 6t-4.5 1.5
t-3.5 -3.5v-23h-15v35h13l2 -2q4 4 8 4zM821 45q5 8 17 8v-12q-4 1 -9.5 -0.5t-5.5 -3.5v-21h-10v35h8v-6zM690 53q19 0 19 -22h-23q0 -13 19 -4l4 -9q-12 -6 -24.5 -1t-12.5 16q0 20 18 20zM909 53q19 0 19 -19.5t-19 -19.5q-13 0 -18 10t0 19.5t18 9.5zM866 35q0 -8 21 -8
v-9q-26 -8 -32 10q-5 15 11 22q9 4 21 1v-10q-5 3 -13 1.5t-8 -7.5zM590 16v35h10v-35h-10zM348 27l4 24h10l-8 -35h-10l-8 23l-6 -23h-11l-10 35h13l4 -24l6 24h10zM686 37h12q0 6 -6 6t-6 -6zM909 25q7 0 7 9t-7 9t-9 -4.5t0.5 -9t8.5 -4.5zM842 29q6 0 6 -7.5t-6 -7.5
t-6 7.5t6 7.5zM485 29q7 0 7 -7.5t-7 -7.5q-6 0 -6 7.5t6 7.5zM403 27l5 24h12l-10 -35h-11l-6 23l-8 -23h-10l-8 35h10l4 -24l6 24h10zM459 27l6 24h10l-8 -35h-12l-6 23l-7 -23h-12l-8 35h10l4 -24l8 24h9zM567 27l4 24h11l-9 -35h-10l-8 23l-6 -23h-10l-11 35h13l4 -24
l6 24h8zM594 66q6 0 6 -6.5t-6 -6.5q-5 0 -7 3.5t0 6.5t7 3zM788 53q19 0 19 -22h-23q0 -13 19 -4l4 -9q-13 -6 -25 -1.5t-12 16.5q0 20 18 20zM784 37h13q0 6 -6.5 6t-6.5 -6z" />
    <glyph glyph-name="bullet" unicode="&#x2022;" 
d="M758 61v-10h8v-8h-8v-12q0 -8 8 -4v-11q-3 -2 -9 -1.5t-9 3.5q-3 4 -3 25h-18v-12q0 -7 10 -4v-11q-13 -3 -18 2q-2 2 -2 13v12h-4v8h4v6l10 4v-10h18v6zM612 879q-15 22 -2.5 44.5t43.5 6.5q49 -21 49 -144q0 -16 -0.5 -29t-6 -46.5t-15 -56t-31 -41.5t-51.5 -19
q-29 0 -49 17t-23 44q-8 -26 -29.5 -41.5t-41.5 -15.5q-78 0 -78 166q0 141 88 141q26 0 32.5 -17t-5.5 -36q-22 -38 -31.5 -85.5t-3.5 -79.5t24 -32q15 0 19.5 30t3 66.5t9.5 67t38 31.5q33 1 37 -64q1 -19 0 -60q-1 -73 11 -81q5 -4 13 0q29 13 29 99t-29 135zM797 586
q-39 0 -58.5 41t-19.5 98q0 16 1.5 33.5t6 46.5t17.5 47t32 18q16 0 27.5 -13.5t11.5 -39.5q0 -12 -6 -57.5t-6 -77.5q0 -37 20 -37q7 0 13.5 6t11.5 17.5t9 25t6.5 31t5 32.5t4 32.5t2 28.5t1.5 23.5t1 14.5q3 23 12.5 34t30.5 11q13 0 21 -5.5t11.5 -17t5 -24.5
t-0.5 -33.5t-4.5 -37.5t-5.5 -42t-5 -43t1 -16q9 6 28 141v4q6 38 22 56t45 18q37 0 58.5 -27t13.5 -77q-3 -16 -6 -38.5t-6 -57t0 -56.5t14 -20q15 3 29 41.5t19.5 97.5t1 123.5t-30 127t-70.5 99.5q-54 45 -118.5 45t-116 -39t-72.5 -104q-20 -62 -54 -61q-28 1 -42 41
q-11 30 -5 67q12 72 81 132.5t157 72.5q93 12 170 -40.5t115 -154.5q35 -108 31 -218t-43 -193.5t-91 -83.5q-36 0 -50.5 39.5t-10.5 87.5q1 22 6 51.5t9 49t4 36t-7 22.5q-14 11 -21 -21q-4 -16 -11 -66q-16 -125 -40 -160q-16 -23 -39 -23q-39 0 -39 65q-7 -29 -26.5 -51
t-50.5 -22zM180 905q0 -13 -10 -20t-18 -7.5t-23 -0.5q-31 0 -58.5 13.5t-27.5 39.5q0 58 81.5 87t252.5 34q161 4 209 -9q57 -16 26 -55q-22 -26 -45.5 -32t-45.5 1t-68.5 13t-98.5 0q-2 -35 -6.5 -104.5t-6.5 -112t-0.5 -95t9.5 -88.5q3 -16 9 -34t10 -28t5 -19t-4.5 -13
t-19.5 -4q-27 0 -46 17t-28.5 39t-14.5 53t-6 48t-1 36q0 90 14 303q-1 0 -22 -1l-31.5 -1.5t-32.5 -2.5t-34.5 -4.5t-27.5 -6t-22.5 -9t-7.5 -12.5q3 -13 23 -10t43.5 1.5t23.5 -16.5zM784 879q-22 0 -33.5 16t-11.5 41q0 21 11.5 36t31.5 15q21 0 32 -14.5t11 -36.5
q0 -21 -10.5 -39t-30.5 -18zM735 530h68t102.5 2t104 7.5t117.5 19t100 33.5q2 1 5 2q6 4 9.5 3t3.5 -11q0 -25 -14 -44t-32 -28.5t-47.5 -16.5t-47 -8.5t-43.5 -3.5q-133 -8 -326 -8q-17 -252 25 -252q19 0 32.5 35.5t22.5 78.5t31 78.5t55 35.5q45 0 50 -43q6 -47 -33 -91
q-20 -24 -48 -36q-1 -15 -1.5 -33.5t9 -34.5t27.5 -16q25 0 43 24t25.5 52.5t9.5 58.5q2 28 -7 54.5t-9 37.5q0 12 9.5 17t18.5 3q28 -6 42.5 -29t11.5 -52q6 28 35.5 53.5t56.5 25.5q41 0 60 -41.5t7 -86t-49 -52.5q-20 -3 -37.5 6.5t-17.5 30.5q0 11 17 11t24 7
q21 20 12 51t-39 27q-27 -5 -37.5 -47t-10 -89.5t-10.5 -85t-38 -34.5q-17 1 -27 29.5t-10 71.5q-11 -37 -33 -64.5t-55 -27.5t-59 24.5t-29 56.5q-32 -71 -68 -71q-25 0 -44 25.5t-25 52.5q-10 -31 -35.5 -56.5t-56.5 -25.5q-30 0 -54.5 23t-23.5 54q-10 -36 -34.5 -59.5
t-59.5 -23.5q-25 0 -47.5 13t-34.5 36q-26 -29 -60 -41q-61 -23 -97 18t-36 135q0 34 7.5 100t5 119.5t-22.5 112.5q-9 26 2 37.5t30 9.5t38 -12q37 -22 48.5 -79t5.5 -123t-13.5 -129t-3 -104.5t31.5 -41.5q26 0 41 25.5t20.5 62t12.5 73t25 62t49 25.5q53 0 48 -52
q-5 -50 -50 -98q-8 -9 -17 -16q-5 -26 6.5 -55t36.5 -29q21 0 35.5 23.5t20 62t7.5 73.5t2 74t1 47q-5 0 -23.5 -1.5t-30.5 -0.5t-28 4t-26.5 13t-14.5 26q-6 27 1.5 31t30.5 -6q15 -6 25 -9t28.5 -6.5t35.5 -3.5q0 27 7 40.5t27 13.5q37 0 37 -54l95 2q0 52 36 52
q16 0 26 -14t9 -36zM571 479q0 -5 -3 -80.5t2 -129t22 -54.5q19 -1 33 21t21 60t10.5 71t5.5 70.5t2 41.5h-93zM391 311q16 13 32 49t7 43q-12 12 -26 -26q-13 -36 -13 -66zM874 311q39 18 52 60q4 20 1 28.5t-14 6.5q-13 -3 -25 -37.5t-14 -57.5zM653 16v50h13v-50h-13z
M514 61v-10h8v-8h-8v-12q0 -7 8 -4v-11q-12 -4 -18 2q-2 3 -2 25h-4v8h4v6zM979 53q10 0 10 -16v-21h-8v19q0 6 -3.5 7.5t-7 -1.5t-3.5 -6v-19h-11v19q0 8 -6 8t-6 -6v-21h-10v35h8l2 -2q4 5 12 4t9 -8q5 8 14 8zM631 53q16 0 16 -16v-21h-14v19q0 4 -2 6t-4.5 1.5
t-3.5 -3.5v-23h-15v35h13l2 -2q4 4 8 4zM821 45q5 8 17 8v-12q-4 1 -9.5 -0.5t-5.5 -3.5v-21h-10v35h8v-6zM690 53q19 0 19 -22h-23q0 -13 19 -4l4 -9q-12 -6 -24.5 -1t-12.5 16q0 20 18 20zM909 53q19 0 19 -19.5t-19 -19.5q-13 0 -18 10t0 19.5t18 9.5zM866 35q0 -8 21 -8
v-9q-26 -8 -32 10q-5 15 11 22q9 4 21 1v-10q-5 3 -13 1.5t-8 -7.5zM590 16v35h10v-35h-10zM348 27l4 24h10l-8 -35h-10l-8 23l-6 -23h-11l-10 35h13l4 -24l6 24h10zM686 37h12q0 6 -6 6t-6 -6zM909 25q7 0 7 9t-7 9t-9 -4.5t0.5 -9t8.5 -4.5zM842 29q6 0 6 -7.5t-6 -7.5
t-6 7.5t6 7.5zM485 29q7 0 7 -7.5t-7 -7.5q-6 0 -6 7.5t6 7.5zM403 27l5 24h12l-10 -35h-11l-6 23l-8 -23h-10l-8 35h10l4 -24l6 24h10zM459 27l6 24h10l-8 -35h-12l-6 23l-7 -23h-12l-8 35h10l4 -24l8 24h9zM567 27l4 24h11l-9 -35h-10l-8 23l-6 -23h-10l-11 35h13l4 -24
l6 24h8zM594 66q6 0 6 -6.5t-6 -6.5q-5 0 -7 3.5t0 6.5t7 3zM788 53q19 0 19 -22h-23q0 -13 19 -4l4 -9q-13 -6 -25 -1.5t-12 16.5q0 20 18 20zM784 37h13q0 6 -6.5 6t-6.5 -6z" />
    <glyph glyph-name="Euro" unicode="&#x20ac;" 
d="M758 61v-10h8v-8h-8v-12q0 -8 8 -4v-11q-3 -2 -9 -1.5t-9 3.5q-3 4 -3 25h-18v-12q0 -7 10 -4v-11q-13 -3 -18 2q-2 2 -2 13v12h-4v8h4v6l10 4v-10h18v6zM612 879q-15 22 -2.5 44.5t43.5 6.5q49 -21 49 -144q0 -16 -0.5 -29t-6 -46.5t-15 -56t-31 -41.5t-51.5 -19
q-29 0 -49 17t-23 44q-8 -26 -29.5 -41.5t-41.5 -15.5q-78 0 -78 166q0 141 88 141q26 0 32.5 -17t-5.5 -36q-22 -38 -31.5 -85.5t-3.5 -79.5t24 -32q15 0 19.5 30t3 66.5t9.5 67t38 31.5q33 1 37 -64q1 -19 0 -60q-1 -73 11 -81q5 -4 13 0q29 13 29 99t-29 135zM797 586
q-39 0 -58.5 41t-19.5 98q0 16 1.5 33.5t6 46.5t17.5 47t32 18q16 0 27.5 -13.5t11.5 -39.5q0 -12 -6 -57.5t-6 -77.5q0 -37 20 -37q7 0 13.5 6t11.5 17.5t9 25t6.5 31t5 32.5t4 32.5t2 28.5t1.5 23.5t1 14.5q3 23 12.5 34t30.5 11q13 0 21 -5.5t11.5 -17t5 -24.5
t-0.5 -33.5t-4.5 -37.5t-5.5 -42t-5 -43t1 -16q9 6 28 141v4q6 38 22 56t45 18q37 0 58.5 -27t13.5 -77q-3 -16 -6 -38.5t-6 -57t0 -56.5t14 -20q15 3 29 41.5t19.5 97.5t1 123.5t-30 127t-70.5 99.5q-54 45 -118.5 45t-116 -39t-72.5 -104q-20 -62 -54 -61q-28 1 -42 41
q-11 30 -5 67q12 72 81 132.5t157 72.5q93 12 170 -40.5t115 -154.5q35 -108 31 -218t-43 -193.5t-91 -83.5q-36 0 -50.5 39.5t-10.5 87.5q1 22 6 51.5t9 49t4 36t-7 22.5q-14 11 -21 -21q-4 -16 -11 -66q-16 -125 -40 -160q-16 -23 -39 -23q-39 0 -39 65q-7 -29 -26.5 -51
t-50.5 -22zM180 905q0 -13 -10 -20t-18 -7.5t-23 -0.5q-31 0 -58.5 13.5t-27.5 39.5q0 58 81.5 87t252.5 34q161 4 209 -9q57 -16 26 -55q-22 -26 -45.5 -32t-45.5 1t-68.5 13t-98.5 0q-2 -35 -6.5 -104.5t-6.5 -112t-0.5 -95t9.5 -88.5q3 -16 9 -34t10 -28t5 -19t-4.5 -13
t-19.5 -4q-27 0 -46 17t-28.5 39t-14.5 53t-6 48t-1 36q0 90 14 303q-1 0 -22 -1l-31.5 -1.5t-32.5 -2.5t-34.5 -4.5t-27.5 -6t-22.5 -9t-7.5 -12.5q3 -13 23 -10t43.5 1.5t23.5 -16.5zM784 879q-22 0 -33.5 16t-11.5 41q0 21 11.5 36t31.5 15q21 0 32 -14.5t11 -36.5
q0 -21 -10.5 -39t-30.5 -18zM735 530h68t102.5 2t104 7.5t117.5 19t100 33.5q2 1 5 2q6 4 9.5 3t3.5 -11q0 -25 -14 -44t-32 -28.5t-47.5 -16.5t-47 -8.5t-43.5 -3.5q-133 -8 -326 -8q-17 -252 25 -252q19 0 32.5 35.5t22.5 78.5t31 78.5t55 35.5q45 0 50 -43q6 -47 -33 -91
q-20 -24 -48 -36q-1 -15 -1.5 -33.5t9 -34.5t27.5 -16q25 0 43 24t25.5 52.5t9.5 58.5q2 28 -7 54.5t-9 37.5q0 12 9.5 17t18.5 3q28 -6 42.5 -29t11.5 -52q6 28 35.5 53.5t56.5 25.5q41 0 60 -41.5t7 -86t-49 -52.5q-20 -3 -37.5 6.5t-17.5 30.5q0 11 17 11t24 7
q21 20 12 51t-39 27q-27 -5 -37.5 -47t-10 -89.5t-10.5 -85t-38 -34.5q-17 1 -27 29.5t-10 71.5q-11 -37 -33 -64.5t-55 -27.5t-59 24.5t-29 56.5q-32 -71 -68 -71q-25 0 -44 25.5t-25 52.5q-10 -31 -35.5 -56.5t-56.5 -25.5q-30 0 -54.5 23t-23.5 54q-10 -36 -34.5 -59.5
t-59.5 -23.5q-25 0 -47.5 13t-34.5 36q-26 -29 -60 -41q-61 -23 -97 18t-36 135q0 34 7.5 100t5 119.5t-22.5 112.5q-9 26 2 37.5t30 9.5t38 -12q37 -22 48.5 -79t5.5 -123t-13.5 -129t-3 -104.5t31.5 -41.5q26 0 41 25.5t20.5 62t12.5 73t25 62t49 25.5q53 0 48 -52
q-5 -50 -50 -98q-8 -9 -17 -16q-5 -26 6.5 -55t36.5 -29q21 0 35.5 23.5t20 62t7.5 73.5t2 74t1 47q-5 0 -23.5 -1.5t-30.5 -0.5t-28 4t-26.5 13t-14.5 26q-6 27 1.5 31t30.5 -6q15 -6 25 -9t28.5 -6.5t35.5 -3.5q0 27 7 40.5t27 13.5q37 0 37 -54l95 2q0 52 36 52
q16 0 26 -14t9 -36zM571 479q0 -5 -3 -80.5t2 -129t22 -54.5q19 -1 33 21t21 60t10.5 71t5.5 70.5t2 41.5h-93zM391 311q16 13 32 49t7 43q-12 12 -26 -26q-13 -36 -13 -66zM874 311q39 18 52 60q4 20 1 28.5t-14 6.5q-13 -3 -25 -37.5t-14 -57.5zM653 16v50h13v-50h-13z
M514 61v-10h8v-8h-8v-12q0 -7 8 -4v-11q-12 -4 -18 2q-2 3 -2 25h-4v8h4v6zM979 53q10 0 10 -16v-21h-8v19q0 6 -3.5 7.5t-7 -1.5t-3.5 -6v-19h-11v19q0 8 -6 8t-6 -6v-21h-10v35h8l2 -2q4 5 12 4t9 -8q5 8 14 8zM631 53q16 0 16 -16v-21h-14v19q0 4 -2 6t-4.5 1.5
t-3.5 -3.5v-23h-15v35h13l2 -2q4 4 8 4zM821 45q5 8 17 8v-12q-4 1 -9.5 -0.5t-5.5 -3.5v-21h-10v35h8v-6zM690 53q19 0 19 -22h-23q0 -13 19 -4l4 -9q-12 -6 -24.5 -1t-12.5 16q0 20 18 20zM909 53q19 0 19 -19.5t-19 -19.5q-13 0 -18 10t0 19.5t18 9.5zM866 35q0 -8 21 -8
v-9q-26 -8 -32 10q-5 15 11 22q9 4 21 1v-10q-5 3 -13 1.5t-8 -7.5zM590 16v35h10v-35h-10zM348 27l4 24h10l-8 -35h-10l-8 23l-6 -23h-11l-10 35h13l4 -24l6 24h10zM686 37h12q0 6 -6 6t-6 -6zM909 25q7 0 7 9t-7 9t-9 -4.5t0.5 -9t8.5 -4.5zM842 29q6 0 6 -7.5t-6 -7.5
t-6 7.5t6 7.5zM485 29q7 0 7 -7.5t-7 -7.5q-6 0 -6 7.5t6 7.5zM403 27l5 24h12l-10 -35h-11l-6 23l-8 -23h-10l-8 35h10l4 -24l6 24h10zM459 27l6 24h10l-8 -35h-12l-6 23l-7 -23h-12l-8 35h10l4 -24l8 24h9zM567 27l4 24h11l-9 -35h-10l-8 23l-6 -23h-10l-11 35h13l4 -24
l6 24h8zM594 66q6 0 6 -6.5t-6 -6.5q-5 0 -7 3.5t0 6.5t7 3zM788 53q19 0 19 -22h-23q0 -13 19 -4l4 -9q-13 -6 -25 -1.5t-12 16.5q0 20 18 20zM784 37h13q0 6 -6.5 6t-6.5 -6z" />
    </font>
</defs>
</svg>
