<svg width="29" height="34" viewBox="0 0 29 34" fill="none" xmlns="http://www.w3.org/2000/svg">
<path d="M2.05528 17.1284C0.125055 21.7752 -0.0993433 25.6575 0.0297357 27.0178C0.339525 30.4255 4.11062 31.1384 5.95744 31.0689C6.61277 31.6547 8.54299 33.017 11.0213 33.7796C13.4996 34.5421 15.6483 33.1441 16.4128 32.3498L18.8554 28.805C19.4512 28.6958 20.8988 27.8697 21.9235 25.4391C22.9482 23.0084 22.2909 20.5936 21.8342 19.6901C21.3675 18.3993 20.4937 15.222 17.6341 12.8985C15.1227 10.858 13.8015 10.8134 13.2852 11.2304C10.9498 6.32146 9.63123 5.80912 9.26385 6.16657C8.12001 6.83381 8.52909 10.6148 8.87661 12.4219L6.82128 13.4645C4.93871 10.0806 3.09785 9.61198 2.41273 9.80064C0.839956 10.6823 1.51911 15.0532 2.05528 17.1284Z" fill="#EF9220"/>
<path d="M7.95321 17.7837C7.00001 19.0944 7.61562 19.8192 8.04257 20.0178C9.02556 20.1071 9.20428 19.5114 9.65109 19.0646C10.0979 18.6178 10.2766 17.4561 9.65109 17.0986C9.02556 16.7412 8.48938 17.188 7.95321 17.7837Z" fill="white"/>
<path d="M16.77 14.4334C15.2759 14.4507 15.0791 15.3051 15.1674 15.7302C15.6429 16.5062 16.1818 16.3101 16.7583 16.3943C17.3347 16.4786 18.2921 15.9708 18.2118 15.3114C18.1315 14.652 17.5058 14.5017 16.77 14.4334Z" fill="white"/>
<path d="M12.3022 22.4008C11.6111 22.8059 10.9618 22.9072 10.7235 22.9072C7.19661 20.3574 5.38156 21.0107 4.91489 21.6561C3.38977 23.348 5.09362 26.1143 6.13618 27.2859C9.82983 30.5626 16.8299 29.1625 18.8554 28.8051C21.0001 28.4266 21.8044 25.5881 22.0725 24.8434C22.3406 24.0987 22.9661 20.7625 21.4469 19.5412C19.9278 18.3199 13.166 21.8944 12.3022 22.4008Z" fill="white"/>
<path d="M10.2469 7.74529C11.0809 7.7155 11.766 9.94956 12.183 10.6645C12.7615 11.9155 12.3916 12.0049 11.5277 12.3624C10.8367 12.6483 10.3958 12.3326 10.1575 11.6177C9.90927 10.3368 9.57962 7.76912 10.2469 7.74529Z" fill="#F3BEA2"/>
<path d="M3.39576 11.6474C2.34724 11.9572 2.9159 16.5756 3.54469 16.89C3.96171 17.0985 4.34895 16.89 5.36173 16.3241C6.17195 15.8713 6.52343 15.2517 6.583 14.9538C5.9674 13.7524 4.44428 11.3376 3.39576 11.6474Z" fill="#F3BEA2"/>
<path d="M20.8512 21.1199C20.5176 23.0739 19.7987 23.6022 19.481 23.622C17.1933 23.3122 16.4824 22.3411 16.4129 21.8943C16.532 20.822 17.515 20.256 19.2427 20.0475C20.6248 19.8807 20.8909 20.6929 20.8512 21.1199Z" fill="#000002"/>
<path d="M11.2 20.0178C11.6766 20.4944 10.8426 20.5341 10.366 20.4944C10.2866 20.7128 10.3839 21.1497 11.4086 21.1497C12.4332 21.1497 12.7887 20.7128 12.8384 20.4944C12.6715 19.9463 11.6766 19.9483 11.2 20.0178Z" fill="#000002"/>
<path d="M11.2 20.0178C11.6766 20.4944 10.8426 20.5341 10.366 20.4944C10.2866 20.7128 10.3839 21.1497 11.4086 21.1497C12.4332 21.1497 12.7887 20.7128 12.8384 20.4944C12.6715 19.9463 11.6766 19.9483 11.2 20.0178Z" fill="#000002"/>
<path d="M16.2854 18.7093C16.762 19.1859 15.928 19.2256 15.4514 19.1859C15.372 19.4043 15.4693 19.8412 16.4939 19.8412C17.5186 19.8412 17.8741 19.4043 17.9237 19.1859C17.7569 18.6378 16.762 18.6398 16.2854 18.7093Z" fill="#000002"/>
<path d="M16.2854 18.7093C16.762 19.1859 15.928 19.2256 15.4514 19.1859C15.372 19.4043 15.4693 19.8412 16.4939 19.8412C17.5186 19.8412 17.8741 19.4043 17.9237 19.1859C17.7569 18.6378 16.762 18.6398 16.2854 18.7093Z" fill="#000002"/>
<circle cx="15.2809" cy="8.22187" r="0.923412" fill="#D81925"/>
<path d="M13.6128 1.04315C13.7796 6.0951 14.7944 6.96093 15.2809 6.76234C16.2818 6.19042 16.115 2.71124 15.9065 1.04315C15.8568 0.705556 15.555 0.0244159 14.7447 0.000585967C13.9345 -0.023244 13.6525 0.685698 13.6128 1.04315Z" fill="#D81925"/>
<circle cx="18.7048" cy="9.03005" r="0.923412" transform="rotate(26.3997 18.7048 9.03005)" fill="#D81925"/>
<path d="M20.4025 1.85831C18.3057 6.45759 18.8297 7.68431 19.3538 7.72276C20.5045 7.6555 21.9021 4.46498 22.457 2.87813C22.5626 2.55367 22.5951 1.80936 21.88 1.42776C21.1649 1.04617 20.5971 1.5558 20.4025 1.85831Z" fill="#D81925"/>
<circle cx="20.8753" cy="11.3313" r="0.923412" transform="rotate(56.4019 20.8753 11.3313)" fill="#D81925"/>
<path d="M25.9317 5.96921C21.816 8.90372 21.6564 10.2281 22.091 10.5234C23.1213 11.0406 25.9269 8.97641 27.2009 7.87967C27.4547 7.65151 27.855 7.02317 27.4265 6.33512C26.998 5.64707 26.2514 5.80449 25.9317 5.96921Z" fill="#D81925"/>
</svg>
